G04*
G04 #@! TF.GenerationSoftware,Altium Limited,Altium Designer,23.3.1 (30)*
G04*
G04 Layer_Physical_Order=2*
G04 Layer_Color=16711680*
%FSLAX44Y44*%
%MOMM*%
G71*
G04*
G04 #@! TF.SameCoordinates,7D95EF5C-A674-4E58-8619-D26F187C42BB*
G04*
G04*
G04 #@! TF.FilePolarity,Positive*
G04*
G01*
G75*
%ADD38R,1.5000X1.5000*%
%ADD39C,1.5000*%
%ADD40R,1.6510X1.6510*%
%ADD41C,1.6510*%
%ADD42R,1.5000X1.5000*%
%ADD43C,1.7272*%
%ADD44R,1.6764X1.6764*%
%ADD45C,1.2700*%
G36*
X519938Y460756D02*
Y422148D01*
X517398Y419608D01*
X394716D01*
X387604Y426720D01*
Y462026D01*
X387759Y462181D01*
X518513D01*
X519938Y460756D01*
D02*
G37*
G36*
X655221Y274419D02*
X246479D01*
Y462181D01*
X384887D01*
X385014Y462026D01*
Y426720D01*
X385211Y425729D01*
X385773Y424889D01*
X392885Y417777D01*
X393725Y417215D01*
X394716Y417018D01*
X471530D01*
X472560Y416440D01*
X472560Y415748D01*
Y396360D01*
X492640D01*
Y415748D01*
X492640Y416440D01*
X493671Y417018D01*
X496930D01*
X497960Y416440D01*
X497960Y415748D01*
Y396360D01*
X518040D01*
Y416037D01*
X518252Y416752D01*
X518712Y417431D01*
X519229Y417777D01*
X521537Y420084D01*
X522478Y420878D01*
X544322D01*
Y442722D01*
X522528D01*
Y460756D01*
X522497Y460911D01*
X523452Y462181D01*
X655221D01*
Y274419D01*
D02*
G37*
%LPC*%
G36*
X315595Y442595D02*
X294005D01*
Y421005D01*
X315595D01*
Y442595D01*
D02*
G37*
G36*
X280821D02*
X277979D01*
X275233Y441859D01*
X272772Y440438D01*
X270762Y438428D01*
X269341Y435967D01*
X268605Y433221D01*
Y430379D01*
X269341Y427633D01*
X270762Y425172D01*
X272772Y423162D01*
X275233Y421741D01*
X277979Y421005D01*
X280821D01*
X283567Y421741D01*
X286028Y423162D01*
X288038Y425172D01*
X289459Y427633D01*
X290195Y430379D01*
Y433221D01*
X289459Y435967D01*
X288038Y438428D01*
X286028Y440438D01*
X283567Y441859D01*
X280821Y442595D01*
D02*
G37*
G36*
X560271Y442976D02*
X557329D01*
X554486Y442214D01*
X551938Y440743D01*
X549857Y438662D01*
X548386Y436114D01*
X547624Y433271D01*
Y430329D01*
X548386Y427486D01*
X549857Y424938D01*
X551938Y422857D01*
X554486Y421386D01*
X557329Y420624D01*
X560271D01*
X563114Y421386D01*
X565662Y422857D01*
X567743Y424938D01*
X569214Y427486D01*
X569976Y430329D01*
Y433271D01*
X569214Y436114D01*
X567743Y438662D01*
X565662Y440743D01*
X563114Y442214D01*
X560271Y442976D01*
D02*
G37*
G36*
X365640Y416440D02*
X345560D01*
Y396360D01*
X365640D01*
Y416440D01*
D02*
G37*
G36*
X340240D02*
X320160D01*
Y396360D01*
X340240D01*
Y416440D01*
D02*
G37*
G36*
X306221Y417195D02*
X303379D01*
X300633Y416459D01*
X298172Y415038D01*
X296162Y413028D01*
X294741Y410567D01*
X294005Y407821D01*
Y404979D01*
X294741Y402233D01*
X296162Y399772D01*
X298172Y397762D01*
X300633Y396341D01*
X303379Y395605D01*
X306221D01*
X308967Y396341D01*
X311428Y397762D01*
X313438Y399772D01*
X314859Y402233D01*
X315595Y404979D01*
Y407821D01*
X314859Y410567D01*
X313438Y413028D01*
X311428Y415038D01*
X308967Y416459D01*
X306221Y417195D01*
D02*
G37*
G36*
X280821D02*
X277979D01*
X275233Y416459D01*
X272772Y415038D01*
X270762Y413028D01*
X269341Y410567D01*
X268605Y407821D01*
Y404979D01*
X269341Y402233D01*
X270762Y399772D01*
X272772Y397762D01*
X275233Y396341D01*
X277979Y395605D01*
X280821D01*
X283567Y396341D01*
X286028Y397762D01*
X288038Y399772D01*
X289459Y402233D01*
X290195Y404979D01*
Y407821D01*
X289459Y410567D01*
X288038Y413028D01*
X286028Y415038D01*
X283567Y416459D01*
X280821Y417195D01*
D02*
G37*
G36*
X560271Y417576D02*
X557329D01*
X554486Y416814D01*
X551938Y415343D01*
X549857Y413262D01*
X548386Y410714D01*
X547624Y407871D01*
Y404929D01*
X548386Y402086D01*
X549857Y399538D01*
X551938Y397457D01*
X554486Y395986D01*
X557329Y395224D01*
X560271D01*
X563114Y395986D01*
X565662Y397457D01*
X567743Y399538D01*
X569214Y402086D01*
X569976Y404929D01*
Y407871D01*
X569214Y410714D01*
X567743Y413262D01*
X565662Y415343D01*
X563114Y416814D01*
X560271Y417576D01*
D02*
G37*
G36*
X534871D02*
X531929D01*
X529086Y416814D01*
X526538Y415343D01*
X524457Y413262D01*
X522986Y410714D01*
X522224Y407871D01*
Y404929D01*
X522986Y402086D01*
X524457Y399538D01*
X526538Y397457D01*
X529086Y395986D01*
X531929Y395224D01*
X534871D01*
X537714Y395986D01*
X540262Y397457D01*
X542343Y399538D01*
X543814Y402086D01*
X544576Y404929D01*
Y407871D01*
X543814Y410714D01*
X542343Y413262D01*
X540262Y415343D01*
X537714Y416814D01*
X534871Y417576D01*
D02*
G37*
G36*
X509322Y391040D02*
X506678D01*
X504125Y390356D01*
X501835Y389034D01*
X499966Y387165D01*
X498644Y384875D01*
X497960Y382322D01*
Y379678D01*
X498644Y377125D01*
X499966Y374835D01*
X501835Y372966D01*
X504125Y371644D01*
X506678Y370960D01*
X509322D01*
X511875Y371644D01*
X514165Y372966D01*
X516034Y374835D01*
X517356Y377125D01*
X518040Y379678D01*
Y382322D01*
X517356Y384875D01*
X516034Y387165D01*
X514165Y389034D01*
X511875Y390356D01*
X509322Y391040D01*
D02*
G37*
G36*
X483922D02*
X481278D01*
X478725Y390356D01*
X476435Y389034D01*
X474566Y387165D01*
X473244Y384875D01*
X472560Y382322D01*
Y379678D01*
X473244Y377125D01*
X474566Y374835D01*
X476435Y372966D01*
X478725Y371644D01*
X481278Y370960D01*
X483922D01*
X486475Y371644D01*
X488765Y372966D01*
X490634Y374835D01*
X491956Y377125D01*
X492640Y379678D01*
Y382322D01*
X491956Y384875D01*
X490634Y387165D01*
X488765Y389034D01*
X486475Y390356D01*
X483922Y391040D01*
D02*
G37*
G36*
X356922D02*
X354278D01*
X351725Y390356D01*
X349435Y389034D01*
X347566Y387165D01*
X346244Y384875D01*
X345560Y382322D01*
Y379678D01*
X346244Y377125D01*
X347566Y374835D01*
X349435Y372966D01*
X351725Y371644D01*
X354278Y370960D01*
X356922D01*
X359475Y371644D01*
X361765Y372966D01*
X363634Y374835D01*
X364956Y377125D01*
X365640Y379678D01*
Y382322D01*
X364956Y384875D01*
X363634Y387165D01*
X361765Y389034D01*
X359475Y390356D01*
X356922Y391040D01*
D02*
G37*
G36*
X331522D02*
X328878D01*
X326325Y390356D01*
X324035Y389034D01*
X322166Y387165D01*
X320844Y384875D01*
X320160Y382322D01*
Y379678D01*
X320844Y377125D01*
X322166Y374835D01*
X324035Y372966D01*
X326325Y371644D01*
X328878Y370960D01*
X331522D01*
X334075Y371644D01*
X336365Y372966D01*
X338234Y374835D01*
X339556Y377125D01*
X340240Y379678D01*
Y382322D01*
X339556Y384875D01*
X338234Y387165D01*
X336365Y389034D01*
X334075Y390356D01*
X331522Y391040D01*
D02*
G37*
G36*
X306221Y391795D02*
X303379D01*
X300633Y391059D01*
X298172Y389638D01*
X296162Y387628D01*
X294741Y385167D01*
X294005Y382421D01*
Y379579D01*
X294741Y376833D01*
X296162Y374372D01*
X298172Y372362D01*
X300633Y370941D01*
X303379Y370205D01*
X306221D01*
X308967Y370941D01*
X311428Y372362D01*
X313438Y374372D01*
X314859Y376833D01*
X315595Y379579D01*
Y382421D01*
X314859Y385167D01*
X313438Y387628D01*
X311428Y389638D01*
X308967Y391059D01*
X306221Y391795D01*
D02*
G37*
G36*
X280821D02*
X277979D01*
X275233Y391059D01*
X272772Y389638D01*
X270762Y387628D01*
X269341Y385167D01*
X268605Y382421D01*
Y379579D01*
X269341Y376833D01*
X270762Y374372D01*
X272772Y372362D01*
X275233Y370941D01*
X277979Y370205D01*
X280821D01*
X283567Y370941D01*
X286028Y372362D01*
X288038Y374372D01*
X289459Y376833D01*
X290195Y379579D01*
Y382421D01*
X289459Y385167D01*
X288038Y387628D01*
X286028Y389638D01*
X283567Y391059D01*
X280821Y391795D01*
D02*
G37*
G36*
X560271Y392176D02*
X557329D01*
X554486Y391414D01*
X551938Y389943D01*
X549857Y387862D01*
X548386Y385314D01*
X547624Y382471D01*
Y379529D01*
X548386Y376686D01*
X549857Y374138D01*
X551938Y372057D01*
X554486Y370586D01*
X557329Y369824D01*
X560271D01*
X563114Y370586D01*
X565662Y372057D01*
X567743Y374138D01*
X569214Y376686D01*
X569976Y379529D01*
Y382471D01*
X569214Y385314D01*
X567743Y387862D01*
X565662Y389943D01*
X563114Y391414D01*
X560271Y392176D01*
D02*
G37*
G36*
X534871D02*
X531929D01*
X529086Y391414D01*
X526538Y389943D01*
X524457Y387862D01*
X522986Y385314D01*
X522224Y382471D01*
Y379529D01*
X522986Y376686D01*
X524457Y374138D01*
X526538Y372057D01*
X529086Y370586D01*
X531929Y369824D01*
X534871D01*
X537714Y370586D01*
X540262Y372057D01*
X542343Y374138D01*
X543814Y376686D01*
X544576Y379529D01*
Y382471D01*
X543814Y385314D01*
X542343Y387862D01*
X540262Y389943D01*
X537714Y391414D01*
X534871Y392176D01*
D02*
G37*
G36*
X509322Y365640D02*
X506678D01*
X504125Y364956D01*
X501835Y363634D01*
X499966Y361765D01*
X498644Y359475D01*
X497960Y356922D01*
Y354278D01*
X498644Y351725D01*
X499966Y349435D01*
X501835Y347566D01*
X504125Y346244D01*
X506678Y345560D01*
X509322D01*
X511875Y346244D01*
X514165Y347566D01*
X516034Y349435D01*
X517356Y351725D01*
X518040Y354278D01*
Y356922D01*
X517356Y359475D01*
X516034Y361765D01*
X514165Y363634D01*
X511875Y364956D01*
X509322Y365640D01*
D02*
G37*
G36*
X483922D02*
X481278D01*
X478725Y364956D01*
X476435Y363634D01*
X474566Y361765D01*
X473244Y359475D01*
X472560Y356922D01*
Y354278D01*
X473244Y351725D01*
X474566Y349435D01*
X476435Y347566D01*
X478725Y346244D01*
X481278Y345560D01*
X483922D01*
X486475Y346244D01*
X488765Y347566D01*
X490634Y349435D01*
X491956Y351725D01*
X492640Y354278D01*
Y356922D01*
X491956Y359475D01*
X490634Y361765D01*
X488765Y363634D01*
X486475Y364956D01*
X483922Y365640D01*
D02*
G37*
G36*
X356922D02*
X354278D01*
X351725Y364956D01*
X349435Y363634D01*
X347566Y361765D01*
X346244Y359475D01*
X345560Y356922D01*
Y354278D01*
X346244Y351725D01*
X347566Y349435D01*
X349435Y347566D01*
X351725Y346244D01*
X354278Y345560D01*
X356922D01*
X359475Y346244D01*
X361765Y347566D01*
X363634Y349435D01*
X364956Y351725D01*
X365640Y354278D01*
Y356922D01*
X364956Y359475D01*
X363634Y361765D01*
X361765Y363634D01*
X359475Y364956D01*
X356922Y365640D01*
D02*
G37*
G36*
X331522D02*
X328878D01*
X326325Y364956D01*
X324035Y363634D01*
X322166Y361765D01*
X320844Y359475D01*
X320160Y356922D01*
Y354278D01*
X320844Y351725D01*
X322166Y349435D01*
X324035Y347566D01*
X326325Y346244D01*
X328878Y345560D01*
X331522D01*
X334075Y346244D01*
X336365Y347566D01*
X338234Y349435D01*
X339556Y351725D01*
X340240Y354278D01*
Y356922D01*
X339556Y359475D01*
X338234Y361765D01*
X336365Y363634D01*
X334075Y364956D01*
X331522Y365640D01*
D02*
G37*
G36*
X306221Y366395D02*
X303379D01*
X300633Y365659D01*
X298172Y364238D01*
X296162Y362228D01*
X294741Y359767D01*
X294005Y357021D01*
Y354179D01*
X294741Y351433D01*
X296162Y348972D01*
X298172Y346962D01*
X300633Y345541D01*
X303379Y344805D01*
X306221D01*
X308967Y345541D01*
X311428Y346962D01*
X313438Y348972D01*
X314859Y351433D01*
X315595Y354179D01*
Y357021D01*
X314859Y359767D01*
X313438Y362228D01*
X311428Y364238D01*
X308967Y365659D01*
X306221Y366395D01*
D02*
G37*
G36*
X280821D02*
X277979D01*
X275233Y365659D01*
X272772Y364238D01*
X270762Y362228D01*
X269341Y359767D01*
X268605Y357021D01*
Y354179D01*
X269341Y351433D01*
X270762Y348972D01*
X272772Y346962D01*
X275233Y345541D01*
X277979Y344805D01*
X280821D01*
X283567Y345541D01*
X286028Y346962D01*
X288038Y348972D01*
X289459Y351433D01*
X290195Y354179D01*
Y357021D01*
X289459Y359767D01*
X288038Y362228D01*
X286028Y364238D01*
X283567Y365659D01*
X280821Y366395D01*
D02*
G37*
G36*
X560271Y366776D02*
X557329D01*
X554486Y366014D01*
X551938Y364543D01*
X549857Y362462D01*
X548386Y359914D01*
X547624Y357071D01*
Y354129D01*
X548386Y351286D01*
X549857Y348738D01*
X551938Y346657D01*
X554486Y345186D01*
X557329Y344424D01*
X560271D01*
X563114Y345186D01*
X565662Y346657D01*
X567743Y348738D01*
X569214Y351286D01*
X569976Y354129D01*
Y357071D01*
X569214Y359914D01*
X567743Y362462D01*
X565662Y364543D01*
X563114Y366014D01*
X560271Y366776D01*
D02*
G37*
G36*
X534871D02*
X531929D01*
X529086Y366014D01*
X526538Y364543D01*
X524457Y362462D01*
X522986Y359914D01*
X522224Y357071D01*
Y354129D01*
X522986Y351286D01*
X524457Y348738D01*
X526538Y346657D01*
X529086Y345186D01*
X531929Y344424D01*
X534871D01*
X537714Y345186D01*
X540262Y346657D01*
X542343Y348738D01*
X543814Y351286D01*
X544576Y354129D01*
Y357071D01*
X543814Y359914D01*
X542343Y362462D01*
X540262Y364543D01*
X537714Y366014D01*
X534871Y366776D01*
D02*
G37*
G36*
X560271Y341376D02*
X560070D01*
Y331470D01*
X569976D01*
Y331671D01*
X569214Y334514D01*
X567743Y337062D01*
X565662Y339143D01*
X563114Y340614D01*
X560271Y341376D01*
D02*
G37*
G36*
X557530D02*
X557329D01*
X554486Y340614D01*
X551938Y339143D01*
X549857Y337062D01*
X548386Y334514D01*
X547624Y331671D01*
Y331470D01*
X557530D01*
Y341376D01*
D02*
G37*
G36*
X534871D02*
X534670D01*
Y331470D01*
X544576D01*
Y331671D01*
X543814Y334514D01*
X542343Y337062D01*
X540262Y339143D01*
X537714Y340614D01*
X534871Y341376D01*
D02*
G37*
G36*
X532130D02*
X531929D01*
X529086Y340614D01*
X526538Y339143D01*
X524457Y337062D01*
X522986Y334514D01*
X522224Y331671D01*
Y331470D01*
X532130D01*
Y341376D01*
D02*
G37*
G36*
X306221Y340995D02*
X306070D01*
Y331470D01*
X315595D01*
Y331621D01*
X314859Y334367D01*
X313438Y336828D01*
X311428Y338838D01*
X308967Y340259D01*
X306221Y340995D01*
D02*
G37*
G36*
X303530D02*
X303379D01*
X300633Y340259D01*
X298172Y338838D01*
X296162Y336828D01*
X294741Y334367D01*
X294005Y331621D01*
Y331470D01*
X303530D01*
Y340995D01*
D02*
G37*
G36*
X280821D02*
X280670D01*
Y331470D01*
X290195D01*
Y331621D01*
X289459Y334367D01*
X288038Y336828D01*
X286028Y338838D01*
X283567Y340259D01*
X280821Y340995D01*
D02*
G37*
G36*
X278130D02*
X277979D01*
X275233Y340259D01*
X272772Y338838D01*
X270762Y336828D01*
X269341Y334367D01*
X268605Y331621D01*
Y331470D01*
X278130D01*
Y340995D01*
D02*
G37*
G36*
X509322Y340240D02*
X506678D01*
X504125Y339556D01*
X501835Y338234D01*
X499966Y336365D01*
X498644Y334075D01*
X497960Y331522D01*
Y328878D01*
X498644Y326325D01*
X499966Y324035D01*
X501835Y322166D01*
X504125Y320844D01*
X506678Y320160D01*
X509322D01*
X511875Y320844D01*
X514165Y322166D01*
X516034Y324035D01*
X517356Y326325D01*
X518040Y328878D01*
Y331522D01*
X517356Y334075D01*
X516034Y336365D01*
X514165Y338234D01*
X511875Y339556D01*
X509322Y340240D01*
D02*
G37*
G36*
X483922D02*
X481278D01*
X478725Y339556D01*
X476435Y338234D01*
X474566Y336365D01*
X473244Y334075D01*
X472560Y331522D01*
Y328878D01*
X473244Y326325D01*
X474566Y324035D01*
X476435Y322166D01*
X478725Y320844D01*
X481278Y320160D01*
X483922D01*
X486475Y320844D01*
X488765Y322166D01*
X490634Y324035D01*
X491956Y326325D01*
X492640Y328878D01*
Y331522D01*
X491956Y334075D01*
X490634Y336365D01*
X488765Y338234D01*
X486475Y339556D01*
X483922Y340240D01*
D02*
G37*
G36*
X356922D02*
X354278D01*
X351725Y339556D01*
X349435Y338234D01*
X347566Y336365D01*
X346244Y334075D01*
X345560Y331522D01*
Y328878D01*
X346244Y326325D01*
X347566Y324035D01*
X349435Y322166D01*
X351725Y320844D01*
X354278Y320160D01*
X356922D01*
X359475Y320844D01*
X361765Y322166D01*
X363634Y324035D01*
X364956Y326325D01*
X365640Y328878D01*
Y331522D01*
X364956Y334075D01*
X363634Y336365D01*
X361765Y338234D01*
X359475Y339556D01*
X356922Y340240D01*
D02*
G37*
G36*
X331522D02*
X328878D01*
X326325Y339556D01*
X324035Y338234D01*
X322166Y336365D01*
X320844Y334075D01*
X320160Y331522D01*
Y328878D01*
X320844Y326325D01*
X322166Y324035D01*
X324035Y322166D01*
X326325Y320844D01*
X328878Y320160D01*
X331522D01*
X334075Y320844D01*
X336365Y322166D01*
X338234Y324035D01*
X339556Y326325D01*
X340240Y328878D01*
Y331522D01*
X339556Y334075D01*
X338234Y336365D01*
X336365Y338234D01*
X334075Y339556D01*
X331522Y340240D01*
D02*
G37*
G36*
X315595Y328930D02*
X306070D01*
Y319405D01*
X306221D01*
X308967Y320141D01*
X311428Y321562D01*
X313438Y323572D01*
X314859Y326033D01*
X315595Y328779D01*
Y328930D01*
D02*
G37*
G36*
X303530D02*
X294005D01*
Y328779D01*
X294741Y326033D01*
X296162Y323572D01*
X298172Y321562D01*
X300633Y320141D01*
X303379Y319405D01*
X303530D01*
Y328930D01*
D02*
G37*
G36*
X290195D02*
X280670D01*
Y319405D01*
X280821D01*
X283567Y320141D01*
X286028Y321562D01*
X288038Y323572D01*
X289459Y326033D01*
X290195Y328779D01*
Y328930D01*
D02*
G37*
G36*
X278130D02*
X268605D01*
Y328779D01*
X269341Y326033D01*
X270762Y323572D01*
X272772Y321562D01*
X275233Y320141D01*
X277979Y319405D01*
X278130D01*
Y328930D01*
D02*
G37*
G36*
X569976D02*
X560070D01*
Y319024D01*
X560271D01*
X563114Y319786D01*
X565662Y321257D01*
X567743Y323338D01*
X569214Y325886D01*
X569976Y328729D01*
Y328930D01*
D02*
G37*
G36*
X557530D02*
X547624D01*
Y328729D01*
X548386Y325886D01*
X549857Y323338D01*
X551938Y321257D01*
X554486Y319786D01*
X557329Y319024D01*
X557530D01*
Y328930D01*
D02*
G37*
G36*
X544576D02*
X534670D01*
Y319024D01*
X534871D01*
X537714Y319786D01*
X540262Y321257D01*
X542343Y323338D01*
X543814Y325886D01*
X544576Y328729D01*
Y328930D01*
D02*
G37*
G36*
X532130D02*
X522224D01*
Y328729D01*
X522986Y325886D01*
X524457Y323338D01*
X526538Y321257D01*
X529086Y319786D01*
X531929Y319024D01*
X532130D01*
Y328930D01*
D02*
G37*
G36*
X434392Y311030D02*
X434340D01*
Y302260D01*
X443110D01*
Y302312D01*
X442426Y304865D01*
X441104Y307155D01*
X439235Y309024D01*
X436945Y310346D01*
X434392Y311030D01*
D02*
G37*
G36*
X408992D02*
X408940D01*
Y302260D01*
X417710D01*
Y302312D01*
X417026Y304865D01*
X415704Y307155D01*
X413835Y309024D01*
X411545Y310346D01*
X408992Y311030D01*
D02*
G37*
G36*
X431800D02*
X431748D01*
X429195Y310346D01*
X426905Y309024D01*
X425036Y307155D01*
X423714Y304865D01*
X423030Y302312D01*
Y302260D01*
X431800D01*
Y311030D01*
D02*
G37*
G36*
X406400D02*
X406348D01*
X403795Y310346D01*
X401505Y309024D01*
X399636Y307155D01*
X398314Y304865D01*
X397630Y302312D01*
Y302260D01*
X406400D01*
Y311030D01*
D02*
G37*
G36*
X306221Y315595D02*
X303379D01*
X300633Y314859D01*
X298172Y313438D01*
X296162Y311428D01*
X294741Y308967D01*
X294005Y306221D01*
Y303379D01*
X294741Y300633D01*
X296162Y298172D01*
X298172Y296162D01*
X300633Y294741D01*
X303379Y294005D01*
X306221D01*
X308967Y294741D01*
X311428Y296162D01*
X313438Y298172D01*
X314859Y300633D01*
X315595Y303379D01*
Y306221D01*
X314859Y308967D01*
X313438Y311428D01*
X311428Y313438D01*
X308967Y314859D01*
X306221Y315595D01*
D02*
G37*
G36*
X280821D02*
X277979D01*
X275233Y314859D01*
X272772Y313438D01*
X270762Y311428D01*
X269341Y308967D01*
X268605Y306221D01*
Y303379D01*
X269341Y300633D01*
X270762Y298172D01*
X272772Y296162D01*
X275233Y294741D01*
X277979Y294005D01*
X280821D01*
X283567Y294741D01*
X286028Y296162D01*
X288038Y298172D01*
X289459Y300633D01*
X290195Y303379D01*
Y306221D01*
X289459Y308967D01*
X288038Y311428D01*
X286028Y313438D01*
X283567Y314859D01*
X280821Y315595D01*
D02*
G37*
G36*
X560271Y315976D02*
X557329D01*
X554486Y315214D01*
X551938Y313743D01*
X549857Y311662D01*
X548386Y309114D01*
X547624Y306271D01*
Y303329D01*
X548386Y300486D01*
X549857Y297938D01*
X551938Y295857D01*
X554486Y294386D01*
X557329Y293624D01*
X560271D01*
X563114Y294386D01*
X565662Y295857D01*
X567743Y297938D01*
X569214Y300486D01*
X569976Y303329D01*
Y306271D01*
X569214Y309114D01*
X567743Y311662D01*
X565662Y313743D01*
X563114Y315214D01*
X560271Y315976D01*
D02*
G37*
G36*
X534871D02*
X531929D01*
X529086Y315214D01*
X526538Y313743D01*
X524457Y311662D01*
X522986Y309114D01*
X522224Y306271D01*
Y303329D01*
X522986Y300486D01*
X524457Y297938D01*
X526538Y295857D01*
X529086Y294386D01*
X531929Y293624D01*
X534871D01*
X537714Y294386D01*
X540262Y295857D01*
X542343Y297938D01*
X543814Y300486D01*
X544576Y303329D01*
Y306271D01*
X543814Y309114D01*
X542343Y311662D01*
X540262Y313743D01*
X537714Y315214D01*
X534871Y315976D01*
D02*
G37*
G36*
X468510Y311030D02*
X448430D01*
Y290950D01*
X468510D01*
Y311030D01*
D02*
G37*
G36*
X443110Y299720D02*
X434340D01*
Y290950D01*
X434392D01*
X436945Y291634D01*
X439235Y292956D01*
X441104Y294825D01*
X442426Y297115D01*
X443110Y299668D01*
Y299720D01*
D02*
G37*
G36*
X431800D02*
X423030D01*
Y299668D01*
X423714Y297115D01*
X425036Y294825D01*
X426905Y292956D01*
X429195Y291634D01*
X431748Y290950D01*
X431800D01*
Y299720D01*
D02*
G37*
G36*
X417710D02*
X408940D01*
Y290950D01*
X408992D01*
X411545Y291634D01*
X413835Y292956D01*
X415704Y294825D01*
X417026Y297115D01*
X417710Y299668D01*
Y299720D01*
D02*
G37*
G36*
X406400D02*
X397630D01*
Y299668D01*
X398314Y297115D01*
X399636Y294825D01*
X401505Y292956D01*
X403795Y291634D01*
X406348Y290950D01*
X406400D01*
Y299720D01*
D02*
G37*
G36*
X383592Y311030D02*
X380948D01*
X378395Y310346D01*
X376105Y309024D01*
X374236Y307155D01*
X372914Y304865D01*
X372230Y302312D01*
Y299668D01*
X372914Y297115D01*
X374236Y294825D01*
X376105Y292956D01*
X378395Y291634D01*
X380948Y290950D01*
X383592D01*
X386145Y291634D01*
X388435Y292956D01*
X390304Y294825D01*
X391626Y297115D01*
X392310Y299668D01*
Y302312D01*
X391626Y304865D01*
X390304Y307155D01*
X388435Y309024D01*
X386145Y310346D01*
X383592Y311030D01*
D02*
G37*
%LPD*%
D38*
X355600Y406400D02*
D03*
X330200D02*
D03*
X508000D02*
D03*
X482600D02*
D03*
D39*
X355600Y381000D02*
D03*
Y355600D02*
D03*
Y330200D02*
D03*
X330200Y381000D02*
D03*
Y355600D02*
D03*
Y330200D02*
D03*
X382270Y300990D02*
D03*
X407670D02*
D03*
X433070D02*
D03*
X508000Y330200D02*
D03*
Y355600D02*
D03*
Y381000D02*
D03*
X482600Y330200D02*
D03*
Y355600D02*
D03*
Y381000D02*
D03*
D40*
X304800Y431800D02*
D03*
D41*
Y406400D02*
D03*
Y381000D02*
D03*
Y355600D02*
D03*
Y330200D02*
D03*
Y304800D02*
D03*
X279400Y431800D02*
D03*
Y406400D02*
D03*
Y381000D02*
D03*
Y355600D02*
D03*
Y330200D02*
D03*
Y304800D02*
D03*
D42*
X458470Y300990D02*
D03*
D43*
X558800Y304800D02*
D03*
Y330200D02*
D03*
Y355600D02*
D03*
Y381000D02*
D03*
Y406400D02*
D03*
Y431800D02*
D03*
X533400Y304800D02*
D03*
Y330200D02*
D03*
Y355600D02*
D03*
Y381000D02*
D03*
Y406400D02*
D03*
D44*
Y431800D02*
D03*
D45*
X382604Y391100D02*
D03*
X322503Y455930D02*
D03*
X425704Y428244D02*
D03*
X452120Y455422D02*
D03*
X374510Y455815D02*
D03*
X327660Y307340D02*
D03*
X508762Y293116D02*
D03*
X509016Y308864D02*
D03*
M02*
