G04*
G04 #@! TF.GenerationSoftware,Altium Limited,Altium Designer,23.3.1 (30)*
G04*
G04 Layer_Color=32896*
%FSLAX44Y44*%
%MOMM*%
G71*
G04*
G04 #@! TF.SameCoordinates,7D95EF5C-A674-4E58-8619-D26F187C42BB*
G04*
G04*
G04 #@! TF.FilePolarity,Positive*
G04*
G01*
G75*
G36*
X460742Y443045D02*
X460330Y442323D01*
X460082Y442488D01*
X459866Y442633D01*
X459690Y442736D01*
X459546Y442829D01*
X459433Y442891D01*
X459360Y442932D01*
X459309Y442952D01*
X459299Y442963D01*
X459185Y443014D01*
X459092Y443056D01*
X459010Y443087D01*
X458938Y443107D01*
X458886Y443117D01*
X458845Y443128D01*
X458752D01*
X458690Y443107D01*
X458597Y443066D01*
X458546Y443025D01*
X458525Y443014D01*
Y443004D01*
X458484Y442952D01*
X458463Y442891D01*
X458422Y442757D01*
Y442695D01*
X458412Y442643D01*
Y442602D01*
Y442592D01*
Y437621D01*
Y437456D01*
X458422Y437312D01*
X458432Y437198D01*
X458453Y437095D01*
X458463Y437023D01*
X458484Y436971D01*
X458494Y436940D01*
Y436930D01*
X458566Y436786D01*
X458649Y436683D01*
X458690Y436652D01*
X458721Y436621D01*
X458742Y436610D01*
X458752Y436600D01*
X458824Y436559D01*
X458896Y436528D01*
X459061Y436466D01*
X459133Y436456D01*
X459195Y436435D01*
X459237Y436425D01*
X459247D01*
X459309Y436414D01*
X459381Y436404D01*
X459546Y436383D01*
X459732Y436373D01*
X459907Y436353D01*
X460072Y436342D01*
X460206D01*
X460258Y436332D01*
X460330D01*
Y435713D01*
X454400D01*
Y436332D01*
X454586Y436342D01*
X454751D01*
X454906Y436353D01*
X455029Y436363D01*
X455122Y436373D01*
X455194D01*
X455235Y436383D01*
X455256D01*
X455369Y436404D01*
X455473Y436414D01*
X455565Y436435D01*
X455648Y436456D01*
X455710Y436476D01*
X455751Y436487D01*
X455782Y436497D01*
X455792D01*
X455926Y436559D01*
X456030Y436621D01*
X456091Y436672D01*
X456102Y436693D01*
X456112D01*
X456184Y436796D01*
X456236Y436909D01*
X456256Y436951D01*
X456267Y436992D01*
X456277Y437012D01*
Y437023D01*
X456287Y437105D01*
X456298Y437208D01*
X456308Y437404D01*
X456318Y437487D01*
Y437559D01*
Y437600D01*
Y437621D01*
Y443375D01*
Y443592D01*
Y443788D01*
Y443973D01*
X456308Y444149D01*
Y444314D01*
Y444468D01*
X456298Y444602D01*
Y444726D01*
Y444840D01*
X456287Y444932D01*
Y445015D01*
Y445077D01*
X456277Y445128D01*
Y445170D01*
Y445190D01*
Y445201D01*
X457154D01*
X460742Y443045D01*
D02*
G37*
G36*
X493608Y444633D02*
X493515Y444613D01*
X493433Y444582D01*
X493360Y444561D01*
X493298Y444530D01*
X493257Y444510D01*
X493226Y444499D01*
X493206Y444479D01*
X493195D01*
X493103Y444407D01*
X493030Y444334D01*
X492989Y444272D01*
X492979Y444262D01*
Y444252D01*
X492938Y444138D01*
X492907Y444025D01*
X492896Y443973D01*
X492886Y443942D01*
Y443912D01*
Y443901D01*
X492876Y443819D01*
Y443726D01*
X492865Y443550D01*
Y443468D01*
Y443406D01*
Y443365D01*
Y443355D01*
Y437435D01*
Y437322D01*
Y437208D01*
X492876Y437116D01*
Y437043D01*
Y436971D01*
X492886Y436930D01*
Y436899D01*
Y436889D01*
X492907Y436744D01*
X492938Y436631D01*
X492958Y436590D01*
X492968Y436559D01*
X492979Y436538D01*
Y436528D01*
X493041Y436435D01*
X493123Y436363D01*
X493185Y436322D01*
X493195Y436301D01*
X493206D01*
X493268Y436270D01*
X493330Y436249D01*
X493464Y436198D01*
X493515Y436188D01*
X493567Y436167D01*
X493598Y436157D01*
X493608D01*
Y435713D01*
X486843D01*
X486719Y438219D01*
X487658D01*
X487699Y438064D01*
X487740Y437930D01*
X487781Y437817D01*
X487812Y437714D01*
X487843Y437641D01*
X487864Y437580D01*
X487884Y437549D01*
Y437538D01*
X487957Y437373D01*
X487988Y437301D01*
X488019Y437250D01*
X488050Y437198D01*
X488060Y437167D01*
X488080Y437146D01*
Y437136D01*
X488153Y437023D01*
X488225Y436930D01*
X488276Y436868D01*
X488287Y436858D01*
X488297Y436847D01*
X488380Y436765D01*
X488462Y436703D01*
X488524Y436652D01*
X488534Y436641D01*
X488545D01*
X488648Y436600D01*
X488740Y436559D01*
X488782Y436548D01*
X488813D01*
X488833Y436538D01*
X488844D01*
X488978Y436517D01*
X489101Y436507D01*
X490741D01*
Y440178D01*
X489720D01*
X489617Y440168D01*
X489534Y440148D01*
X489462Y440137D01*
X489411Y440117D01*
X489380Y440096D01*
X489359Y440086D01*
X489349D01*
X489287Y440044D01*
X489235Y440003D01*
X489143Y439910D01*
X489112Y439859D01*
X489091Y439818D01*
X489070Y439797D01*
Y439786D01*
X489029Y439704D01*
X488988Y439611D01*
X488916Y439415D01*
X488885Y439323D01*
X488875Y439250D01*
X488854Y439209D01*
Y439188D01*
X488080D01*
Y441973D01*
X488854D01*
X488895Y441828D01*
X488926Y441705D01*
X488967Y441591D01*
X488998Y441509D01*
X489029Y441437D01*
X489050Y441395D01*
X489060Y441364D01*
X489070Y441354D01*
X489163Y441230D01*
X489256Y441137D01*
X489297Y441106D01*
X489328Y441086D01*
X489349Y441065D01*
X489359D01*
X489431Y441034D01*
X489504Y441014D01*
X489658Y440993D01*
X489730Y440983D01*
X490741D01*
Y444283D01*
X489235D01*
X489050Y444272D01*
X488895Y444262D01*
X488771Y444241D01*
X488668Y444221D01*
X488586Y444190D01*
X488534Y444169D01*
X488503Y444159D01*
X488493Y444149D01*
X488338Y444035D01*
X488276Y443973D01*
X488214Y443922D01*
X488173Y443870D01*
X488142Y443829D01*
X488122Y443798D01*
X488111Y443788D01*
X488050Y443685D01*
X487988Y443550D01*
X487926Y443406D01*
X487864Y443262D01*
X487812Y443117D01*
X487771Y443004D01*
X487751Y442963D01*
X487740Y442932D01*
X487730Y442911D01*
Y442901D01*
X486781D01*
Y445087D01*
X493608D01*
Y444633D01*
D02*
G37*
G36*
X476159Y440044D02*
X474313D01*
Y442117D01*
X476159D01*
Y440044D01*
D02*
G37*
G36*
X485987Y444633D02*
X485884Y444602D01*
X485791Y444582D01*
X485719Y444540D01*
X485647Y444510D01*
X485606Y444479D01*
X485564Y444458D01*
X485544Y444448D01*
X485533Y444437D01*
X485420Y444324D01*
X485337Y444211D01*
X485306Y444159D01*
X485286Y444128D01*
X485265Y444097D01*
Y444087D01*
X485224Y443994D01*
X485183Y443881D01*
X485100Y443643D01*
X485059Y443530D01*
X485028Y443437D01*
X485018Y443375D01*
X485007Y443365D01*
Y443355D01*
X482739Y435672D01*
X481151D01*
X478273Y443334D01*
X478201Y443520D01*
X478139Y443685D01*
X478077Y443819D01*
X478026Y443922D01*
X477985Y444004D01*
X477954Y444066D01*
X477943Y444097D01*
X477933Y444107D01*
X477871Y444190D01*
X477820Y444262D01*
X477758Y444324D01*
X477706Y444375D01*
X477665Y444417D01*
X477634Y444448D01*
X477613Y444458D01*
X477603Y444468D01*
X477448Y444551D01*
X477304Y444602D01*
X477242Y444613D01*
X477191Y444623D01*
X477160Y444633D01*
X477149D01*
Y445087D01*
X480119D01*
Y444633D01*
X479985Y444623D01*
X479872Y444592D01*
X479779Y444561D01*
X479707Y444520D01*
X479645Y444489D01*
X479604Y444458D01*
X479583Y444437D01*
X479573Y444427D01*
X479511Y444355D01*
X479470Y444272D01*
X479439Y444190D01*
X479418Y444107D01*
X479408Y444025D01*
X479397Y443963D01*
Y443922D01*
Y443912D01*
X479408Y443716D01*
X479418Y443623D01*
X479428Y443540D01*
X479439Y443468D01*
X479449Y443416D01*
X479459Y443386D01*
Y443375D01*
X479511Y443190D01*
X479542Y443097D01*
X479562Y443014D01*
X479583Y442942D01*
X479604Y442891D01*
X479624Y442849D01*
Y442839D01*
X481315Y437920D01*
X482677Y442860D01*
X482718Y443025D01*
X482759Y443169D01*
X482790Y443282D01*
X482811Y443386D01*
X482831Y443458D01*
X482842Y443509D01*
X482852Y443540D01*
Y443550D01*
X482873Y443716D01*
X482883Y443850D01*
X482893Y443912D01*
Y443953D01*
Y443984D01*
Y443994D01*
X482883Y444097D01*
X482862Y444190D01*
X482842Y444262D01*
X482811Y444324D01*
X482780Y444375D01*
X482749Y444407D01*
X482739Y444427D01*
X482728Y444437D01*
X482656Y444489D01*
X482574Y444530D01*
X482398Y444592D01*
X482316Y444613D01*
X482254Y444623D01*
X482213Y444633D01*
X482192D01*
Y445087D01*
X485987D01*
Y444633D01*
D02*
G37*
G36*
X502920D02*
X502827Y444613D01*
X502745Y444582D01*
X502673Y444561D01*
X502611Y444530D01*
X502569Y444510D01*
X502538Y444499D01*
X502518Y444479D01*
X502508D01*
X502415Y444407D01*
X502342Y444334D01*
X502301Y444272D01*
X502291Y444262D01*
Y444252D01*
X502250Y444138D01*
X502219Y444025D01*
X502208Y443973D01*
X502198Y443942D01*
Y443912D01*
Y443901D01*
X502188Y443819D01*
Y443726D01*
X502178Y443550D01*
Y443468D01*
Y443406D01*
Y443365D01*
Y443355D01*
Y437435D01*
Y437322D01*
Y437208D01*
X502188Y437116D01*
Y437043D01*
Y436971D01*
X502198Y436930D01*
Y436899D01*
Y436889D01*
X502219Y436744D01*
X502250Y436631D01*
X502270Y436590D01*
X502281Y436559D01*
X502291Y436538D01*
Y436528D01*
X502353Y436435D01*
X502435Y436363D01*
X502497Y436322D01*
X502508Y436301D01*
X502518D01*
X502580Y436270D01*
X502642Y436249D01*
X502776Y436198D01*
X502827Y436188D01*
X502879Y436167D01*
X502910Y436157D01*
X502920D01*
Y435713D01*
X499311D01*
Y436157D01*
X499434Y436198D01*
X499548Y436239D01*
X499630Y436270D01*
X499702Y436311D01*
X499754Y436342D01*
X499785Y436363D01*
X499806Y436373D01*
X499816Y436383D01*
X499898Y436487D01*
X499960Y436600D01*
X499981Y436641D01*
X499991Y436683D01*
X500002Y436703D01*
Y436713D01*
X500022Y436806D01*
X500033Y436909D01*
X500043Y437157D01*
X500053Y437260D01*
Y437353D01*
Y437415D01*
Y437425D01*
Y437435D01*
Y439642D01*
X499517D01*
X499403Y439632D01*
X499311Y439622D01*
X499228Y439601D01*
X499166Y439591D01*
X499125Y439570D01*
X499104Y439560D01*
X499094D01*
X499022Y439518D01*
X498960Y439477D01*
X498847Y439384D01*
X498805Y439333D01*
X498774Y439291D01*
X498754Y439271D01*
X498744Y439261D01*
X498671Y439168D01*
X498599Y439054D01*
X498465Y438807D01*
X498403Y438693D01*
X498362Y438601D01*
X498331Y438539D01*
X498321Y438528D01*
Y438518D01*
X497784Y437342D01*
X497692Y437146D01*
X497599Y436961D01*
X497516Y436786D01*
X497434Y436631D01*
X497362Y436487D01*
X497279Y436353D01*
X497217Y436229D01*
X497145Y436126D01*
X497094Y436022D01*
X497042Y435940D01*
X496990Y435878D01*
X496959Y435816D01*
X496928Y435775D01*
X496908Y435744D01*
X496887Y435723D01*
Y435713D01*
X494237D01*
Y436157D01*
X494381Y436198D01*
X494505Y436249D01*
X494629Y436311D01*
X494722Y436373D01*
X494804Y436435D01*
X494866Y436487D01*
X494907Y436528D01*
X494918Y436538D01*
X495021Y436672D01*
X495134Y436817D01*
X495227Y436971D01*
X495309Y437126D01*
X495392Y437260D01*
X495443Y437373D01*
X495464Y437415D01*
X495485Y437446D01*
X495495Y437466D01*
Y437477D01*
X495928Y438415D01*
X496031Y438621D01*
X496134Y438797D01*
X496238Y438961D01*
X496330Y439096D01*
X496403Y439199D01*
X496475Y439281D01*
X496516Y439323D01*
X496526Y439343D01*
X496660Y439477D01*
X496794Y439591D01*
X496939Y439694D01*
X497073Y439776D01*
X497186Y439838D01*
X497289Y439890D01*
X497351Y439921D01*
X497362Y439931D01*
X497372D01*
Y440003D01*
X497135Y440106D01*
X496918Y440209D01*
X496733Y440312D01*
X496578Y440405D01*
X496454Y440488D01*
X496361Y440550D01*
X496310Y440591D01*
X496289Y440601D01*
X496145Y440725D01*
X496021Y440859D01*
X495908Y440993D01*
X495815Y441127D01*
X495743Y441241D01*
X495691Y441323D01*
X495660Y441385D01*
X495650Y441395D01*
Y441406D01*
X495567Y441591D01*
X495516Y441787D01*
X495474Y441983D01*
X495443Y442169D01*
X495423Y442323D01*
Y442396D01*
X495413Y442447D01*
Y442499D01*
Y442530D01*
Y442550D01*
Y442561D01*
X495423Y442746D01*
X495433Y442921D01*
X495454Y443076D01*
X495474Y443200D01*
X495505Y443313D01*
X495526Y443386D01*
X495536Y443437D01*
X495547Y443458D01*
X495598Y443602D01*
X495660Y443726D01*
X495722Y443850D01*
X495784Y443942D01*
X495846Y444025D01*
X495887Y444087D01*
X495918Y444128D01*
X495928Y444138D01*
X496021Y444241D01*
X496124Y444345D01*
X496227Y444427D01*
X496320Y444499D01*
X496413Y444551D01*
X496475Y444602D01*
X496516Y444623D01*
X496537Y444633D01*
X496702Y444716D01*
X496867Y444778D01*
X497032Y444840D01*
X497186Y444891D01*
X497320Y444922D01*
X497434Y444953D01*
X497475Y444963D01*
X497506Y444974D01*
X497527D01*
X497753Y445015D01*
X497980Y445036D01*
X498218Y445056D01*
X498434Y445077D01*
X498620D01*
X498702Y445087D01*
X502920D01*
Y444633D01*
D02*
G37*
G36*
X476159Y435713D02*
X474313D01*
Y437786D01*
X476159D01*
Y435713D01*
D02*
G37*
G36*
X466156Y445190D02*
X466352Y445180D01*
X466703Y445108D01*
X466868Y445066D01*
X467023Y445025D01*
X467167Y444974D01*
X467291Y444922D01*
X467414Y444860D01*
X467518Y444809D01*
X467600Y444767D01*
X467682Y444726D01*
X467734Y444685D01*
X467786Y444654D01*
X467806Y444644D01*
X467817Y444633D01*
X467961Y444520D01*
X468085Y444396D01*
X468322Y444138D01*
X468528Y443860D01*
X468693Y443592D01*
X468765Y443468D01*
X468827Y443344D01*
X468879Y443241D01*
X468920Y443148D01*
X468951Y443076D01*
X468972Y443025D01*
X468992Y442983D01*
Y442973D01*
X469064Y442767D01*
X469126Y442550D01*
X469219Y442096D01*
X469291Y441653D01*
X469312Y441437D01*
X469333Y441241D01*
X469353Y441045D01*
X469364Y440869D01*
X469374Y440715D01*
Y440581D01*
X469384Y440467D01*
Y440385D01*
Y440333D01*
Y440312D01*
Y440003D01*
X469364Y439714D01*
X469343Y439446D01*
X469322Y439178D01*
X469291Y438941D01*
X469260Y438714D01*
X469229Y438508D01*
X469188Y438322D01*
X469147Y438157D01*
X469116Y438013D01*
X469085Y437889D01*
X469054Y437786D01*
X469023Y437703D01*
X469013Y437641D01*
X468992Y437600D01*
Y437590D01*
X468910Y437404D01*
X468827Y437219D01*
X468745Y437064D01*
X468652Y436909D01*
X468559Y436775D01*
X468466Y436652D01*
X468373Y436538D01*
X468291Y436435D01*
X468209Y436353D01*
X468126Y436280D01*
X468054Y436218D01*
X467992Y436167D01*
X467951Y436126D01*
X467909Y436095D01*
X467889Y436084D01*
X467878Y436074D01*
X467734Y435992D01*
X467590Y435919D01*
X467291Y435806D01*
X466992Y435723D01*
X466713Y435672D01*
X466579Y435651D01*
X466466Y435631D01*
X466352Y435620D01*
X466259D01*
X466187Y435610D01*
X466084D01*
X465775Y435620D01*
X465476Y435662D01*
X465208Y435723D01*
X464960Y435806D01*
X464723Y435899D01*
X464506Y436002D01*
X464321Y436115D01*
X464145Y436229D01*
X463991Y436342D01*
X463857Y436456D01*
X463743Y436559D01*
X463650Y436652D01*
X463578Y436734D01*
X463527Y436796D01*
X463496Y436837D01*
X463485Y436847D01*
X463331Y437095D01*
X463197Y437363D01*
X463073Y437652D01*
X462970Y437951D01*
X462887Y438250D01*
X462815Y438559D01*
X462753Y438858D01*
X462712Y439157D01*
X462671Y439436D01*
X462650Y439694D01*
X462630Y439931D01*
X462609Y440127D01*
Y440292D01*
X462598Y440364D01*
Y440426D01*
Y440467D01*
Y440498D01*
Y440519D01*
Y440529D01*
X462609Y440962D01*
X462630Y441364D01*
X462671Y441736D01*
X462733Y442076D01*
X462794Y442396D01*
X462867Y442684D01*
X462939Y442942D01*
X463011Y443179D01*
X463093Y443386D01*
X463166Y443561D01*
X463238Y443705D01*
X463300Y443829D01*
X463351Y443922D01*
X463393Y443994D01*
X463424Y444035D01*
X463434Y444045D01*
X463599Y444252D01*
X463784Y444427D01*
X463980Y444582D01*
X464176Y444716D01*
X464393Y444829D01*
X464599Y444922D01*
X464805Y444994D01*
X465012Y445056D01*
X465197Y445108D01*
X465383Y445139D01*
X465537Y445170D01*
X465682Y445180D01*
X465795Y445190D01*
X465888Y445201D01*
X465960D01*
X466156Y445190D01*
D02*
G37*
G36*
X429054Y459170D02*
X429332Y459150D01*
X429600Y459109D01*
X429879Y459067D01*
X430147Y459006D01*
X430405Y458944D01*
X430663Y458882D01*
X430900Y458810D01*
X431116Y458737D01*
X431323Y458675D01*
X431498Y458614D01*
X431653Y458552D01*
X431776Y458511D01*
X431859Y458469D01*
X431921Y458449D01*
X431941Y458438D01*
Y456809D01*
X430704D01*
X430663Y457015D01*
X430611Y457211D01*
X430560Y457376D01*
X430508Y457510D01*
X430456Y457624D01*
X430415Y457706D01*
X430395Y457747D01*
X430384Y457768D01*
X430302Y457902D01*
X430209Y458005D01*
X430126Y458098D01*
X430044Y458170D01*
X429982Y458222D01*
X429930Y458253D01*
X429889Y458273D01*
X429879Y458284D01*
X429765Y458335D01*
X429662Y458366D01*
X429549Y458397D01*
X429456Y458407D01*
X429374Y458418D01*
X429312Y458428D01*
X429250D01*
X429044Y458407D01*
X428858Y458366D01*
X428703Y458304D01*
X428579Y458232D01*
X428476Y458160D01*
X428414Y458098D01*
X428363Y458057D01*
X428353Y458036D01*
X428250Y457882D01*
X428177Y457696D01*
X428115Y457510D01*
X428084Y457325D01*
X428064Y457149D01*
X428054Y457077D01*
X428043Y457015D01*
Y456964D01*
Y456922D01*
Y456902D01*
Y456892D01*
X428054Y456716D01*
X428074Y456551D01*
X428105Y456396D01*
X428136Y456252D01*
X428188Y456118D01*
X428239Y455994D01*
X428291Y455881D01*
X428353Y455788D01*
X428414Y455695D01*
X428466Y455623D01*
X428518Y455551D01*
X428569Y455499D01*
X428600Y455458D01*
X428631Y455427D01*
X428652Y455417D01*
X428662Y455406D01*
X428786Y455314D01*
X428920Y455242D01*
X429208Y455107D01*
X429508Y455004D01*
X429796Y454942D01*
X429941Y454911D01*
X430065Y454891D01*
X430178Y454881D01*
X430281Y454870D01*
X430364Y454860D01*
X430425Y454850D01*
X430477D01*
Y454066D01*
X429745D01*
X429559Y454045D01*
X429404Y454025D01*
X429250Y453994D01*
X429105Y453952D01*
X428982Y453911D01*
X428868Y453870D01*
X428765Y453829D01*
X428672Y453787D01*
X428590Y453746D01*
X428528Y453705D01*
X428466Y453664D01*
X428425Y453633D01*
X428394Y453612D01*
X428383Y453602D01*
X428373Y453591D01*
X428280Y453499D01*
X428198Y453396D01*
X428136Y453282D01*
X428074Y453169D01*
X427981Y452932D01*
X427920Y452694D01*
X427889Y452478D01*
X427868Y452385D01*
Y452303D01*
X427858Y452241D01*
Y452189D01*
Y452158D01*
Y452148D01*
Y451983D01*
X427878Y451828D01*
X427920Y451550D01*
X427992Y451312D01*
X428084Y451106D01*
X428198Y450931D01*
X428322Y450787D01*
X428456Y450663D01*
X428590Y450570D01*
X428724Y450498D01*
X428858Y450436D01*
X428982Y450395D01*
X429095Y450374D01*
X429188Y450353D01*
X429260Y450343D01*
X429322D01*
X429528Y450353D01*
X429724Y450395D01*
X429879Y450457D01*
X430023Y450518D01*
X430137Y450580D01*
X430209Y450642D01*
X430260Y450683D01*
X430281Y450694D01*
X430405Y450848D01*
X430518Y451024D01*
X430611Y451220D01*
X430694Y451405D01*
X430755Y451570D01*
X430776Y451642D01*
X430797Y451715D01*
X430817Y451766D01*
X430828Y451808D01*
X430838Y451828D01*
Y451838D01*
X432075D01*
Y450116D01*
X431859Y450023D01*
X431632Y449951D01*
X431415Y449879D01*
X431219Y449827D01*
X431044Y449776D01*
X430962Y449766D01*
X430900Y449745D01*
X430848Y449735D01*
X430807D01*
X430786Y449724D01*
X430776D01*
X430498Y449683D01*
X430219Y449652D01*
X429961Y449621D01*
X429724Y449611D01*
X429621Y449601D01*
X429528D01*
X429446Y449590D01*
X429240D01*
X428837Y449601D01*
X428641Y449621D01*
X428466Y449642D01*
X428301Y449673D01*
X428146Y449693D01*
X427992Y449724D01*
X427868Y449766D01*
X427744Y449797D01*
X427641Y449827D01*
X427548Y449848D01*
X427476Y449879D01*
X427414Y449900D01*
X427363Y449920D01*
X427342Y449931D01*
X427332D01*
X427053Y450075D01*
X426816Y450230D01*
X426610Y450395D01*
X426445Y450549D01*
X426311Y450683D01*
X426218Y450797D01*
X426187Y450838D01*
X426166Y450869D01*
X426146Y450890D01*
Y450900D01*
X426012Y451137D01*
X425919Y451385D01*
X425847Y451632D01*
X425805Y451849D01*
X425774Y452034D01*
X425764Y452117D01*
Y452189D01*
X425754Y452251D01*
Y452292D01*
Y452313D01*
Y452323D01*
X425764Y452560D01*
X425795Y452787D01*
X425847Y452983D01*
X425898Y453148D01*
X425960Y453282D01*
X426001Y453396D01*
X426022Y453427D01*
X426043Y453457D01*
X426053Y453468D01*
Y453478D01*
X426166Y453653D01*
X426300Y453808D01*
X426424Y453942D01*
X426548Y454056D01*
X426661Y454148D01*
X426754Y454210D01*
X426816Y454252D01*
X426826Y454262D01*
X426837D01*
X427022Y454365D01*
X427208Y454448D01*
X427394Y454520D01*
X427559Y454571D01*
X427703Y454613D01*
X427816Y454643D01*
X427858Y454654D01*
X427889Y454664D01*
X427920D01*
Y454726D01*
X427682Y454850D01*
X427466Y454963D01*
X427280Y455076D01*
X427125Y455169D01*
X426991Y455252D01*
X426899Y455324D01*
X426847Y455365D01*
X426826Y455376D01*
X426672Y455499D01*
X426548Y455633D01*
X426435Y455767D01*
X426342Y455891D01*
X426269Y455994D01*
X426218Y456077D01*
X426187Y456128D01*
X426177Y456149D01*
X426094Y456324D01*
X426043Y456500D01*
X426001Y456665D01*
X425970Y456830D01*
X425950Y456964D01*
X425939Y457077D01*
Y457118D01*
Y457149D01*
Y457160D01*
Y457170D01*
X425950Y457397D01*
X425991Y457613D01*
X426053Y457799D01*
X426115Y457954D01*
X426177Y458088D01*
X426239Y458181D01*
X426280Y458242D01*
X426290Y458263D01*
X426435Y458428D01*
X426589Y458562D01*
X426764Y458675D01*
X426919Y458779D01*
X427064Y458851D01*
X427187Y458902D01*
X427229Y458923D01*
X427259Y458933D01*
X427280Y458944D01*
X427290D01*
X427538Y459026D01*
X427796Y459078D01*
X428054Y459119D01*
X428280Y459150D01*
X428383Y459160D01*
X428487Y459170D01*
X428569D01*
X428641Y459181D01*
X428786D01*
X429054Y459170D01*
D02*
G37*
G36*
X417452D02*
X417731Y459150D01*
X417999Y459109D01*
X418277Y459067D01*
X418545Y459006D01*
X418803Y458944D01*
X419061Y458882D01*
X419298Y458810D01*
X419515Y458737D01*
X419721Y458675D01*
X419896Y458614D01*
X420051Y458552D01*
X420175Y458511D01*
X420257Y458469D01*
X420319Y458449D01*
X420340Y458438D01*
Y456809D01*
X419102D01*
X419061Y457015D01*
X419010Y457211D01*
X418958Y457376D01*
X418907Y457510D01*
X418855Y457624D01*
X418814Y457706D01*
X418793Y457747D01*
X418783Y457768D01*
X418700Y457902D01*
X418607Y458005D01*
X418525Y458098D01*
X418442Y458170D01*
X418381Y458222D01*
X418329Y458253D01*
X418288Y458273D01*
X418277Y458284D01*
X418164Y458335D01*
X418061Y458366D01*
X417947Y458397D01*
X417855Y458407D01*
X417772Y458418D01*
X417710Y458428D01*
X417648D01*
X417442Y458407D01*
X417257Y458366D01*
X417102Y458304D01*
X416978Y458232D01*
X416875Y458160D01*
X416813Y458098D01*
X416762Y458057D01*
X416751Y458036D01*
X416648Y457882D01*
X416576Y457696D01*
X416514Y457510D01*
X416483Y457325D01*
X416462Y457149D01*
X416452Y457077D01*
X416442Y457015D01*
Y456964D01*
Y456922D01*
Y456902D01*
Y456892D01*
X416452Y456716D01*
X416473Y456551D01*
X416504Y456396D01*
X416535Y456252D01*
X416586Y456118D01*
X416638Y455994D01*
X416689Y455881D01*
X416751Y455788D01*
X416813Y455695D01*
X416865Y455623D01*
X416916Y455551D01*
X416968Y455499D01*
X416999Y455458D01*
X417030Y455427D01*
X417050Y455417D01*
X417061Y455406D01*
X417184Y455314D01*
X417318Y455242D01*
X417607Y455107D01*
X417906Y455004D01*
X418195Y454942D01*
X418339Y454911D01*
X418463Y454891D01*
X418577Y454881D01*
X418680Y454870D01*
X418762Y454860D01*
X418824Y454850D01*
X418876D01*
Y454066D01*
X418143D01*
X417958Y454045D01*
X417803Y454025D01*
X417648Y453994D01*
X417504Y453952D01*
X417380Y453911D01*
X417267Y453870D01*
X417164Y453829D01*
X417071Y453787D01*
X416988Y453746D01*
X416926Y453705D01*
X416865Y453664D01*
X416823Y453633D01*
X416792Y453612D01*
X416782Y453602D01*
X416772Y453591D01*
X416679Y453499D01*
X416596Y453396D01*
X416535Y453282D01*
X416473Y453169D01*
X416380Y452932D01*
X416318Y452694D01*
X416287Y452478D01*
X416267Y452385D01*
Y452303D01*
X416256Y452241D01*
Y452189D01*
Y452158D01*
Y452148D01*
Y451983D01*
X416277Y451828D01*
X416318Y451550D01*
X416390Y451312D01*
X416483Y451106D01*
X416596Y450931D01*
X416720Y450787D01*
X416854Y450663D01*
X416988Y450570D01*
X417122Y450498D01*
X417257Y450436D01*
X417380Y450395D01*
X417494Y450374D01*
X417587Y450353D01*
X417659Y450343D01*
X417720D01*
X417927Y450353D01*
X418123Y450395D01*
X418277Y450457D01*
X418422Y450518D01*
X418535Y450580D01*
X418607Y450642D01*
X418659Y450683D01*
X418680Y450694D01*
X418803Y450848D01*
X418917Y451024D01*
X419010Y451220D01*
X419092Y451405D01*
X419154Y451570D01*
X419175Y451642D01*
X419195Y451715D01*
X419216Y451766D01*
X419226Y451808D01*
X419236Y451828D01*
Y451838D01*
X420474D01*
Y450116D01*
X420257Y450023D01*
X420031Y449951D01*
X419814Y449879D01*
X419618Y449827D01*
X419443Y449776D01*
X419360Y449766D01*
X419298Y449745D01*
X419247Y449735D01*
X419206D01*
X419185Y449724D01*
X419175D01*
X418896Y449683D01*
X418618Y449652D01*
X418360Y449621D01*
X418123Y449611D01*
X418020Y449601D01*
X417927D01*
X417844Y449590D01*
X417638D01*
X417236Y449601D01*
X417040Y449621D01*
X416865Y449642D01*
X416700Y449673D01*
X416545Y449693D01*
X416390Y449724D01*
X416267Y449766D01*
X416143Y449797D01*
X416040Y449827D01*
X415947Y449848D01*
X415875Y449879D01*
X415813Y449900D01*
X415761Y449920D01*
X415741Y449931D01*
X415730D01*
X415452Y450075D01*
X415215Y450230D01*
X415008Y450395D01*
X414843Y450549D01*
X414709Y450683D01*
X414617Y450797D01*
X414586Y450838D01*
X414565Y450869D01*
X414544Y450890D01*
Y450900D01*
X414410Y451137D01*
X414317Y451385D01*
X414245Y451632D01*
X414204Y451849D01*
X414173Y452034D01*
X414163Y452117D01*
Y452189D01*
X414152Y452251D01*
Y452292D01*
Y452313D01*
Y452323D01*
X414163Y452560D01*
X414194Y452787D01*
X414245Y452983D01*
X414297Y453148D01*
X414359Y453282D01*
X414400Y453396D01*
X414421Y453427D01*
X414441Y453457D01*
X414451Y453468D01*
Y453478D01*
X414565Y453653D01*
X414699Y453808D01*
X414823Y453942D01*
X414947Y454056D01*
X415060Y454148D01*
X415153Y454210D01*
X415215Y454252D01*
X415225Y454262D01*
X415235D01*
X415421Y454365D01*
X415606Y454448D01*
X415792Y454520D01*
X415957Y454571D01*
X416101Y454613D01*
X416215Y454643D01*
X416256Y454654D01*
X416287Y454664D01*
X416318D01*
Y454726D01*
X416081Y454850D01*
X415864Y454963D01*
X415679Y455076D01*
X415524Y455169D01*
X415390Y455252D01*
X415297Y455324D01*
X415246Y455365D01*
X415225Y455376D01*
X415070Y455499D01*
X414947Y455633D01*
X414833Y455767D01*
X414740Y455891D01*
X414668Y455994D01*
X414617Y456077D01*
X414586Y456128D01*
X414575Y456149D01*
X414493Y456324D01*
X414441Y456500D01*
X414400Y456665D01*
X414369Y456830D01*
X414348Y456964D01*
X414338Y457077D01*
Y457118D01*
Y457149D01*
Y457160D01*
Y457170D01*
X414348Y457397D01*
X414390Y457613D01*
X414451Y457799D01*
X414513Y457954D01*
X414575Y458088D01*
X414637Y458181D01*
X414678Y458242D01*
X414689Y458263D01*
X414833Y458428D01*
X414988Y458562D01*
X415163Y458675D01*
X415318Y458779D01*
X415462Y458851D01*
X415586Y458902D01*
X415627Y458923D01*
X415658Y458933D01*
X415679Y458944D01*
X415689D01*
X415937Y459026D01*
X416194Y459078D01*
X416452Y459119D01*
X416679Y459150D01*
X416782Y459160D01*
X416885Y459170D01*
X416968D01*
X417040Y459181D01*
X417184D01*
X417452Y459170D01*
D02*
G37*
G36*
X412564Y456654D02*
X411616D01*
X411554Y456892D01*
X411523Y456995D01*
X411492Y457098D01*
X411471Y457191D01*
X411451Y457252D01*
X411430Y457304D01*
Y457314D01*
X411378Y457438D01*
X411337Y457551D01*
X411286Y457644D01*
X411244Y457727D01*
X411203Y457789D01*
X411172Y457830D01*
X411162Y457861D01*
X411152Y457871D01*
X411090Y457943D01*
X411017Y458005D01*
X410894Y458098D01*
X410842Y458129D01*
X410801Y458150D01*
X410780Y458170D01*
X410770D01*
X410677Y458201D01*
X410574Y458222D01*
X410471Y458242D01*
X410368Y458253D01*
X410275Y458263D01*
X409574D01*
Y451416D01*
Y451302D01*
Y451189D01*
X409584Y451096D01*
Y451013D01*
Y450951D01*
X409594Y450900D01*
Y450869D01*
Y450859D01*
X409615Y450704D01*
X409636Y450642D01*
X409656Y450591D01*
X409666Y450549D01*
X409687Y450518D01*
X409697Y450498D01*
Y450488D01*
X409770Y450395D01*
X409852Y450322D01*
X409924Y450281D01*
X409945Y450261D01*
X409955D01*
X410017Y450240D01*
X410100Y450209D01*
X410244Y450168D01*
X410306Y450158D01*
X410358Y450147D01*
X410399Y450137D01*
X410409D01*
Y449693D01*
X406614D01*
Y450137D01*
X406769Y450168D01*
X406841Y450188D01*
X406893Y450199D01*
X406934Y450209D01*
X406965Y450219D01*
X406985Y450230D01*
X406996D01*
X407088Y450281D01*
X407161Y450322D01*
X407202Y450353D01*
X407223Y450364D01*
X407274Y450426D01*
X407315Y450488D01*
X407346Y450529D01*
X407357Y450549D01*
X407388Y450653D01*
X407408Y450756D01*
X407418Y450797D01*
X407429Y450828D01*
Y450848D01*
Y450859D01*
X407439Y450941D01*
Y451024D01*
X407449Y451209D01*
Y451292D01*
Y451354D01*
Y451395D01*
Y451416D01*
Y458263D01*
X406758D01*
X406676Y458253D01*
X406614D01*
X406562Y458242D01*
X406521D01*
X406501Y458232D01*
X406490D01*
X406367Y458201D01*
X406284Y458170D01*
X406222Y458150D01*
X406202Y458139D01*
X406119Y458088D01*
X406047Y458036D01*
X406006Y457995D01*
X405985Y457974D01*
X405913Y457892D01*
X405851Y457809D01*
X405810Y457747D01*
X405789Y457727D01*
Y457716D01*
X405727Y457593D01*
X405676Y457469D01*
X405655Y457417D01*
X405634Y457387D01*
X405624Y457355D01*
Y457345D01*
X405593Y457252D01*
X405552Y457149D01*
X405480Y456922D01*
X405459Y456819D01*
X405428Y456737D01*
X405418Y456675D01*
X405407Y456665D01*
Y456654D01*
X404469D01*
Y459067D01*
X412564D01*
Y456654D01*
D02*
G37*
G36*
X393146Y457026D02*
X392734Y456304D01*
X392486Y456469D01*
X392270Y456613D01*
X392094Y456716D01*
X391950Y456809D01*
X391836Y456871D01*
X391764Y456912D01*
X391713Y456933D01*
X391702Y456943D01*
X391589Y456995D01*
X391496Y457036D01*
X391414Y457067D01*
X391341Y457087D01*
X391290Y457098D01*
X391249Y457108D01*
X391156D01*
X391094Y457087D01*
X391001Y457046D01*
X390950Y457005D01*
X390929Y456995D01*
Y456984D01*
X390888Y456933D01*
X390867Y456871D01*
X390826Y456737D01*
Y456675D01*
X390816Y456623D01*
Y456582D01*
Y456572D01*
Y451601D01*
Y451436D01*
X390826Y451292D01*
X390836Y451178D01*
X390857Y451075D01*
X390867Y451003D01*
X390888Y450951D01*
X390898Y450921D01*
Y450910D01*
X390970Y450766D01*
X391053Y450663D01*
X391094Y450632D01*
X391125Y450601D01*
X391146Y450591D01*
X391156Y450580D01*
X391228Y450539D01*
X391300Y450508D01*
X391465Y450446D01*
X391537Y450436D01*
X391599Y450415D01*
X391641Y450405D01*
X391651D01*
X391713Y450395D01*
X391785Y450384D01*
X391950Y450364D01*
X392136Y450353D01*
X392311Y450333D01*
X392476Y450322D01*
X392610D01*
X392661Y450312D01*
X392734D01*
Y449693D01*
X386804D01*
Y450312D01*
X386990Y450322D01*
X387155D01*
X387309Y450333D01*
X387433Y450343D01*
X387526Y450353D01*
X387598D01*
X387639Y450364D01*
X387660D01*
X387773Y450384D01*
X387876Y450395D01*
X387969Y450415D01*
X388052Y450436D01*
X388114Y450457D01*
X388155Y450467D01*
X388186Y450477D01*
X388196D01*
X388330Y450539D01*
X388433Y450601D01*
X388495Y450653D01*
X388506Y450673D01*
X388516D01*
X388588Y450776D01*
X388640Y450890D01*
X388660Y450931D01*
X388671Y450972D01*
X388681Y450993D01*
Y451003D01*
X388691Y451086D01*
X388701Y451189D01*
X388712Y451385D01*
X388722Y451467D01*
Y451539D01*
Y451581D01*
Y451601D01*
Y457355D01*
Y457572D01*
Y457768D01*
Y457954D01*
X388712Y458129D01*
Y458294D01*
Y458449D01*
X388701Y458583D01*
Y458707D01*
Y458820D01*
X388691Y458913D01*
Y458995D01*
Y459057D01*
X388681Y459109D01*
Y459150D01*
Y459170D01*
Y459181D01*
X389557D01*
X393146Y457026D01*
D02*
G37*
G36*
X485432Y458614D02*
X485339Y458593D01*
X485256Y458562D01*
X485184Y458541D01*
X485122Y458511D01*
X485081Y458490D01*
X485050Y458480D01*
X485030Y458459D01*
X485019D01*
X484926Y458387D01*
X484854Y458315D01*
X484813Y458253D01*
X484803Y458242D01*
Y458232D01*
X484761Y458119D01*
X484730Y458005D01*
X484720Y457954D01*
X484710Y457923D01*
Y457892D01*
Y457882D01*
X484700Y457799D01*
Y457706D01*
X484689Y457531D01*
Y457448D01*
Y457387D01*
Y457345D01*
Y457335D01*
Y451416D01*
Y451302D01*
Y451189D01*
X484700Y451096D01*
Y451024D01*
Y450951D01*
X484710Y450910D01*
Y450879D01*
Y450869D01*
X484730Y450725D01*
X484761Y450611D01*
X484782Y450570D01*
X484792Y450539D01*
X484803Y450518D01*
Y450508D01*
X484865Y450415D01*
X484947Y450343D01*
X485009Y450302D01*
X485019Y450281D01*
X485030D01*
X485091Y450250D01*
X485153Y450230D01*
X485287Y450178D01*
X485339Y450168D01*
X485391Y450147D01*
X485421Y450137D01*
X485432D01*
Y449693D01*
X478667D01*
X478543Y452199D01*
X479482D01*
X479523Y452045D01*
X479564Y451911D01*
X479605Y451797D01*
X479636Y451694D01*
X479667Y451622D01*
X479688Y451560D01*
X479708Y451529D01*
Y451519D01*
X479781Y451354D01*
X479812Y451282D01*
X479842Y451230D01*
X479873Y451178D01*
X479884Y451147D01*
X479904Y451127D01*
Y451116D01*
X479977Y451003D01*
X480049Y450910D01*
X480100Y450848D01*
X480111Y450838D01*
X480121Y450828D01*
X480203Y450745D01*
X480286Y450683D01*
X480348Y450632D01*
X480358Y450622D01*
X480368D01*
X480471Y450580D01*
X480564Y450539D01*
X480606Y450529D01*
X480636D01*
X480657Y450518D01*
X480667D01*
X480802Y450498D01*
X480925Y450488D01*
X482565D01*
Y454159D01*
X481544D01*
X481441Y454148D01*
X481358Y454128D01*
X481286Y454118D01*
X481235Y454097D01*
X481204Y454076D01*
X481183Y454066D01*
X481173D01*
X481111Y454025D01*
X481059Y453983D01*
X480966Y453891D01*
X480936Y453839D01*
X480915Y453798D01*
X480894Y453777D01*
Y453767D01*
X480853Y453684D01*
X480812Y453591D01*
X480740Y453396D01*
X480709Y453303D01*
X480698Y453231D01*
X480678Y453189D01*
Y453169D01*
X479904D01*
Y455953D01*
X480678D01*
X480719Y455809D01*
X480750Y455685D01*
X480791Y455572D01*
X480822Y455489D01*
X480853Y455417D01*
X480874Y455376D01*
X480884Y455345D01*
X480894Y455334D01*
X480987Y455211D01*
X481080Y455118D01*
X481121Y455087D01*
X481152Y455066D01*
X481173Y455046D01*
X481183D01*
X481255Y455015D01*
X481327Y454994D01*
X481482Y454973D01*
X481554Y454963D01*
X482565D01*
Y458263D01*
X481059D01*
X480874Y458253D01*
X480719Y458242D01*
X480595Y458222D01*
X480492Y458201D01*
X480410Y458170D01*
X480358Y458150D01*
X480327Y458139D01*
X480317Y458129D01*
X480162Y458016D01*
X480100Y457954D01*
X480038Y457902D01*
X479997Y457850D01*
X479966Y457809D01*
X479945Y457778D01*
X479935Y457768D01*
X479873Y457665D01*
X479812Y457531D01*
X479750Y457387D01*
X479688Y457242D01*
X479636Y457098D01*
X479595Y456984D01*
X479574Y456943D01*
X479564Y456912D01*
X479554Y456892D01*
Y456881D01*
X478605D01*
Y459067D01*
X485432D01*
Y458614D01*
D02*
G37*
G36*
X463941D02*
X463807Y458572D01*
X463693Y458531D01*
X463600Y458500D01*
X463539Y458459D01*
X463487Y458428D01*
X463446Y458407D01*
X463435Y458397D01*
X463425Y458387D01*
X463343Y458284D01*
X463291Y458181D01*
X463270Y458139D01*
X463260Y458098D01*
X463250Y458077D01*
Y458067D01*
X463229Y457985D01*
X463219Y457871D01*
X463209Y457758D01*
Y457634D01*
X463198Y457531D01*
Y457438D01*
Y457376D01*
Y457366D01*
Y457355D01*
Y451405D01*
Y451292D01*
Y451178D01*
X463209Y451086D01*
Y451013D01*
Y450941D01*
X463219Y450900D01*
Y450869D01*
Y450859D01*
X463240Y450714D01*
X463270Y450611D01*
X463291Y450570D01*
X463301Y450539D01*
X463312Y450518D01*
Y450508D01*
X463373Y450415D01*
X463456Y450353D01*
X463518Y450302D01*
X463528Y450292D01*
X463539D01*
X463600Y450261D01*
X463662Y450230D01*
X463796Y450188D01*
X463848Y450168D01*
X463899Y450147D01*
X463930Y450137D01*
X463941D01*
Y449693D01*
X461342D01*
Y450137D01*
X461466Y450178D01*
X461569Y450209D01*
X461651Y450250D01*
X461724Y450281D01*
X461775Y450312D01*
X461806Y450333D01*
X461827Y450343D01*
X461837Y450353D01*
X461930Y450467D01*
X461992Y450570D01*
X462012Y450611D01*
X462023Y450653D01*
X462033Y450673D01*
Y450683D01*
X462053Y450776D01*
X462064Y450879D01*
X462074Y451116D01*
X462085Y451220D01*
Y451312D01*
Y451374D01*
Y451385D01*
Y451395D01*
Y454561D01*
Y454850D01*
Y455118D01*
X462095Y455386D01*
Y455633D01*
Y455871D01*
X462105Y456087D01*
Y456293D01*
X462115Y456479D01*
X462126Y456654D01*
Y456799D01*
X462136Y456933D01*
Y457046D01*
Y457129D01*
X462146Y457191D01*
Y457232D01*
Y457242D01*
X462023D01*
X461971Y457067D01*
X461920Y456902D01*
X461878Y456737D01*
X461827Y456603D01*
X461785Y456479D01*
X461754Y456386D01*
X461734Y456324D01*
X461724Y456314D01*
Y456304D01*
X459785Y450725D01*
X458578D01*
X456732Y455685D01*
X456640Y455922D01*
X456567Y456118D01*
X456506Y456283D01*
X456464Y456417D01*
X456423Y456510D01*
X456402Y456582D01*
X456382Y456623D01*
Y456634D01*
X456320Y456830D01*
X456289Y456922D01*
X456258Y457005D01*
X456237Y457067D01*
X456217Y457129D01*
X456206Y457160D01*
Y457170D01*
X456062D01*
Y457108D01*
X456072Y457036D01*
Y456871D01*
X456083Y456696D01*
X456093Y456520D01*
Y456355D01*
Y456283D01*
X456103Y456221D01*
Y456170D01*
Y456128D01*
Y456108D01*
Y456097D01*
X456114Y455829D01*
Y455572D01*
Y455355D01*
X456124Y455159D01*
Y455004D01*
Y454942D01*
Y454891D01*
Y454839D01*
Y454808D01*
Y454798D01*
Y454788D01*
Y451416D01*
Y451251D01*
Y451116D01*
X456134Y451003D01*
Y450910D01*
X456144Y450838D01*
Y450787D01*
X456155Y450756D01*
Y450745D01*
X456186Y450611D01*
X456217Y450518D01*
X456248Y450467D01*
X456258Y450446D01*
X456310Y450374D01*
X456371Y450322D01*
X456423Y450292D01*
X456433Y450281D01*
X456444D01*
X456495Y450261D01*
X456557Y450230D01*
X456691Y450188D01*
X456753Y450168D01*
X456805Y450147D01*
X456846Y450137D01*
X456856D01*
Y449693D01*
X453329D01*
Y450137D01*
X453463Y450178D01*
X453577Y450219D01*
X453670Y450250D01*
X453742Y450292D01*
X453793Y450322D01*
X453824Y450343D01*
X453845Y450353D01*
X453855Y450364D01*
X453938Y450477D01*
X453979Y450601D01*
X453999Y450653D01*
X454010Y450694D01*
X454020Y450725D01*
Y450735D01*
X454030Y450838D01*
X454041Y450941D01*
X454051Y451055D01*
Y451168D01*
X454061Y451261D01*
Y451333D01*
Y451385D01*
Y451405D01*
Y457355D01*
Y457531D01*
X454051Y457686D01*
X454041Y457809D01*
X454030Y457902D01*
Y457974D01*
X454020Y458026D01*
X454010Y458057D01*
Y458067D01*
X453958Y458201D01*
X453896Y458304D01*
X453845Y458366D01*
X453835Y458387D01*
X453824D01*
X453762Y458428D01*
X453690Y458480D01*
X453525Y458552D01*
X453453Y458572D01*
X453391Y458593D01*
X453340Y458614D01*
X453329D01*
Y459067D01*
X456557D01*
X458619Y453427D01*
X460517Y459067D01*
X463941D01*
Y458614D01*
D02*
G37*
G36*
X477223Y452715D02*
X473964D01*
Y454159D01*
X477223D01*
Y452715D01*
D02*
G37*
G36*
X436953D02*
X433694D01*
Y454159D01*
X436953D01*
Y452715D01*
D02*
G37*
G36*
X504190Y458614D02*
X504066Y458583D01*
X503953Y458541D01*
X503870Y458500D01*
X503798Y458469D01*
X503747Y458438D01*
X503716Y458407D01*
X503695Y458397D01*
X503685Y458387D01*
X503592Y458284D01*
X503540Y458181D01*
X503520Y458139D01*
X503509Y458098D01*
X503499Y458077D01*
Y458067D01*
X503478Y457985D01*
X503468Y457871D01*
X503458Y457758D01*
Y457634D01*
X503447Y457531D01*
Y457438D01*
Y457376D01*
Y457366D01*
Y457355D01*
Y451405D01*
Y451292D01*
Y451189D01*
X503458Y451096D01*
Y451013D01*
Y450951D01*
X503468Y450910D01*
Y450879D01*
Y450869D01*
X503489Y450725D01*
X503520Y450611D01*
X503540Y450570D01*
X503551Y450539D01*
X503561Y450518D01*
Y450508D01*
X503623Y450415D01*
X503705Y450353D01*
X503767Y450302D01*
X503778Y450292D01*
X503788D01*
X503850Y450261D01*
X503912Y450230D01*
X504046Y450188D01*
X504097Y450168D01*
X504149Y450147D01*
X504180Y450137D01*
X504190D01*
Y449693D01*
X501591D01*
Y450137D01*
X501715Y450178D01*
X501828Y450219D01*
X501911Y450250D01*
X501983Y450281D01*
X502035Y450312D01*
X502066Y450333D01*
X502086Y450353D01*
X502097D01*
X502179Y450457D01*
X502241Y450570D01*
X502262Y450611D01*
X502272Y450653D01*
X502282Y450673D01*
Y450683D01*
X502303Y450776D01*
X502313Y450879D01*
X502323Y451127D01*
X502334Y451230D01*
Y451323D01*
Y451385D01*
Y451395D01*
Y451405D01*
Y453623D01*
Y454231D01*
X502344Y454520D01*
Y454798D01*
Y455076D01*
X502354Y455324D01*
Y455572D01*
X502365Y455798D01*
X502375Y456005D01*
Y456180D01*
X502385Y456345D01*
Y456479D01*
Y456592D01*
X502396Y456675D01*
Y456716D01*
Y456737D01*
X502334D01*
X502272Y456613D01*
X502210Y456489D01*
X502066Y456211D01*
X501921Y455922D01*
X501767Y455654D01*
X501694Y455530D01*
X501632Y455406D01*
X501571Y455303D01*
X501519Y455211D01*
X501478Y455138D01*
X501447Y455087D01*
X501426Y455046D01*
X501416Y455035D01*
X498322Y449693D01*
X496579D01*
Y457345D01*
Y457500D01*
X496569Y457624D01*
Y457737D01*
X496559Y457830D01*
X496549Y457892D01*
Y457943D01*
X496538Y457974D01*
Y457985D01*
X496518Y458057D01*
X496497Y458129D01*
X496476Y458181D01*
X496456Y458222D01*
X496425Y458284D01*
X496414Y458304D01*
X496353Y458377D01*
X496280Y458428D01*
X496239Y458459D01*
X496218Y458469D01*
X496167Y458490D01*
X496115Y458521D01*
X495981Y458562D01*
X495930Y458583D01*
X495878Y458603D01*
X495847Y458614D01*
X495837D01*
Y459067D01*
X498436D01*
Y458614D01*
X498333Y458583D01*
X498250Y458552D01*
X498178Y458531D01*
X498126Y458511D01*
X498085Y458490D01*
X498054Y458469D01*
X498033Y458459D01*
X497951Y458407D01*
X497889Y458356D01*
X497848Y458315D01*
X497838Y458294D01*
X497786Y458201D01*
X497755Y458098D01*
X497745Y458057D01*
Y458016D01*
X497734Y457995D01*
Y457985D01*
X497724Y457902D01*
X497714Y457799D01*
X497693Y457593D01*
Y457500D01*
Y457417D01*
Y457366D01*
Y457355D01*
Y457345D01*
Y456067D01*
Y455706D01*
Y455355D01*
X497683Y455015D01*
Y454685D01*
X497673Y454375D01*
Y454076D01*
X497662Y453798D01*
X497652Y453540D01*
Y453313D01*
X497642Y453097D01*
Y452921D01*
X497631Y452766D01*
Y452643D01*
X497621Y452550D01*
Y452498D01*
Y452478D01*
X497734D01*
X497838Y452705D01*
X497951Y452932D01*
X498064Y453158D01*
X498168Y453354D01*
X498250Y453519D01*
X498291Y453591D01*
X498322Y453653D01*
X498343Y453705D01*
X498363Y453736D01*
X498384Y453756D01*
Y453767D01*
X498508Y454004D01*
X498632Y454221D01*
X498724Y454406D01*
X498817Y454561D01*
X498879Y454685D01*
X498931Y454767D01*
X498962Y454819D01*
X498972Y454839D01*
X501406Y459067D01*
X504190D01*
Y458614D01*
D02*
G37*
G36*
X452009D02*
X451916Y458593D01*
X451834Y458562D01*
X451762Y458541D01*
X451700Y458511D01*
X451659Y458490D01*
X451628Y458480D01*
X451607Y458459D01*
X451597D01*
X451504Y458387D01*
X451432Y458315D01*
X451390Y458253D01*
X451380Y458242D01*
Y458232D01*
X451339Y458119D01*
X451308Y458005D01*
X451298Y457954D01*
X451287Y457923D01*
Y457892D01*
Y457882D01*
X451277Y457799D01*
Y457706D01*
X451267Y457531D01*
Y457448D01*
Y457387D01*
Y457345D01*
Y457335D01*
Y451416D01*
Y451302D01*
Y451189D01*
X451277Y451096D01*
Y451024D01*
Y450951D01*
X451287Y450910D01*
Y450879D01*
Y450869D01*
X451308Y450725D01*
X451339Y450611D01*
X451360Y450570D01*
X451370Y450539D01*
X451380Y450518D01*
Y450508D01*
X451442Y450415D01*
X451525Y450353D01*
X451586Y450302D01*
X451597Y450292D01*
X451607D01*
X451669Y450261D01*
X451731Y450230D01*
X451865Y450188D01*
X451916Y450168D01*
X451968Y450147D01*
X451999Y450137D01*
X452009D01*
Y449693D01*
X445451D01*
X445306Y452467D01*
X446245D01*
X446306Y452189D01*
X446337Y452055D01*
X446379Y451941D01*
X446399Y451838D01*
X446430Y451756D01*
X446441Y451704D01*
X446451Y451684D01*
X446502Y451539D01*
X446554Y451405D01*
X446595Y451292D01*
X446647Y451199D01*
X446688Y451116D01*
X446719Y451065D01*
X446740Y451024D01*
X446750Y451013D01*
X446822Y450921D01*
X446894Y450848D01*
X446956Y450776D01*
X447028Y450725D01*
X447080Y450683D01*
X447132Y450653D01*
X447162Y450642D01*
X447173Y450632D01*
X447266Y450591D01*
X447369Y450560D01*
X447472Y450539D01*
X447575Y450529D01*
X447668Y450518D01*
X447740Y450508D01*
X449142D01*
Y457355D01*
Y457469D01*
Y457582D01*
X449132Y457675D01*
Y457758D01*
Y457820D01*
X449122Y457861D01*
Y457892D01*
Y457902D01*
X449091Y458046D01*
X449060Y458160D01*
X449039Y458201D01*
X449029Y458232D01*
X449019Y458242D01*
Y458253D01*
X448946Y458345D01*
X448874Y458407D01*
X448812Y458459D01*
X448802Y458469D01*
X448792D01*
X448668Y458531D01*
X448544Y458572D01*
X448482Y458593D01*
X448441Y458603D01*
X448410Y458614D01*
X448400D01*
Y459067D01*
X452009D01*
Y458614D01*
D02*
G37*
G36*
X494187Y451478D02*
X494249Y451302D01*
X494311Y451158D01*
X494373Y451024D01*
X494424Y450921D01*
X494465Y450838D01*
X494496Y450776D01*
X494517Y450735D01*
X494527Y450725D01*
X494589Y450632D01*
X494651Y450549D01*
X494703Y450477D01*
X494765Y450426D01*
X494806Y450374D01*
X494847Y450343D01*
X494868Y450322D01*
X494878Y450312D01*
X494950Y450261D01*
X495022Y450219D01*
X495167Y450168D01*
X495218Y450158D01*
X495270Y450147D01*
X495301Y450137D01*
X495311D01*
Y449693D01*
X492382D01*
Y450137D01*
X492506Y450158D01*
X492620Y450178D01*
X492712Y450219D01*
X492795Y450271D01*
X492867Y450322D01*
X492929Y450384D01*
X492980Y450457D01*
X493011Y450518D01*
X493063Y450642D01*
X493094Y450756D01*
X493104Y450797D01*
Y450828D01*
Y450848D01*
Y450859D01*
X493094Y451065D01*
X493083Y451158D01*
X493073Y451240D01*
X493063Y451312D01*
X493053Y451364D01*
X493042Y451395D01*
Y451405D01*
X492991Y451601D01*
X492960Y451684D01*
X492939Y451766D01*
X492908Y451838D01*
X492898Y451890D01*
X492877Y451931D01*
Y451941D01*
X492650Y452591D01*
X489722D01*
X489536Y451921D01*
X489495Y451777D01*
X489464Y451653D01*
X489433Y451539D01*
X489412Y451436D01*
X489402Y451364D01*
X489392Y451312D01*
X489381Y451271D01*
Y451261D01*
X489351Y451075D01*
X489340Y450993D01*
Y450931D01*
X489330Y450869D01*
Y450828D01*
Y450797D01*
Y450787D01*
X489340Y450683D01*
X489361Y450591D01*
X489381Y450518D01*
X489412Y450457D01*
X489454Y450405D01*
X489474Y450364D01*
X489495Y450343D01*
X489505Y450333D01*
X489577Y450281D01*
X489660Y450240D01*
X489825Y450178D01*
X489907Y450158D01*
X489969Y450147D01*
X490010Y450137D01*
X490031D01*
Y449693D01*
X486236D01*
Y450137D01*
X486339Y450168D01*
X486432Y450199D01*
X486504Y450230D01*
X486566Y450261D01*
X486618Y450292D01*
X486659Y450312D01*
X486679Y450322D01*
X486690Y450333D01*
X486803Y450446D01*
X486886Y450560D01*
X486917Y450611D01*
X486937Y450653D01*
X486958Y450673D01*
Y450683D01*
X486999Y450776D01*
X487040Y450890D01*
X487123Y451127D01*
X487164Y451240D01*
X487185Y451333D01*
X487206Y451395D01*
X487216Y451405D01*
Y451416D01*
X489484Y459119D01*
X491320D01*
X494187Y451478D01*
D02*
G37*
G36*
X472562Y458614D02*
X472469Y458593D01*
X472387Y458562D01*
X472314Y458541D01*
X472253Y458511D01*
X472211Y458490D01*
X472180Y458480D01*
X472160Y458459D01*
X472149D01*
X472057Y458387D01*
X471984Y458315D01*
X471943Y458253D01*
X471933Y458242D01*
Y458232D01*
X471892Y458119D01*
X471861Y458005D01*
X471850Y457954D01*
X471840Y457923D01*
Y457892D01*
Y457882D01*
X471830Y457799D01*
Y457706D01*
X471819Y457531D01*
Y457448D01*
Y457387D01*
Y457345D01*
Y457335D01*
Y451416D01*
Y451302D01*
Y451189D01*
X471830Y451096D01*
Y451024D01*
Y450951D01*
X471840Y450910D01*
Y450879D01*
Y450869D01*
X471861Y450725D01*
X471892Y450611D01*
X471912Y450570D01*
X471922Y450539D01*
X471933Y450518D01*
Y450508D01*
X471995Y450415D01*
X472077Y450343D01*
X472139Y450302D01*
X472149Y450281D01*
X472160D01*
X472222Y450250D01*
X472283Y450230D01*
X472417Y450178D01*
X472469Y450168D01*
X472521Y450147D01*
X472552Y450137D01*
X472562D01*
Y449693D01*
X468860D01*
Y450137D01*
X468973Y450158D01*
X469066Y450188D01*
X469138Y450209D01*
X469210Y450230D01*
X469262Y450250D01*
X469293Y450261D01*
X469314Y450271D01*
X469324D01*
X469417Y450333D01*
X469489Y450395D01*
X469530Y450436D01*
X469551Y450457D01*
X469602Y450549D01*
X469633Y450653D01*
X469644Y450694D01*
X469654Y450725D01*
X469664Y450745D01*
Y450756D01*
X469674Y450838D01*
X469685Y450941D01*
X469695Y451158D01*
Y451251D01*
Y451333D01*
Y451385D01*
Y451405D01*
Y453602D01*
X469520Y453591D01*
X469159D01*
X468983Y453581D01*
X468602D01*
X468189Y453591D01*
X467994Y453612D01*
X467808Y453633D01*
X467643Y453664D01*
X467488Y453684D01*
X467333Y453715D01*
X467199Y453756D01*
X467086Y453787D01*
X466983Y453818D01*
X466890Y453839D01*
X466808Y453870D01*
X466756Y453891D01*
X466704Y453911D01*
X466684Y453922D01*
X466674D01*
X466405Y454066D01*
X466168Y454231D01*
X465962Y454396D01*
X465797Y454561D01*
X465663Y454716D01*
X465570Y454829D01*
X465539Y454881D01*
X465518Y454911D01*
X465498Y454932D01*
Y454942D01*
X465364Y455211D01*
X465261Y455479D01*
X465188Y455747D01*
X465147Y455994D01*
X465127Y456108D01*
X465116Y456211D01*
X465106Y456304D01*
Y456376D01*
X465096Y456438D01*
Y456489D01*
Y456520D01*
Y456531D01*
X465106Y456768D01*
X465137Y456984D01*
X465178Y457191D01*
X465230Y457376D01*
X465292Y457551D01*
X465374Y457706D01*
X465446Y457850D01*
X465529Y457974D01*
X465611Y458088D01*
X465684Y458181D01*
X465756Y458263D01*
X465828Y458335D01*
X465879Y458387D01*
X465921Y458418D01*
X465952Y458438D01*
X465962Y458449D01*
X466137Y458562D01*
X466323Y458655D01*
X466519Y458737D01*
X466735Y458810D01*
X466952Y458871D01*
X467169Y458913D01*
X467581Y458995D01*
X467787Y459016D01*
X467962Y459036D01*
X468128Y459047D01*
X468272Y459057D01*
X468396Y459067D01*
X472562D01*
Y458614D01*
D02*
G37*
G36*
X423908Y449693D02*
X422062D01*
Y451766D01*
X423908D01*
Y449693D01*
D02*
G37*
G36*
X385195D02*
X383349D01*
Y451766D01*
X385195D01*
Y449693D01*
D02*
G37*
G36*
X441099Y459170D02*
X441439Y459129D01*
X441604Y459109D01*
X441759Y459088D01*
X441893Y459057D01*
X442027Y459026D01*
X442140Y458995D01*
X442243Y458975D01*
X442336Y458944D01*
X442408Y458923D01*
X442470Y458902D01*
X442511Y458882D01*
X442542Y458871D01*
X442553D01*
X442831Y458748D01*
X443079Y458603D01*
X443285Y458459D01*
X443460Y458315D01*
X443594Y458181D01*
X443687Y458077D01*
X443728Y458036D01*
X443749Y458005D01*
X443759Y457985D01*
X443770Y457974D01*
X443914Y457747D01*
X444017Y457500D01*
X444089Y457263D01*
X444141Y457036D01*
X444172Y456840D01*
X444182Y456757D01*
Y456685D01*
X444193Y456623D01*
Y456582D01*
Y456551D01*
Y456541D01*
X444182Y456355D01*
X444161Y456180D01*
X444141Y456025D01*
X444110Y455881D01*
X444079Y455767D01*
X444048Y455685D01*
X444038Y455633D01*
X444027Y455613D01*
X443955Y455458D01*
X443883Y455324D01*
X443801Y455190D01*
X443728Y455076D01*
X443656Y454984D01*
X443605Y454911D01*
X443563Y454870D01*
X443553Y454850D01*
X443429Y454726D01*
X443306Y454613D01*
X443182Y454499D01*
X443068Y454406D01*
X442965Y454334D01*
X442883Y454272D01*
X442831Y454231D01*
X442811Y454221D01*
X442481Y454014D01*
X442316Y453922D01*
X442161Y453839D01*
X442037Y453767D01*
X441934Y453715D01*
X441893Y453695D01*
X441862Y453674D01*
X441852Y453664D01*
X441841D01*
X441614Y453550D01*
X441418Y453437D01*
X441253Y453334D01*
X441119Y453241D01*
X441006Y453169D01*
X440923Y453107D01*
X440882Y453066D01*
X440862Y453055D01*
X440738Y452952D01*
X440635Y452849D01*
X440552Y452746D01*
X440480Y452653D01*
X440428Y452581D01*
X440387Y452519D01*
X440367Y452478D01*
X440356Y452467D01*
X440305Y452344D01*
X440263Y452220D01*
X440233Y452096D01*
X440212Y451983D01*
X440202Y451880D01*
X440191Y451797D01*
Y451746D01*
Y451725D01*
X440202Y451560D01*
X440222Y451416D01*
X440253Y451282D01*
X440284Y451178D01*
X440325Y451086D01*
X440356Y451013D01*
X440377Y450972D01*
X440387Y450962D01*
X440470Y450859D01*
X440552Y450766D01*
X440635Y450683D01*
X440728Y450622D01*
X440800Y450580D01*
X440862Y450549D01*
X440903Y450529D01*
X440913Y450518D01*
X441037Y450477D01*
X441161Y450446D01*
X441284Y450415D01*
X441398Y450405D01*
X441491Y450395D01*
X441563Y450384D01*
X441635D01*
X441913Y450405D01*
X442151Y450446D01*
X442357Y450508D01*
X442522Y450591D01*
X442656Y450663D01*
X442749Y450725D01*
X442800Y450766D01*
X442821Y450787D01*
X442965Y450951D01*
X443079Y451147D01*
X443182Y451354D01*
X443254Y451550D01*
X443316Y451725D01*
X443336Y451808D01*
X443357Y451869D01*
X443368Y451921D01*
X443378Y451973D01*
X443388Y451993D01*
Y452003D01*
X444337D01*
Y449889D01*
X444079Y449838D01*
X443831Y449786D01*
X443594Y449745D01*
X443378Y449714D01*
X443182Y449693D01*
X443110Y449683D01*
X443037Y449673D01*
X442986D01*
X442945Y449663D01*
X442914D01*
X442635Y449642D01*
X442367Y449621D01*
X442120Y449611D01*
X441893Y449601D01*
X441800D01*
X441707Y449590D01*
X441449D01*
X441088Y449601D01*
X440758Y449642D01*
X440470Y449693D01*
X440336Y449724D01*
X440212Y449755D01*
X440098Y449776D01*
X440006Y449807D01*
X439923Y449838D01*
X439851Y449858D01*
X439789Y449879D01*
X439748Y449900D01*
X439727Y449910D01*
X439717D01*
X439449Y450044D01*
X439222Y450199D01*
X439026Y450353D01*
X438861Y450508D01*
X438737Y450642D01*
X438644Y450756D01*
X438613Y450797D01*
X438593Y450828D01*
X438572Y450848D01*
Y450859D01*
X438438Y451106D01*
X438345Y451354D01*
X438273Y451601D01*
X438232Y451828D01*
X438211Y451941D01*
X438201Y452034D01*
X438191Y452117D01*
Y452189D01*
X438180Y452251D01*
Y452292D01*
Y452323D01*
Y452333D01*
X438191Y452571D01*
X438222Y452798D01*
X438252Y452993D01*
X438294Y453158D01*
X438345Y453293D01*
X438376Y453406D01*
X438397Y453437D01*
X438407Y453468D01*
X438418Y453478D01*
Y453488D01*
X438510Y453674D01*
X438624Y453849D01*
X438737Y454004D01*
X438861Y454138D01*
X438964Y454252D01*
X439047Y454344D01*
X439108Y454396D01*
X439119Y454417D01*
X439129D01*
X439325Y454571D01*
X439542Y454726D01*
X439758Y454870D01*
X439975Y455004D01*
X440171Y455118D01*
X440253Y455159D01*
X440315Y455200D01*
X440377Y455231D01*
X440418Y455252D01*
X440449Y455272D01*
X440459D01*
X440707Y455406D01*
X440913Y455520D01*
X441099Y455633D01*
X441253Y455726D01*
X441367Y455809D01*
X441449Y455860D01*
X441501Y455901D01*
X441521Y455912D01*
X441645Y456015D01*
X441759Y456118D01*
X441841Y456211D01*
X441913Y456304D01*
X441965Y456376D01*
X442006Y456427D01*
X442027Y456469D01*
X442037Y456479D01*
X442089Y456592D01*
X442130Y456716D01*
X442151Y456830D01*
X442171Y456933D01*
X442182Y457026D01*
X442192Y457108D01*
Y457149D01*
Y457170D01*
X442182Y457314D01*
X442161Y457438D01*
X442140Y457551D01*
X442099Y457644D01*
X442068Y457727D01*
X442048Y457778D01*
X442027Y457820D01*
X442016Y457830D01*
X441944Y457923D01*
X441862Y458005D01*
X441779Y458077D01*
X441697Y458129D01*
X441625Y458181D01*
X441573Y458212D01*
X441532Y458222D01*
X441521Y458232D01*
X441398Y458284D01*
X441284Y458315D01*
X441161Y458345D01*
X441058Y458356D01*
X440965Y458366D01*
X440882Y458377D01*
X440820D01*
X440655Y458366D01*
X440501Y458356D01*
X440377Y458325D01*
X440263Y458304D01*
X440181Y458273D01*
X440109Y458242D01*
X440067Y458232D01*
X440057Y458222D01*
X439954Y458160D01*
X439851Y458088D01*
X439768Y458016D01*
X439696Y457933D01*
X439634Y457871D01*
X439593Y457809D01*
X439562Y457768D01*
X439552Y457758D01*
X439480Y457634D01*
X439418Y457490D01*
X439356Y457345D01*
X439304Y457201D01*
X439273Y457077D01*
X439243Y456984D01*
X439232Y456943D01*
Y456912D01*
X439222Y456902D01*
Y456892D01*
X438273D01*
Y458882D01*
X438531Y458944D01*
X438778Y458985D01*
X438995Y459026D01*
X439181Y459057D01*
X439335Y459078D01*
X439397Y459088D01*
X439449Y459098D01*
X439500D01*
X439531Y459109D01*
X439552D01*
X439758Y459129D01*
X439964Y459150D01*
X440160Y459160D01*
X440346Y459170D01*
X440490Y459181D01*
X440717D01*
X441099Y459170D01*
D02*
G37*
G36*
X399323D02*
X399550Y459160D01*
X399777Y459129D01*
X399983Y459088D01*
X400189Y459047D01*
X400375Y458995D01*
X400550Y458944D01*
X400705Y458892D01*
X400849Y458840D01*
X400984Y458789D01*
X401087Y458737D01*
X401179Y458696D01*
X401262Y458655D01*
X401314Y458624D01*
X401344Y458614D01*
X401355Y458603D01*
X401530Y458490D01*
X401695Y458366D01*
X401850Y458242D01*
X401984Y458108D01*
X402118Y457964D01*
X402231Y457830D01*
X402345Y457696D01*
X402438Y457562D01*
X402530Y457438D01*
X402603Y457314D01*
X402664Y457211D01*
X402716Y457118D01*
X402757Y457046D01*
X402788Y456995D01*
X402799Y456953D01*
X402809Y456943D01*
X402891Y456737D01*
X402963Y456520D01*
X403087Y456067D01*
X403170Y455623D01*
X403211Y455417D01*
X403232Y455211D01*
X403252Y455025D01*
X403262Y454850D01*
X403283Y454695D01*
Y454561D01*
X403293Y454458D01*
Y454375D01*
Y454324D01*
Y454303D01*
X403283Y453870D01*
X403252Y453478D01*
X403201Y453097D01*
X403139Y452756D01*
X403056Y452436D01*
X402974Y452148D01*
X402881Y451880D01*
X402788Y451653D01*
X402695Y451446D01*
X402603Y451261D01*
X402520Y451106D01*
X402438Y450983D01*
X402376Y450890D01*
X402324Y450817D01*
X402293Y450776D01*
X402283Y450766D01*
X402077Y450560D01*
X401860Y450374D01*
X401623Y450219D01*
X401375Y450085D01*
X401128Y449972D01*
X400870Y449879D01*
X400623Y449797D01*
X400375Y449735D01*
X400148Y449693D01*
X399932Y449652D01*
X399736Y449632D01*
X399571Y449611D01*
X399437Y449601D01*
X399333Y449590D01*
X399241D01*
X398890Y449601D01*
X398560Y449632D01*
X398261Y449673D01*
X398127Y449704D01*
X398003Y449724D01*
X397890Y449745D01*
X397787Y449776D01*
X397694Y449797D01*
X397622Y449817D01*
X397570Y449838D01*
X397519Y449848D01*
X397498Y449858D01*
X397488D01*
X397209Y449972D01*
X396941Y450116D01*
X396714Y450261D01*
X396518Y450405D01*
X396353Y450529D01*
X396291Y450591D01*
X396240Y450642D01*
X396199Y450683D01*
X396157Y450704D01*
X396147Y450725D01*
X396137Y450735D01*
X395941Y450972D01*
X395765Y451230D01*
X395611Y451478D01*
X395487Y451725D01*
X395435Y451838D01*
X395394Y451931D01*
X395353Y452024D01*
X395322Y452107D01*
X395301Y452168D01*
X395281Y452220D01*
X395270Y452251D01*
Y452261D01*
X395167Y452622D01*
X395095Y453004D01*
X395033Y453385D01*
X395013Y453561D01*
X395002Y453736D01*
X394982Y453891D01*
Y454035D01*
X394971Y454169D01*
X394961Y454282D01*
Y454375D01*
Y454437D01*
Y454489D01*
Y454499D01*
X394971Y454922D01*
X395002Y455314D01*
X395054Y455685D01*
X395126Y456025D01*
X395198Y456335D01*
X395291Y456623D01*
X395384Y456881D01*
X395477Y457118D01*
X395569Y457325D01*
X395662Y457500D01*
X395755Y457655D01*
X395827Y457778D01*
X395900Y457871D01*
X395951Y457943D01*
X395982Y457985D01*
X395992Y457995D01*
X396199Y458201D01*
X396425Y458387D01*
X396663Y458541D01*
X396910Y458686D01*
X397168Y458799D01*
X397426Y458892D01*
X397673Y458975D01*
X397921Y459036D01*
X398158Y459078D01*
X398374Y459119D01*
X398570Y459150D01*
X398735Y459160D01*
X398880Y459170D01*
X398983Y459181D01*
X399076D01*
X399323Y459170D01*
D02*
G37*
G36*
X378750D02*
X379090Y459129D01*
X379389Y459078D01*
X379534Y459047D01*
X379658Y459026D01*
X379771Y458995D01*
X379874Y458964D01*
X379967Y458933D01*
X380039Y458913D01*
X380101Y458892D01*
X380142Y458871D01*
X380173Y458861D01*
X380183D01*
X380472Y458737D01*
X380720Y458593D01*
X380936Y458449D01*
X381111Y458304D01*
X381246Y458181D01*
X381349Y458077D01*
X381380Y458036D01*
X381411Y458005D01*
X381421Y457995D01*
X381431Y457985D01*
X381576Y457768D01*
X381679Y457551D01*
X381761Y457345D01*
X381813Y457149D01*
X381844Y456974D01*
X381854Y456902D01*
Y456850D01*
X381864Y456799D01*
Y456757D01*
Y456737D01*
Y456726D01*
X381844Y456448D01*
X381802Y456190D01*
X381720Y455953D01*
X381627Y455737D01*
X381514Y455541D01*
X381380Y455355D01*
X381246Y455200D01*
X381101Y455056D01*
X380967Y454932D01*
X380823Y454819D01*
X380699Y454726D01*
X380586Y454654D01*
X380493Y454602D01*
X380410Y454561D01*
X380369Y454540D01*
X380348Y454530D01*
X380328Y454448D01*
X380513Y454365D01*
X380678Y454272D01*
X380823Y454179D01*
X380947Y454097D01*
X381050Y454025D01*
X381132Y453973D01*
X381173Y453932D01*
X381194Y453922D01*
X381318Y453808D01*
X381431Y453684D01*
X381524Y453561D01*
X381606Y453437D01*
X381679Y453334D01*
X381720Y453251D01*
X381751Y453200D01*
X381761Y453189D01*
Y453179D01*
X381833Y453004D01*
X381885Y452828D01*
X381926Y452663D01*
X381947Y452498D01*
X381967Y452364D01*
X381978Y452251D01*
Y452210D01*
Y452189D01*
Y452168D01*
Y452158D01*
X381957Y451869D01*
X381916Y451601D01*
X381844Y451364D01*
X381761Y451158D01*
X381730Y451075D01*
X381689Y450993D01*
X381648Y450931D01*
X381617Y450869D01*
X381596Y450828D01*
X381576Y450797D01*
X381555Y450776D01*
Y450766D01*
X381380Y450560D01*
X381184Y450384D01*
X380977Y450230D01*
X380792Y450106D01*
X380616Y450003D01*
X380544Y449962D01*
X380472Y449931D01*
X380421Y449910D01*
X380379Y449889D01*
X380359Y449879D01*
X380348D01*
X380049Y449776D01*
X379740Y449704D01*
X379431Y449652D01*
X379152Y449621D01*
X379018Y449601D01*
X378905D01*
X378801Y449590D01*
X378709Y449580D01*
X378533D01*
X378142Y449590D01*
X377770Y449632D01*
X377605Y449652D01*
X377451Y449683D01*
X377306Y449714D01*
X377172Y449745D01*
X377048Y449776D01*
X376945Y449807D01*
X376852Y449838D01*
X376770Y449858D01*
X376708Y449879D01*
X376667Y449900D01*
X376636Y449910D01*
X376626D01*
X376337Y450044D01*
X376089Y450199D01*
X375873Y450353D01*
X375698Y450508D01*
X375553Y450642D01*
X375460Y450745D01*
X375419Y450787D01*
X375398Y450817D01*
X375378Y450838D01*
Y450848D01*
X375233Y451086D01*
X375130Y451323D01*
X375048Y451560D01*
X374996Y451787D01*
X374965Y451973D01*
X374955Y452055D01*
Y452127D01*
X374945Y452179D01*
Y452230D01*
Y452251D01*
Y452261D01*
X374965Y452560D01*
X375007Y452818D01*
X375079Y453055D01*
X375151Y453261D01*
X375192Y453354D01*
X375223Y453427D01*
X375264Y453499D01*
X375295Y453550D01*
X375316Y453591D01*
X375337Y453623D01*
X375357Y453643D01*
Y453653D01*
X375522Y453860D01*
X375718Y454045D01*
X375924Y454200D01*
X376110Y454324D01*
X376285Y454427D01*
X376368Y454458D01*
X376430Y454489D01*
X376492Y454520D01*
X376533Y454540D01*
X376553Y454551D01*
X376564D01*
X376574Y454643D01*
X376296Y454777D01*
X376058Y454932D01*
X375863Y455076D01*
X375698Y455221D01*
X375574Y455345D01*
X375481Y455448D01*
X375450Y455489D01*
X375429Y455520D01*
X375409Y455530D01*
Y455541D01*
X375275Y455757D01*
X375182Y455984D01*
X375110Y456201D01*
X375068Y456396D01*
X375037Y456572D01*
X375027Y456654D01*
Y456716D01*
X375017Y456768D01*
Y456809D01*
Y456830D01*
Y456840D01*
X375027Y457046D01*
X375058Y457232D01*
X375099Y457417D01*
X375151Y457582D01*
X375213Y457737D01*
X375285Y457871D01*
X375368Y458005D01*
X375440Y458119D01*
X375522Y458222D01*
X375605Y458315D01*
X375677Y458387D01*
X375739Y458449D01*
X375790Y458500D01*
X375832Y458531D01*
X375863Y458552D01*
X375873Y458562D01*
X376038Y458675D01*
X376223Y458768D01*
X376419Y458851D01*
X376626Y458923D01*
X376832Y458985D01*
X377038Y459026D01*
X377451Y459109D01*
X377636Y459129D01*
X377812Y459150D01*
X377976Y459160D01*
X378111Y459170D01*
X378224Y459181D01*
X378389D01*
X378750Y459170D01*
D02*
G37*
%LPC*%
G36*
X499847Y444283D02*
X499115D01*
X498960Y444262D01*
X498702Y444211D01*
X498475Y444138D01*
X498290Y444056D01*
X498156Y443963D01*
X498052Y443891D01*
X497991Y443839D01*
X497970Y443829D01*
Y443819D01*
X497887Y443726D01*
X497826Y443623D01*
X497712Y443406D01*
X497630Y443169D01*
X497578Y442942D01*
X497547Y442736D01*
X497537Y442653D01*
Y442571D01*
X497527Y442509D01*
Y442457D01*
Y442426D01*
Y442416D01*
Y442262D01*
X497537Y442117D01*
X497547Y441983D01*
X497568Y441870D01*
X497578Y441767D01*
X497599Y441694D01*
X497609Y441653D01*
Y441632D01*
X497640Y441498D01*
X497681Y441385D01*
X497733Y441272D01*
X497784Y441179D01*
X497826Y441106D01*
X497867Y441055D01*
X497887Y441014D01*
X497898Y441003D01*
X497980Y440911D01*
X498073Y440828D01*
X498166Y440756D01*
X498259Y440704D01*
X498341Y440653D01*
X498403Y440622D01*
X498444Y440601D01*
X498465Y440591D01*
X498609Y440539D01*
X498754Y440508D01*
X498909Y440477D01*
X499053Y440467D01*
X499177Y440457D01*
X499280Y440447D01*
X500053D01*
Y444272D01*
X499971D01*
X499847Y444283D01*
D02*
G37*
G36*
X466063Y444427D02*
X466002D01*
X465888Y444417D01*
X465785Y444396D01*
X465692Y444365D01*
X465610Y444334D01*
X465548Y444293D01*
X465496Y444262D01*
X465465Y444241D01*
X465455Y444231D01*
X465373Y444149D01*
X465290Y444056D01*
X465228Y443953D01*
X465166Y443839D01*
X465115Y443746D01*
X465084Y443664D01*
X465063Y443612D01*
X465053Y443602D01*
Y443592D01*
X464991Y443406D01*
X464939Y443200D01*
X464888Y442983D01*
X464857Y442777D01*
X464826Y442581D01*
X464816Y442499D01*
X464805Y442437D01*
X464795Y442375D01*
X464785Y442334D01*
Y442303D01*
Y442292D01*
X464754Y441962D01*
X464733Y441622D01*
X464713Y441272D01*
X464702Y440952D01*
Y440797D01*
X464692Y440663D01*
Y440539D01*
Y440436D01*
Y440354D01*
Y440281D01*
Y440240D01*
Y440230D01*
Y439931D01*
X464702Y439652D01*
X464713Y439395D01*
Y439178D01*
X464723Y439075D01*
Y438993D01*
X464733Y438920D01*
Y438848D01*
X464743Y438807D01*
Y438766D01*
Y438745D01*
Y438735D01*
X464764Y438498D01*
X464785Y438281D01*
X464805Y438085D01*
X464836Y437920D01*
X464857Y437786D01*
X464878Y437693D01*
X464888Y437631D01*
X464898Y437621D01*
Y437611D01*
X464939Y437456D01*
X464991Y437312D01*
X465032Y437188D01*
X465074Y437085D01*
X465115Y437002D01*
X465135Y436940D01*
X465156Y436899D01*
X465166Y436889D01*
X465228Y436796D01*
X465290Y436713D01*
X465342Y436641D01*
X465404Y436590D01*
X465445Y436548D01*
X465486Y436507D01*
X465507Y436497D01*
X465517Y436487D01*
X465589Y436445D01*
X465672Y436414D01*
X465816Y436383D01*
X465878Y436373D01*
X465929Y436363D01*
X465971D01*
X466146Y436383D01*
X466301Y436425D01*
X466424Y436497D01*
X466538Y436579D01*
X466631Y436652D01*
X466693Y436724D01*
X466734Y436765D01*
X466744Y436786D01*
X466796Y436868D01*
X466847Y436961D01*
X466930Y437167D01*
X467002Y437394D01*
X467064Y437600D01*
X467105Y437796D01*
X467126Y437889D01*
X467136Y437961D01*
X467157Y438023D01*
Y438064D01*
X467167Y438095D01*
Y438106D01*
X467188Y438281D01*
X467208Y438466D01*
X467239Y438858D01*
X467270Y439261D01*
X467280Y439456D01*
Y439642D01*
X467291Y439818D01*
Y439982D01*
X467301Y440137D01*
Y440261D01*
Y440364D01*
Y440447D01*
Y440488D01*
Y440508D01*
Y440869D01*
X467291Y441199D01*
X467280Y441488D01*
Y441622D01*
X467270Y441746D01*
X467260Y441849D01*
Y441952D01*
X467249Y442035D01*
Y442096D01*
Y442158D01*
X467239Y442200D01*
Y442220D01*
Y442231D01*
X467208Y442499D01*
X467177Y442736D01*
X467136Y442942D01*
X467105Y443128D01*
X467074Y443262D01*
X467043Y443375D01*
X467033Y443406D01*
Y443437D01*
X467023Y443447D01*
Y443458D01*
X466961Y443633D01*
X466899Y443777D01*
X466827Y443912D01*
X466765Y444015D01*
X466703Y444087D01*
X466662Y444149D01*
X466631Y444180D01*
X466620Y444190D01*
X466517Y444272D01*
X466414Y444324D01*
X466311Y444365D01*
X466218Y444396D01*
X466125Y444417D01*
X466063Y444427D01*
D02*
G37*
G36*
X491021Y457273D02*
X489918Y453396D01*
X492393D01*
X491021Y457273D01*
D02*
G37*
G36*
X469468Y458263D02*
X468952D01*
X468736Y458253D01*
X468550Y458232D01*
X468385Y458212D01*
X468241Y458181D01*
X468128Y458139D01*
X468045Y458119D01*
X468004Y458098D01*
X467983Y458088D01*
X467849Y458016D01*
X467736Y457923D01*
X467632Y457820D01*
X467550Y457727D01*
X467488Y457634D01*
X467447Y457562D01*
X467416Y457510D01*
X467406Y457490D01*
X467344Y457314D01*
X467292Y457129D01*
X467261Y456943D01*
X467230Y456757D01*
X467220Y456592D01*
Y456531D01*
X467210Y456469D01*
Y456417D01*
Y456376D01*
Y456355D01*
Y456345D01*
X467220Y456087D01*
X467241Y455860D01*
X467272Y455664D01*
X467303Y455499D01*
X467344Y455376D01*
X467375Y455283D01*
X467395Y455221D01*
X467406Y455200D01*
X467488Y455056D01*
X467581Y454922D01*
X467684Y454819D01*
X467787Y454736D01*
X467870Y454664D01*
X467942Y454623D01*
X467994Y454592D01*
X468014Y454581D01*
X468179Y454520D01*
X468354Y454468D01*
X468530Y454437D01*
X468705Y454406D01*
X468860Y454396D01*
X468922D01*
X468983Y454386D01*
X469695D01*
Y458253D01*
X469582D01*
X469468Y458263D01*
D02*
G37*
G36*
X399179Y458377D02*
X399014D01*
X398890Y458356D01*
X398674Y458304D01*
X398488Y458222D01*
X398323Y458139D01*
X398199Y458057D01*
X398106Y457974D01*
X398045Y457923D01*
X398024Y457912D01*
Y457902D01*
X397941Y457809D01*
X397869Y457706D01*
X397735Y457490D01*
X397632Y457263D01*
X397539Y457036D01*
X397467Y456830D01*
X397436Y456737D01*
X397415Y456665D01*
X397395Y456603D01*
X397384Y456551D01*
X397374Y456520D01*
Y456510D01*
X397302Y456149D01*
X397250Y455757D01*
X397209Y455376D01*
X397199Y455190D01*
X397188Y455015D01*
X397178Y454850D01*
X397168Y454705D01*
Y454561D01*
X397158Y454448D01*
Y454355D01*
Y454282D01*
Y454241D01*
Y454221D01*
Y453911D01*
X397178Y453623D01*
X397188Y453365D01*
X397209Y453128D01*
X397220Y453035D01*
X397230Y452942D01*
X397240Y452859D01*
Y452798D01*
X397250Y452746D01*
X397261Y452705D01*
Y452684D01*
Y452674D01*
X397302Y452416D01*
X397354Y452189D01*
X397405Y451983D01*
X397457Y451808D01*
X397508Y451653D01*
X397550Y451550D01*
X397570Y451508D01*
X397580Y451478D01*
X397591Y451467D01*
Y451457D01*
X397683Y451282D01*
X397776Y451116D01*
X397879Y450983D01*
X397972Y450869D01*
X398055Y450776D01*
X398127Y450714D01*
X398168Y450673D01*
X398189Y450663D01*
X398333Y450570D01*
X398488Y450498D01*
X398632Y450457D01*
X398777Y450415D01*
X398900Y450395D01*
X398993Y450384D01*
X399086D01*
X399272Y450395D01*
X399447Y450426D01*
X399602Y450477D01*
X399756Y450539D01*
X399890Y450622D01*
X400014Y450704D01*
X400128Y450797D01*
X400231Y450890D01*
X400323Y450983D01*
X400396Y451075D01*
X400468Y451158D01*
X400519Y451240D01*
X400561Y451302D01*
X400592Y451354D01*
X400602Y451385D01*
X400612Y451395D01*
X400695Y451601D01*
X400777Y451818D01*
X400839Y452055D01*
X400901Y452303D01*
X400984Y452818D01*
X401014Y453076D01*
X401045Y453323D01*
X401066Y453561D01*
X401076Y453777D01*
X401097Y453973D01*
Y454148D01*
X401107Y454293D01*
Y454396D01*
Y454437D01*
Y454468D01*
Y454478D01*
Y454489D01*
X401097Y454850D01*
X401087Y455180D01*
X401066Y455499D01*
X401035Y455778D01*
X400994Y456046D01*
X400953Y456283D01*
X400911Y456500D01*
X400860Y456696D01*
X400818Y456871D01*
X400777Y457015D01*
X400736Y457139D01*
X400695Y457242D01*
X400664Y457314D01*
X400643Y457376D01*
X400623Y457407D01*
Y457417D01*
X400530Y457582D01*
X400416Y457737D01*
X400303Y457861D01*
X400189Y457974D01*
X400066Y458067D01*
X399942Y458139D01*
X399818Y458201D01*
X399695Y458253D01*
X399581Y458294D01*
X399478Y458325D01*
X399385Y458345D01*
X399303Y458366D01*
X399230D01*
X399179Y458377D01*
D02*
G37*
G36*
X378492Y458407D02*
X378307D01*
X378193Y458387D01*
X377997Y458335D01*
X377822Y458263D01*
X377677Y458181D01*
X377574Y458098D01*
X377492Y458026D01*
X377451Y457974D01*
X377430Y457964D01*
Y457954D01*
X377317Y457768D01*
X377224Y457562D01*
X377162Y457345D01*
X377121Y457139D01*
X377100Y456953D01*
X377090Y456871D01*
X377079Y456799D01*
Y456737D01*
Y456696D01*
Y456665D01*
Y456654D01*
X377090Y456366D01*
X377131Y456108D01*
X377183Y455891D01*
X377244Y455706D01*
X377317Y455561D01*
X377368Y455458D01*
X377389Y455427D01*
X377409Y455396D01*
X377420Y455386D01*
Y455376D01*
X377481Y455293D01*
X377554Y455231D01*
X377708Y455118D01*
X377873Y455035D01*
X378038Y454984D01*
X378183Y454942D01*
X378296Y454932D01*
X378348Y454922D01*
X378410D01*
X378533Y454932D01*
X378647Y454942D01*
X378863Y454994D01*
X379039Y455076D01*
X379183Y455159D01*
X379296Y455242D01*
X379379Y455324D01*
X379431Y455376D01*
X379451Y455396D01*
X379565Y455592D01*
X379658Y455819D01*
X379719Y456046D01*
X379761Y456273D01*
X379781Y456469D01*
X379791Y456551D01*
Y456634D01*
X379802Y456696D01*
Y456737D01*
Y456768D01*
Y456778D01*
X379791Y457057D01*
X379750Y457304D01*
X379699Y457520D01*
X379627Y457686D01*
X379565Y457820D01*
X379513Y457923D01*
X379472Y457974D01*
X379462Y457995D01*
X379317Y458129D01*
X379152Y458232D01*
X378977Y458304D01*
X378812Y458356D01*
X378667Y458387D01*
X378544Y458397D01*
X378492Y458407D01*
D02*
G37*
G36*
X378544Y454179D02*
X378461D01*
X378307Y454169D01*
X378162Y454138D01*
X378028Y454097D01*
X377925Y454056D01*
X377832Y454014D01*
X377760Y453973D01*
X377719Y453942D01*
X377708Y453932D01*
X377595Y453839D01*
X377492Y453726D01*
X377409Y453612D01*
X377337Y453499D01*
X377286Y453406D01*
X377244Y453323D01*
X377224Y453272D01*
X377213Y453261D01*
Y453251D01*
X377151Y453076D01*
X377110Y452901D01*
X377079Y452725D01*
X377059Y452560D01*
X377048Y452416D01*
X377038Y452303D01*
Y452261D01*
Y452230D01*
Y452210D01*
Y452199D01*
X377048Y451983D01*
X377069Y451797D01*
X377090Y451622D01*
X377121Y451467D01*
X377162Y451343D01*
X377183Y451251D01*
X377203Y451199D01*
X377213Y451178D01*
X377286Y451034D01*
X377358Y450900D01*
X377440Y450797D01*
X377513Y450704D01*
X377585Y450642D01*
X377636Y450591D01*
X377677Y450560D01*
X377688Y450549D01*
X377812Y450477D01*
X377935Y450426D01*
X378069Y450395D01*
X378183Y450374D01*
X378286Y450353D01*
X378379Y450343D01*
X378451D01*
X378585Y450353D01*
X378698Y450364D01*
X378915Y450426D01*
X379101Y450498D01*
X379255Y450591D01*
X379369Y450683D01*
X379451Y450766D01*
X379503Y450817D01*
X379523Y450828D01*
Y450838D01*
X379585Y450941D01*
X379647Y451044D01*
X379730Y451282D01*
X379791Y451529D01*
X379843Y451766D01*
X379864Y451983D01*
X379874Y452076D01*
Y452158D01*
X379884Y452230D01*
Y452282D01*
Y452313D01*
Y452323D01*
X379874Y452519D01*
X379864Y452694D01*
X379843Y452859D01*
X379812Y453004D01*
X379791Y453117D01*
X379771Y453200D01*
X379761Y453251D01*
X379750Y453272D01*
X379688Y453416D01*
X379616Y453550D01*
X379544Y453664D01*
X379472Y453756D01*
X379400Y453829D01*
X379348Y453891D01*
X379307Y453922D01*
X379296Y453932D01*
X379173Y454014D01*
X379028Y454076D01*
X378894Y454118D01*
X378760Y454148D01*
X378637Y454169D01*
X378544Y454179D01*
D02*
G37*
%LPD*%
M02*
