G04*
G04 #@! TF.GenerationSoftware,Altium Limited,Altium Designer,23.3.1 (30)*
G04*
G04 Layer_Physical_Order=1*
G04 Layer_Color=255*
%FSLAX44Y44*%
%MOMM*%
G71*
G04*
G04 #@! TF.SameCoordinates,7D95EF5C-A674-4E58-8619-D26F187C42BB*
G04*
G04*
G04 #@! TF.FilePolarity,Positive*
G04*
G01*
G75*
%ADD14C,0.6350*%
%ADD15C,0.2540*%
%ADD17R,0.9500X0.7500*%
%ADD18R,2.1500X1.0000*%
%ADD19R,2.1500X3.2500*%
%ADD20R,0.6350X1.2700*%
%ADD21R,0.7500X0.9500*%
G04:AMPARAMS|DCode=22|XSize=0.4mm|YSize=1.2mm|CornerRadius=0.05mm|HoleSize=0mm|Usage=FLASHONLY|Rotation=270.000|XOffset=0mm|YOffset=0mm|HoleType=Round|Shape=RoundedRectangle|*
%AMROUNDEDRECTD22*
21,1,0.4000,1.1000,0,0,270.0*
21,1,0.3000,1.2000,0,0,270.0*
1,1,0.1000,-0.5500,-0.1500*
1,1,0.1000,-0.5500,0.1500*
1,1,0.1000,0.5500,0.1500*
1,1,0.1000,0.5500,-0.1500*
%
%ADD22ROUNDEDRECTD22*%
%ADD37C,0.3048*%
%ADD38R,1.5000X1.5000*%
%ADD39C,1.5000*%
%ADD40R,1.6510X1.6510*%
%ADD41C,1.6510*%
%ADD42R,1.5000X1.5000*%
%ADD43C,1.7272*%
%ADD44R,1.6764X1.6764*%
%ADD45C,1.2700*%
G36*
X480665Y459643D02*
X480179Y458470D01*
X478807D01*
Y450850D01*
X484522D01*
Y448310D01*
X478807D01*
Y440690D01*
X481838D01*
Y437501D01*
X465450Y421113D01*
X464180Y421639D01*
Y426720D01*
X452160D01*
Y409200D01*
X459357D01*
X459843Y408027D01*
X455676Y403860D01*
X431800D01*
X423164Y395224D01*
Y342900D01*
X407416D01*
X405638Y344678D01*
Y394970D01*
X410972Y400304D01*
Y419100D01*
X407670Y422402D01*
X405680D01*
Y426720D01*
X392390D01*
Y429260D01*
X405680D01*
Y435102D01*
X408940D01*
Y460756D01*
X410365Y462181D01*
X478127D01*
X480665Y459643D01*
D02*
G37*
%LPC*%
G36*
X464180Y446780D02*
X452160D01*
Y429260D01*
X464180D01*
Y446780D01*
D02*
G37*
G36*
X449620D02*
X437600D01*
Y429260D01*
X449620D01*
Y446780D01*
D02*
G37*
G36*
Y426720D02*
X437600D01*
Y409200D01*
X449620D01*
Y426720D01*
D02*
G37*
%LPD*%
D14*
X448945Y397510D02*
X458978D01*
X438912D02*
X448945D01*
X360662Y455818D02*
X374506D01*
X374510Y455815D01*
X360659Y455821D02*
X360662Y455818D01*
X328010Y307340D02*
X343520D01*
X327660D02*
X328010D01*
X343520Y290830D02*
Y291830D01*
X328010Y307340D02*
X343520Y291830D01*
X337725Y440273D02*
X341793D01*
X352552Y429514D01*
Y429514D02*
X362116D01*
X337150Y440848D02*
X337725Y440273D01*
X366961Y441019D02*
X378165Y429815D01*
X362234Y441246D02*
X366961Y441019D01*
X361038Y440983D02*
X362234Y441246D01*
X378165Y429815D02*
X390565D01*
X266979Y448553D02*
X312818D01*
X322503Y455930D02*
X323044Y455389D01*
X320522Y440848D02*
X337150D01*
X312818Y448553D02*
X320522Y440848D01*
X323044Y455389D02*
X335609D01*
X258572Y440145D02*
X266979Y448553D01*
X335609Y455389D02*
X336150Y454848D01*
X258572Y312928D02*
Y440145D01*
X371452Y290173D02*
X382270Y300990D01*
X258572Y312928D02*
X264756Y306744D01*
X277456D02*
X279400Y304800D01*
X264756Y306744D02*
X277456D01*
X577342Y308520D02*
Y445860D01*
X558800Y304800D02*
X560890Y306890D01*
X575712D01*
X577342Y308520D01*
X492760Y449580D02*
X573622D01*
X577342Y445860D01*
X425704Y428244D02*
X425958Y427990D01*
X450890D01*
X452120Y429220D02*
Y455422D01*
X450890Y427990D02*
X452120Y429220D01*
X390565Y429815D02*
X392390Y427990D01*
X374510Y455815D02*
X376228D01*
X379228Y452815D02*
X384815D01*
X386640Y450990D01*
X376228Y455815D02*
X379228Y452815D01*
X386640Y450990D02*
X392390D01*
X495696Y293116D02*
X508762D01*
X495838Y308864D02*
X509016D01*
X386640Y404990D02*
X392390D01*
X362116Y429514D02*
X386640Y404990D01*
X437134Y322326D02*
X458470Y300990D01*
X430276Y329184D02*
X437134Y322326D01*
X430276Y329184D02*
Y388874D01*
X438912Y397510D01*
X458978D02*
X467770Y406302D01*
Y416658D01*
X492760Y441648D01*
Y449580D01*
X533400Y304800D02*
X558800D01*
X532765Y304165D02*
X533400Y304800D01*
X474964Y300990D02*
X481838Y307864D01*
X474822Y300990D02*
X474964D01*
X481838Y307864D02*
Y308864D01*
X474822Y300990D02*
X481696Y294116D01*
Y293116D02*
Y294116D01*
X458470Y300990D02*
X474822D01*
X379929D02*
X380955D01*
X357520Y290830D02*
X370795D01*
X380955Y300990D01*
X382270D01*
X357520Y307340D02*
X373579D01*
X379929Y300990D01*
X331978Y277622D02*
X358902D01*
X371452Y290173D01*
X304800Y304800D02*
X331978Y277622D01*
X279400Y304800D02*
X304800D01*
D15*
X448945Y397510D02*
X449580Y396875D01*
Y383470D02*
Y396875D01*
X372098Y387238D02*
X382366Y376970D01*
X341376Y420624D02*
X372098Y389902D01*
Y387238D02*
Y389902D01*
X342900Y393700D02*
X359888D01*
X383118Y370470D01*
X382366Y376970D02*
X392580D01*
X383118Y370470D02*
X392580D01*
X476370Y400170D02*
X508000Y431800D01*
X470079Y400170D02*
X476370D01*
X462805Y381525D02*
Y392896D01*
X470079Y400170D01*
X338507Y378616D02*
X349585Y367538D01*
X363982D01*
X332584Y378616D02*
X338507D01*
X330200Y381000D02*
X332584Y378616D01*
X327425Y381000D02*
X330200D01*
X330748Y365894D02*
X336791D01*
X345885Y356800D02*
X354400D01*
X355600Y355600D01*
X336791Y365894D02*
X345885Y356800D01*
X317879Y342521D02*
X330200Y330200D01*
X292479Y342521D02*
X317879D01*
X280670Y354330D02*
X292479Y342521D01*
X314594Y353412D02*
X327503Y340503D01*
X304800Y355600D02*
X306988Y353412D01*
X327503Y340503D02*
X334455D01*
X306988Y353412D02*
X314594D01*
X282073Y378327D02*
X287166D01*
X279400Y381000D02*
X282073Y378327D01*
X297338Y368156D02*
X317645D01*
X287166Y378327D02*
X297338Y368156D01*
X313060Y398140D02*
X316032D01*
X304800Y406400D02*
X313060Y398140D01*
X304800Y406400D02*
X304800D01*
X316032Y398140D02*
X319964Y394208D01*
X314348Y394076D02*
X327425Y381000D01*
X295788Y394076D02*
X314348D01*
X319964Y394208D02*
X331550D01*
X304800Y381000D02*
X306023Y379777D01*
X316865D02*
X330748Y365894D01*
X306023Y379777D02*
X316865D01*
X287423Y402441D02*
X295788Y394076D01*
X283180Y406400D02*
X287139Y402441D01*
X287423D01*
X279400Y406400D02*
X283180D01*
X279654Y431546D02*
Y431800D01*
X318008Y418592D02*
X330200Y406400D01*
X292608Y418592D02*
X318008D01*
X279654Y431546D02*
X292608Y418592D01*
X279400Y431800D02*
X279654D01*
X327914Y420624D02*
X341376D01*
X316738Y431800D02*
X327914Y420624D01*
X304800Y431800D02*
X316738D01*
X331550Y394208D02*
X336122Y389636D01*
X346964D02*
X355600Y381000D01*
X336122Y389636D02*
X346964D01*
X317645Y368156D02*
X330200Y355600D01*
X334552Y340406D02*
X345394D01*
X355600Y330200D01*
X334455Y340503D02*
X334552Y340406D01*
X279400Y354330D02*
X280670D01*
X279400D02*
Y355600D01*
X330200Y330200D02*
X340868Y319532D01*
X365252D01*
X370690Y324970D01*
X392580D01*
X355600Y330200D02*
X356055D01*
X363825Y337970D02*
X392580D01*
X356055Y330200D02*
X363825Y337970D01*
X330200Y355600D02*
X341330Y344470D01*
X392580D01*
X355600Y355600D02*
X358972D01*
X363602Y350970D02*
X392580D01*
X358972Y355600D02*
X363602Y350970D01*
X363982Y367538D02*
X374050Y357470D01*
X355600Y381000D02*
X356267D01*
X373297Y363970D02*
X392580D01*
X356267Y381000D02*
X373297Y363970D01*
X374050Y357470D02*
X392580D01*
X330200Y406400D02*
X342900Y393700D01*
X527050D02*
X546100D01*
X558800Y406400D01*
X521892Y388542D02*
X527050Y393700D01*
X508000Y381000D02*
X508911D01*
X516453Y388542D01*
X521892D01*
X520700Y393700D02*
X533400Y406400D01*
X504190Y393700D02*
X520700D01*
X508000Y431800D02*
X533400D01*
X520700Y419100D02*
X546100D01*
X558800Y431800D01*
X508000Y406400D02*
X520700Y419100D01*
X458250Y376970D02*
X462805Y381525D01*
X460640Y370470D02*
X467175Y377005D01*
Y385895D01*
X473710Y392430D01*
X449580Y376970D02*
X458250D01*
X494030Y392430D02*
X508000Y406400D01*
X473710Y392430D02*
X494030D01*
X449580Y370470D02*
X460640D01*
X493874Y383384D02*
X504190Y393700D01*
X484984Y383384D02*
X493874D01*
X482600Y381000D02*
X484984Y383384D01*
X449580Y363970D02*
X465570D01*
X482600Y381000D01*
X498094Y371094D02*
X508000Y381000D01*
X487252Y371094D02*
X498094D01*
X484458Y368300D02*
X487252Y371094D01*
X476250Y368300D02*
X484458D01*
X482600Y355600D02*
X494030Y367030D01*
X513683D01*
X465420Y357470D02*
X476250Y368300D01*
X449580Y357470D02*
X465420D01*
X524834Y378181D02*
X530581D01*
X513683Y367030D02*
X524834Y378181D01*
X530581D02*
X533400Y381000D01*
X508000Y355600D02*
X520700Y368300D01*
X505819Y355600D02*
X508000D01*
X520700Y368300D02*
X547370D01*
X474598Y350970D02*
X479228Y355600D01*
X482600D01*
X449580Y350970D02*
X474598D01*
X547370Y368300D02*
X558800Y379730D01*
Y381000D01*
X498912Y348693D02*
X505819Y355600D01*
X496013Y348693D02*
X498912D01*
X491490Y344170D02*
X496013Y348693D01*
X482600Y330200D02*
X490985Y338585D01*
X491652D01*
X495967Y342900D02*
X513080D01*
X491652Y338585D02*
X495967Y342900D01*
X472440Y344170D02*
X491490D01*
X472140Y344470D02*
X472440Y344170D01*
X449580Y344470D02*
X472140D01*
X523558Y347841D02*
X531318Y355600D01*
X533400D01*
X518021Y347841D02*
X523558D01*
X513080Y342900D02*
X518021Y347841D01*
X508000Y330200D02*
X520700Y342900D01*
X546100D01*
X471326Y332584D02*
X480216D01*
X465940Y337970D02*
X471326Y332584D01*
X480216D02*
X482600Y330200D01*
X449580Y337970D02*
X465940D01*
X546100Y342900D02*
X558800Y355600D01*
X496570Y318770D02*
X508000Y330200D01*
X459780Y318770D02*
X496570D01*
X449580Y324970D02*
X453580D01*
X459780Y318770D01*
D17*
X360659Y441822D02*
D03*
Y455821D02*
D03*
X336150Y454848D02*
D03*
Y440848D02*
D03*
D18*
X392390Y450990D02*
D03*
Y427990D02*
D03*
Y404990D02*
D03*
D19*
X450890Y427990D02*
D03*
D20*
X484522Y449580D02*
D03*
X492760D02*
D03*
D21*
X343520Y307340D02*
D03*
X357520D02*
D03*
X495838Y308864D02*
D03*
X481838D02*
D03*
X343520Y290830D02*
D03*
X357520D02*
D03*
X495696Y293116D02*
D03*
X481696D02*
D03*
D22*
X392580Y383470D02*
D03*
Y376970D02*
D03*
Y370470D02*
D03*
Y363970D02*
D03*
Y357470D02*
D03*
Y350970D02*
D03*
Y344470D02*
D03*
Y337970D02*
D03*
Y331470D02*
D03*
Y324970D02*
D03*
X449580Y383470D02*
D03*
Y376970D02*
D03*
Y370470D02*
D03*
Y363970D02*
D03*
Y357470D02*
D03*
Y350970D02*
D03*
Y344470D02*
D03*
Y337970D02*
D03*
Y331470D02*
D03*
Y324970D02*
D03*
D37*
X380746Y392958D02*
X382604Y391100D01*
Y389446D02*
Y391100D01*
Y389446D02*
X388176Y383874D01*
X392176D01*
X392580Y383470D01*
X437134Y322326D02*
Y329184D01*
X439420Y331470D01*
X449580D01*
X404876Y323596D02*
Y328676D01*
X382270Y300990D02*
X404876Y323596D01*
X402558Y330994D02*
X404876Y328676D01*
X393056Y330994D02*
X402558D01*
X392580Y331470D02*
X393056Y330994D01*
D38*
X355600Y406400D02*
D03*
X330200D02*
D03*
X508000D02*
D03*
X482600D02*
D03*
D39*
X355600Y381000D02*
D03*
Y355600D02*
D03*
Y330200D02*
D03*
X330200Y381000D02*
D03*
Y355600D02*
D03*
Y330200D02*
D03*
X382270Y300990D02*
D03*
X407670D02*
D03*
X433070D02*
D03*
X508000Y330200D02*
D03*
Y355600D02*
D03*
Y381000D02*
D03*
X482600Y330200D02*
D03*
Y355600D02*
D03*
Y381000D02*
D03*
D40*
X304800Y431800D02*
D03*
D41*
Y406400D02*
D03*
Y381000D02*
D03*
Y355600D02*
D03*
Y330200D02*
D03*
Y304800D02*
D03*
X279400Y431800D02*
D03*
Y406400D02*
D03*
Y381000D02*
D03*
Y355600D02*
D03*
Y330200D02*
D03*
Y304800D02*
D03*
D42*
X458470Y300990D02*
D03*
D43*
X558800Y304800D02*
D03*
Y330200D02*
D03*
Y355600D02*
D03*
Y381000D02*
D03*
Y406400D02*
D03*
Y431800D02*
D03*
X533400Y304800D02*
D03*
Y330200D02*
D03*
Y355600D02*
D03*
Y381000D02*
D03*
Y406400D02*
D03*
D44*
Y431800D02*
D03*
D45*
X382604Y391100D02*
D03*
X322503Y455930D02*
D03*
X425704Y428244D02*
D03*
X452120Y455422D02*
D03*
X374510Y455815D02*
D03*
X327660Y307340D02*
D03*
X508762Y293116D02*
D03*
X509016Y308864D02*
D03*
M02*
