G04*
G04 #@! TF.GenerationSoftware,Altium Limited,Altium Designer,23.3.1 (30)*
G04*
G04 Layer_Color=16711935*
%FSLAX44Y44*%
%MOMM*%
G71*
G04*
G04 #@! TF.SameCoordinates,7D95EF5C-A674-4E58-8619-D26F187C42BB*
G04*
G04*
G04 #@! TF.FilePolarity,Negative*
G04*
G01*
G75*
%ADD30R,1.7032X1.7032*%
%ADD31C,1.7032*%
%ADD32R,1.8542X1.8542*%
%ADD33C,1.8542*%
%ADD34R,1.7032X1.7032*%
%ADD35C,1.9304*%
%ADD36R,1.8796X1.8796*%
D30*
X355600Y406400D02*
D03*
X330200D02*
D03*
X508000D02*
D03*
X482600D02*
D03*
D31*
X355600Y381000D02*
D03*
Y355600D02*
D03*
Y330200D02*
D03*
X330200Y381000D02*
D03*
Y355600D02*
D03*
Y330200D02*
D03*
X382270Y300990D02*
D03*
X407670D02*
D03*
X433070D02*
D03*
X508000Y330200D02*
D03*
Y355600D02*
D03*
Y381000D02*
D03*
X482600Y330200D02*
D03*
Y355600D02*
D03*
Y381000D02*
D03*
D32*
X304800Y431800D02*
D03*
D33*
Y406400D02*
D03*
Y381000D02*
D03*
Y355600D02*
D03*
Y330200D02*
D03*
Y304800D02*
D03*
X279400Y431800D02*
D03*
Y406400D02*
D03*
Y381000D02*
D03*
Y355600D02*
D03*
Y330200D02*
D03*
Y304800D02*
D03*
D34*
X458470Y300990D02*
D03*
D35*
X558800Y304800D02*
D03*
Y330200D02*
D03*
Y355600D02*
D03*
Y381000D02*
D03*
Y406400D02*
D03*
Y431800D02*
D03*
X533400Y304800D02*
D03*
Y330200D02*
D03*
Y355600D02*
D03*
Y381000D02*
D03*
Y406400D02*
D03*
D36*
Y431800D02*
D03*
M02*
