G04*
G04 #@! TF.GenerationSoftware,Altium Limited,Altium Designer,23.3.1 (30)*
G04*
G04 Layer_Color=65535*
%FSLAX44Y44*%
%MOMM*%
G71*
G04*
G04 #@! TF.SameCoordinates,D8AE08F4-3845-44A1-9C7E-D53955B2364C*
G04*
G04*
G04 #@! TF.FilePolarity,Positive*
G04*
G01*
G75*
%ADD10C,0.6000*%
%ADD11C,0.2500*%
%ADD12C,0.2000*%
%ADD13C,0.2540*%
%ADD14C,0.1000*%
%ADD15C,0.3048*%
%ADD16C,0.2032*%
G36*
X310501Y428583D02*
Y428562D01*
Y428521D01*
X310490Y428469D01*
Y428408D01*
Y428325D01*
X310480Y428232D01*
Y428119D01*
Y427995D01*
X310470Y427861D01*
Y427706D01*
Y427541D01*
X310459Y427366D01*
Y427180D01*
Y426984D01*
Y426768D01*
Y421013D01*
Y420993D01*
Y420952D01*
Y420879D01*
X310470Y420797D01*
X310480Y420601D01*
X310490Y420498D01*
X310501Y420415D01*
Y420405D01*
X310511Y420384D01*
X310521Y420343D01*
X310542Y420302D01*
X310593Y420188D01*
X310666Y420085D01*
X310676D01*
X310686Y420065D01*
X310748Y420013D01*
X310851Y419951D01*
X310985Y419889D01*
X310996D01*
X311027Y419879D01*
X311068Y419869D01*
X311130Y419848D01*
X311212Y419828D01*
X311305Y419807D01*
X311408Y419797D01*
X311522Y419776D01*
X311542D01*
X311583Y419766D01*
X311656D01*
X311749Y419755D01*
X311872Y419745D01*
X312027Y419735D01*
X312192D01*
X312378Y419724D01*
Y419106D01*
X306448D01*
Y419724D01*
X306520D01*
X306572Y419735D01*
X306706D01*
X306871Y419745D01*
X307046Y419766D01*
X307232Y419776D01*
X307397Y419797D01*
X307469Y419807D01*
X307531Y419817D01*
X307541D01*
X307582Y419828D01*
X307644Y419848D01*
X307716Y419859D01*
X307881Y419920D01*
X307954Y419951D01*
X308026Y419993D01*
X308036Y420003D01*
X308057Y420013D01*
X308088Y420044D01*
X308129Y420075D01*
X308211Y420178D01*
X308284Y420323D01*
Y420333D01*
X308294Y420364D01*
X308314Y420415D01*
X308325Y420488D01*
X308345Y420591D01*
X308356Y420704D01*
X308366Y420849D01*
Y421013D01*
Y425984D01*
Y425994D01*
Y426036D01*
X308356Y426087D01*
Y426149D01*
X308314Y426283D01*
X308294Y426345D01*
X308253Y426397D01*
Y426407D01*
X308232Y426417D01*
X308180Y426458D01*
X308088Y426500D01*
X308026Y426520D01*
X307933D01*
X307892Y426510D01*
X307840Y426500D01*
X307768Y426479D01*
X307685Y426448D01*
X307593Y426407D01*
X307479Y426355D01*
X307469Y426345D01*
X307417Y426324D01*
X307345Y426283D01*
X307232Y426221D01*
X307087Y426128D01*
X306912Y426025D01*
X306695Y425881D01*
X306448Y425716D01*
X306035Y426438D01*
X309624Y428593D01*
X310501D01*
Y428583D01*
D02*
G37*
G36*
X290049Y428046D02*
X286234Y419106D01*
X284831D01*
Y419570D01*
X288276Y426562D01*
Y426665D01*
X285120D01*
X285048Y426654D01*
X284883Y426644D01*
X284800Y426634D01*
X284728Y426613D01*
X284718D01*
X284697Y426603D01*
X284666Y426592D01*
X284625Y426582D01*
X284522Y426531D01*
X284429Y426458D01*
X284408Y426438D01*
X284367Y426386D01*
X284305Y426293D01*
X284243Y426180D01*
Y426170D01*
X284233Y426149D01*
X284212Y426108D01*
X284202Y426056D01*
X284171Y425984D01*
X284151Y425891D01*
X284120Y425778D01*
X284089Y425654D01*
X283284D01*
X283470Y428500D01*
X290049D01*
Y428046D01*
D02*
G37*
G36*
X287444Y268711D02*
X287537D01*
X287651Y268701D01*
X287774Y268691D01*
X288032Y268650D01*
X288311Y268608D01*
X288579Y268536D01*
X288837Y268443D01*
X288847D01*
X288867Y268433D01*
X288899Y268412D01*
X288940Y268392D01*
X289053Y268330D01*
X289187Y268248D01*
X289342Y268144D01*
X289497Y268021D01*
X289631Y267876D01*
X289754Y267711D01*
X289765Y267691D01*
X289796Y267629D01*
X289847Y267536D01*
X289899Y267402D01*
X289950Y267247D01*
X290002Y267062D01*
X290033Y266855D01*
X290043Y266628D01*
Y266618D01*
Y266608D01*
Y266577D01*
Y266536D01*
X290033Y266432D01*
X290023Y266298D01*
X289992Y266144D01*
X289961Y265979D01*
X289909Y265793D01*
X289837Y265618D01*
X289827Y265597D01*
X289796Y265535D01*
X289744Y265443D01*
X289672Y265308D01*
X289579Y265154D01*
X289455Y264978D01*
X289311Y264772D01*
X289136Y264556D01*
X289125Y264545D01*
X289115Y264525D01*
X289084Y264494D01*
X289043Y264442D01*
X288981Y264380D01*
X288919Y264308D01*
X288837Y264215D01*
X288744Y264123D01*
X288630Y263999D01*
X288507Y263875D01*
X288372Y263731D01*
X288218Y263586D01*
X288053Y263411D01*
X287867Y263236D01*
X287671Y263050D01*
X287455Y262844D01*
X287444Y262833D01*
X287434Y262823D01*
X287403Y262792D01*
X287362Y262751D01*
X287269Y262658D01*
X287135Y262524D01*
X286980Y262359D01*
X286815Y262184D01*
X286640Y261998D01*
X286465Y261802D01*
Y261792D01*
X286444Y261782D01*
X286393Y261720D01*
X286310Y261617D01*
X286207Y261503D01*
X286104Y261369D01*
X285990Y261235D01*
X285877Y261101D01*
X285784Y260977D01*
Y260915D01*
X288383D01*
X288476Y260926D01*
X288692Y260946D01*
X288795Y260957D01*
X288888Y260977D01*
X288899D01*
X288929Y260987D01*
X288971Y261008D01*
X289022Y261029D01*
X289136Y261101D01*
X289239Y261204D01*
X289249Y261214D01*
X289259Y261235D01*
X289290Y261276D01*
X289321Y261328D01*
X289352Y261400D01*
X289383Y261483D01*
X289424Y261575D01*
X289455Y261689D01*
X290239D01*
X290084Y259234D01*
X283783D01*
Y259678D01*
Y259688D01*
X283794Y259709D01*
X283815Y259740D01*
X283835Y259791D01*
X283866Y259853D01*
X283907Y259925D01*
X283948Y260008D01*
X284000Y260101D01*
X284114Y260317D01*
X284258Y260565D01*
X284423Y260833D01*
X284619Y261111D01*
X284629Y261122D01*
X284639Y261142D01*
X284670Y261194D01*
X284722Y261245D01*
X284774Y261318D01*
X284835Y261410D01*
X284908Y261503D01*
X284990Y261617D01*
X285083Y261740D01*
X285186Y261874D01*
X285413Y262163D01*
X285671Y262472D01*
X285949Y262813D01*
X285959Y262823D01*
X285980Y262854D01*
X286021Y262895D01*
X286073Y262957D01*
X286135Y263029D01*
X286207Y263122D01*
X286372Y263318D01*
X286558Y263545D01*
X286743Y263792D01*
X286919Y264030D01*
X287083Y264246D01*
Y264257D01*
X287104Y264267D01*
X287125Y264298D01*
X287145Y264339D01*
X287218Y264452D01*
X287300Y264597D01*
X287393Y264762D01*
X287496Y264937D01*
X287579Y265123D01*
X287661Y265319D01*
Y265329D01*
X287671Y265339D01*
X287682Y265370D01*
X287692Y265412D01*
X287723Y265504D01*
X287764Y265638D01*
X287795Y265793D01*
X287826Y265968D01*
X287847Y266164D01*
X287857Y266360D01*
Y266371D01*
Y266391D01*
Y266432D01*
Y266484D01*
X287847Y266546D01*
X287836Y266618D01*
X287816Y266793D01*
X287774Y266979D01*
X287713Y267175D01*
X287630Y267361D01*
X287517Y267536D01*
X287506Y267556D01*
X287455Y267608D01*
X287383Y267670D01*
X287279Y267752D01*
X287145Y267835D01*
X286991Y267897D01*
X286805Y267948D01*
X286599Y267969D01*
X286547D01*
X286506Y267959D01*
X286403Y267948D01*
X286279Y267917D01*
X286135Y267876D01*
X285990Y267804D01*
X285836Y267711D01*
X285691Y267577D01*
X285671Y267556D01*
X285630Y267505D01*
X285568Y267412D01*
X285495Y267278D01*
X285403Y267113D01*
X285320Y266907D01*
X285279Y266783D01*
X285238Y266649D01*
X285196Y266515D01*
X285165Y266360D01*
X283928D01*
Y267979D01*
X283938D01*
X283969Y267990D01*
X284010Y268010D01*
X284062Y268031D01*
X284134Y268062D01*
X284217Y268093D01*
X284402Y268165D01*
X284619Y268248D01*
X284835Y268320D01*
X285042Y268392D01*
X285238Y268454D01*
X285248D01*
X285258Y268464D01*
X285320Y268474D01*
X285413Y268495D01*
X285537Y268526D01*
X285671Y268557D01*
X285836Y268598D01*
X286001Y268619D01*
X286176Y268650D01*
X286197D01*
X286259Y268660D01*
X286351Y268670D01*
X286475Y268691D01*
X286630Y268701D01*
X286795Y268711D01*
X286991Y268722D01*
X287352D01*
X287444Y268711D01*
D02*
G37*
G36*
X280267D02*
Y268691D01*
Y268650D01*
X280257Y268598D01*
Y268536D01*
Y268454D01*
X280246Y268361D01*
Y268248D01*
Y268124D01*
X280236Y267990D01*
Y267835D01*
Y267670D01*
X280226Y267495D01*
Y267309D01*
Y267113D01*
Y266896D01*
Y261142D01*
Y261122D01*
Y261080D01*
Y261008D01*
X280236Y260926D01*
X280246Y260730D01*
X280257Y260627D01*
X280267Y260544D01*
Y260534D01*
X280277Y260513D01*
X280288Y260472D01*
X280308Y260431D01*
X280360Y260317D01*
X280432Y260214D01*
X280442D01*
X280453Y260194D01*
X280515Y260142D01*
X280618Y260080D01*
X280752Y260018D01*
X280762D01*
X280793Y260008D01*
X280834Y259998D01*
X280896Y259977D01*
X280979Y259956D01*
X281071Y259936D01*
X281175Y259925D01*
X281288Y259905D01*
X281309D01*
X281350Y259894D01*
X281422D01*
X281515Y259884D01*
X281639Y259874D01*
X281793Y259863D01*
X281958D01*
X282144Y259853D01*
Y259234D01*
X276214D01*
Y259853D01*
X276286D01*
X276338Y259863D01*
X276472D01*
X276637Y259874D01*
X276812Y259894D01*
X276998Y259905D01*
X277163Y259925D01*
X277235Y259936D01*
X277297Y259946D01*
X277307D01*
X277349Y259956D01*
X277411Y259977D01*
X277483Y259987D01*
X277648Y260049D01*
X277720Y260080D01*
X277792Y260121D01*
X277802Y260132D01*
X277823Y260142D01*
X277854Y260173D01*
X277895Y260204D01*
X277978Y260307D01*
X278050Y260451D01*
Y260462D01*
X278060Y260492D01*
X278081Y260544D01*
X278091Y260616D01*
X278112Y260719D01*
X278122Y260833D01*
X278132Y260977D01*
Y261142D01*
Y266113D01*
Y266123D01*
Y266164D01*
X278122Y266216D01*
Y266278D01*
X278081Y266412D01*
X278060Y266474D01*
X278019Y266525D01*
Y266536D01*
X277998Y266546D01*
X277947Y266587D01*
X277854Y266628D01*
X277792Y266649D01*
X277699D01*
X277658Y266639D01*
X277606Y266628D01*
X277534Y266608D01*
X277452Y266577D01*
X277359Y266536D01*
X277246Y266484D01*
X277235Y266474D01*
X277184Y266453D01*
X277111Y266412D01*
X276998Y266350D01*
X276854Y266257D01*
X276678Y266154D01*
X276462Y266010D01*
X276214Y265845D01*
X275802Y266567D01*
X279390Y268722D01*
X280267D01*
Y268711D01*
D02*
G37*
G36*
X312889Y268045D02*
Y267622D01*
X312828D01*
X312745Y267612D01*
X312642Y267602D01*
X312508Y267581D01*
X312364Y267560D01*
X312199Y267529D01*
X312023Y267488D01*
X311827Y267437D01*
X311631Y267375D01*
X311425Y267302D01*
X311219Y267210D01*
X311023Y267107D01*
X310817Y266983D01*
X310631Y266838D01*
X310445Y266684D01*
X310435Y266673D01*
X310404Y266642D01*
X310363Y266591D01*
X310301Y266519D01*
X310219Y266426D01*
X310136Y266313D01*
X310043Y266178D01*
X309940Y266024D01*
X309837Y265859D01*
X309734Y265663D01*
X309631Y265457D01*
X309528Y265219D01*
X309435Y264972D01*
X309352Y264704D01*
X309270Y264425D01*
X309208Y264116D01*
X309270Y264095D01*
X309280D01*
X309291Y264116D01*
X309321Y264126D01*
X309363Y264157D01*
X309466Y264219D01*
X309610Y264302D01*
X309775Y264394D01*
X309951Y264477D01*
X310146Y264559D01*
X310353Y264632D01*
X310363D01*
X310373Y264642D01*
X310404Y264652D01*
X310445Y264662D01*
X310559Y264683D01*
X310703Y264724D01*
X310879Y264755D01*
X311085Y264776D01*
X311301Y264797D01*
X311539Y264807D01*
X311673D01*
X311745Y264797D01*
X311817Y264786D01*
X312003Y264766D01*
X312219Y264724D01*
X312446Y264662D01*
X312683Y264570D01*
X312900Y264456D01*
X312910D01*
X312920Y264436D01*
X312951Y264425D01*
X312993Y264394D01*
X313096Y264312D01*
X313220Y264209D01*
X313354Y264064D01*
X313498Y263899D01*
X313632Y263703D01*
X313756Y263477D01*
Y263466D01*
X313766Y263446D01*
X313787Y263415D01*
X313797Y263363D01*
X313828Y263301D01*
X313849Y263229D01*
X313869Y263147D01*
X313900Y263054D01*
X313952Y262847D01*
X314003Y262590D01*
X314034Y262311D01*
X314044Y262012D01*
Y262002D01*
Y261971D01*
Y261919D01*
X314034Y261857D01*
Y261775D01*
X314024Y261682D01*
X314014Y261579D01*
X313993Y261466D01*
X313952Y261218D01*
X313880Y260940D01*
X313787Y260661D01*
X313653Y260393D01*
Y260383D01*
X313632Y260362D01*
X313611Y260331D01*
X313580Y260280D01*
X313539Y260218D01*
X313488Y260156D01*
X313364Y260001D01*
X313199Y259826D01*
X312993Y259640D01*
X312745Y259465D01*
X312467Y259310D01*
X312456D01*
X312436Y259290D01*
X312384Y259279D01*
X312322Y259249D01*
X312250Y259218D01*
X312157Y259187D01*
X312044Y259156D01*
X311920Y259125D01*
X311786Y259083D01*
X311642Y259053D01*
X311477Y259022D01*
X311301Y258991D01*
X311126Y258960D01*
X310930Y258949D01*
X310507Y258929D01*
X310404D01*
X310332Y258939D01*
X310239D01*
X310126Y258949D01*
X310012Y258960D01*
X309878Y258980D01*
X309590Y259032D01*
X309280Y259104D01*
X308971Y259207D01*
X308672Y259341D01*
X308661Y259352D01*
X308641Y259362D01*
X308600Y259383D01*
X308548Y259424D01*
X308486Y259465D01*
X308414Y259517D01*
X308239Y259661D01*
X308053Y259836D01*
X307857Y260053D01*
X307672Y260311D01*
X307507Y260599D01*
Y260610D01*
X307486Y260641D01*
X307465Y260682D01*
X307445Y260744D01*
X307414Y260826D01*
X307383Y260929D01*
X307341Y261043D01*
X307311Y261167D01*
X307269Y261311D01*
X307228Y261455D01*
X307197Y261631D01*
X307166Y261806D01*
X307146Y261992D01*
X307125Y262198D01*
X307104Y262621D01*
Y262641D01*
Y262693D01*
Y262775D01*
X307115Y262889D01*
X307125Y263033D01*
X307135Y263198D01*
X307156Y263384D01*
X307187Y263590D01*
X307228Y263807D01*
X307269Y264034D01*
X307321Y264281D01*
X307383Y264529D01*
X307465Y264776D01*
X307558Y265034D01*
X307661Y265281D01*
X307775Y265529D01*
X307785Y265539D01*
X307806Y265591D01*
X307847Y265653D01*
X307898Y265745D01*
X307971Y265859D01*
X308053Y265982D01*
X308156Y266127D01*
X308270Y266282D01*
X308404Y266436D01*
X308538Y266612D01*
X308703Y266787D01*
X308868Y266952D01*
X309053Y267127D01*
X309260Y267302D01*
X309466Y267457D01*
X309693Y267612D01*
X309703Y267622D01*
X309755Y267643D01*
X309816Y267684D01*
X309909Y267736D01*
X310033Y267798D01*
X310167Y267870D01*
X310332Y267942D01*
X310518Y268024D01*
X310714Y268107D01*
X310930Y268179D01*
X311167Y268262D01*
X311415Y268334D01*
X311673Y268396D01*
X311941Y268447D01*
X312230Y268488D01*
X312518Y268519D01*
X312889Y268045D01*
D02*
G37*
%LPC*%
G36*
X310734Y263858D02*
X310611D01*
X310528Y263848D01*
X310425Y263838D01*
X310322Y263817D01*
X310095Y263755D01*
X310085D01*
X310043Y263734D01*
X309992Y263714D01*
X309920Y263683D01*
X309847Y263652D01*
X309755Y263600D01*
X309579Y263487D01*
X309569Y263477D01*
X309538Y263456D01*
X309507Y263425D01*
X309456Y263394D01*
X309352Y263301D01*
X309311Y263250D01*
X309270Y263209D01*
X309260Y263188D01*
X309229Y263136D01*
X309187Y263043D01*
X309156Y262909D01*
Y262899D01*
Y262868D01*
X309146Y262817D01*
Y262744D01*
X309136Y262652D01*
Y262528D01*
X309125Y262383D01*
Y262208D01*
Y262198D01*
Y262157D01*
Y262084D01*
X309136Y262002D01*
Y261899D01*
X309146Y261775D01*
X309156Y261641D01*
X309167Y261497D01*
X309208Y261187D01*
X309270Y260878D01*
X309363Y260579D01*
X309414Y260434D01*
X309476Y260311D01*
Y260300D01*
X309497Y260280D01*
X309517Y260249D01*
X309538Y260218D01*
X309620Y260115D01*
X309744Y260001D01*
X309889Y259878D01*
X310074Y259785D01*
X310177Y259743D01*
X310291Y259713D01*
X310415Y259692D01*
X310549Y259682D01*
X310621D01*
X310693Y259692D01*
X310786Y259702D01*
X310899Y259723D01*
X311013Y259743D01*
X311126Y259785D01*
X311240Y259836D01*
X311250Y259847D01*
X311291Y259867D01*
X311332Y259909D01*
X311405Y259950D01*
X311466Y260022D01*
X311549Y260094D01*
X311621Y260177D01*
X311683Y260280D01*
X311693Y260290D01*
X311714Y260331D01*
X311745Y260393D01*
X311776Y260476D01*
X311817Y260579D01*
X311858Y260692D01*
X311900Y260826D01*
X311931Y260971D01*
Y260991D01*
X311941Y261043D01*
X311961Y261125D01*
X311972Y261239D01*
X311992Y261362D01*
X312003Y261517D01*
X312013Y261693D01*
Y261868D01*
Y261878D01*
Y261909D01*
Y261961D01*
Y262033D01*
X312003Y262115D01*
X311992Y262208D01*
X311972Y262425D01*
X311931Y262662D01*
X311879Y262909D01*
X311796Y263147D01*
X311745Y263250D01*
X311683Y263353D01*
Y263363D01*
X311673Y263374D01*
X311621Y263435D01*
X311549Y263518D01*
X311446Y263611D01*
X311312Y263703D01*
X311147Y263776D01*
X310951Y263838D01*
X310848Y263848D01*
X310734Y263858D01*
D02*
G37*
%LPD*%
D10*
X526916Y315624D02*
G03*
X526916Y315624I-3000J0D01*
G01*
D11*
X549666Y304174D02*
G03*
X549666Y304174I-1250J0D01*
G01*
D12*
X487680Y276860D02*
X563880D01*
X487680Y251460D02*
Y276860D01*
Y251460D02*
X563880D01*
Y276860D01*
X471416Y408624D02*
X533916D01*
X471416Y305624D02*
X533916D01*
X471416D02*
Y408624D01*
X533916Y305624D02*
Y408624D01*
X355600Y317500D02*
X381000D01*
X355600D02*
Y419100D01*
X381000Y317500D02*
Y419100D01*
X355600D02*
X381000D01*
X330200Y317500D02*
X355600D01*
X330200D02*
Y419100D01*
X355600Y317500D02*
Y419100D01*
X330200D02*
X355600D01*
X419100Y248920D02*
Y299720D01*
X342900Y248920D02*
Y299720D01*
X419100D01*
X342900Y248920D02*
X419100D01*
X370417D02*
X419100D01*
D13*
X292100Y444500D02*
X317500D01*
X254000D02*
X292100D01*
X254000Y241300D02*
Y444500D01*
Y241300D02*
X317500D01*
Y266700D01*
Y419100D02*
Y444500D01*
X579120Y416560D02*
Y421640D01*
Y264160D02*
Y269240D01*
Y264160D02*
X711200D01*
Y266700D01*
Y419100D02*
Y421640D01*
X579120D02*
X711200D01*
Y266700D02*
Y419100D01*
X486282Y256754D02*
X477394D01*
Y261198D01*
X478876Y262679D01*
X481838D01*
X483319Y261198D01*
Y256754D01*
X486282Y270085D02*
X477394D01*
X481838Y265641D01*
Y271566D01*
X363984Y421895D02*
Y429513D01*
X367792D01*
X369062Y428243D01*
Y425704D01*
X367792Y424434D01*
X363984D01*
X371601Y421895D02*
X374140D01*
X372871D01*
Y429513D01*
X371601Y428243D01*
X338044Y422529D02*
Y430147D01*
X341852D01*
X343122Y428877D01*
Y426338D01*
X341852Y425069D01*
X338044D01*
X350740Y422529D02*
X345661D01*
X350740Y427608D01*
Y428877D01*
X349470Y430147D01*
X346931D01*
X345661Y428877D01*
X572091Y292228D02*
Y299634D01*
X570610Y301116D01*
X567647D01*
X566166Y299634D01*
Y292228D01*
X563204Y301116D02*
X560241D01*
X561722D01*
Y292228D01*
X563204Y293710D01*
X455264Y272670D02*
Y281558D01*
X459708D01*
X461189Y280076D01*
Y277114D01*
X459708Y275633D01*
X455264D01*
X458226D02*
X461189Y272670D01*
X464151Y274152D02*
X465632Y272670D01*
X468595D01*
X470076Y274152D01*
Y280076D01*
X468595Y281558D01*
X465632D01*
X464151Y280076D01*
Y278595D01*
X465632Y277114D01*
X470076D01*
X383536Y313127D02*
Y319475D01*
X386710D01*
X387768Y318417D01*
Y316301D01*
X386710Y315243D01*
X383536D01*
X385652D02*
X387768Y313127D01*
X389884Y318417D02*
X390942Y319475D01*
X393058D01*
X394116Y318417D01*
Y317358D01*
X393058Y316301D01*
X394116Y315243D01*
Y314184D01*
X393058Y313127D01*
X390942D01*
X389884Y314184D01*
Y315243D01*
X390942Y316301D01*
X389884Y317358D01*
Y318417D01*
X390942Y316301D02*
X393058D01*
X383276Y328122D02*
Y334470D01*
X386450D01*
X387508Y333412D01*
Y331296D01*
X386450Y330238D01*
X383276D01*
X385392D02*
X387508Y328122D01*
X389624Y334470D02*
X393856D01*
Y333412D01*
X389624Y329180D01*
Y328122D01*
X383103Y344071D02*
Y350419D01*
X386277D01*
X387335Y349361D01*
Y347245D01*
X386277Y346187D01*
X383103D01*
X385219D02*
X387335Y344071D01*
X393683Y350419D02*
X391567Y349361D01*
X389451Y347245D01*
Y345129D01*
X390509Y344071D01*
X392625D01*
X393683Y345129D01*
Y346187D01*
X392625Y347245D01*
X389451D01*
X383450Y358546D02*
Y364894D01*
X386624D01*
X387682Y363836D01*
Y361720D01*
X386624Y360662D01*
X383450D01*
X385566D02*
X387682Y358546D01*
X394030Y364894D02*
X389798D01*
Y361720D01*
X391913Y362778D01*
X392972D01*
X394030Y361720D01*
Y359604D01*
X392972Y358546D01*
X390856D01*
X389798Y359604D01*
X383536Y392885D02*
Y399233D01*
X386710D01*
X387768Y398175D01*
Y396059D01*
X386710Y395001D01*
X383536D01*
X385652D02*
X387768Y392885D01*
X393058D02*
Y399233D01*
X389884Y396059D01*
X394116D01*
X383710Y376533D02*
Y382881D01*
X386884D01*
X387942Y381823D01*
Y379707D01*
X386884Y378649D01*
X383710D01*
X385826D02*
X387942Y376533D01*
X390058Y381823D02*
X391116Y382881D01*
X393232D01*
X394290Y381823D01*
Y380765D01*
X393232Y379707D01*
X392174D01*
X393232D01*
X394290Y378649D01*
Y377591D01*
X393232Y376533D01*
X391116D01*
X390058Y377591D01*
X383103Y424089D02*
Y430437D01*
X386277D01*
X387335Y429379D01*
Y427263D01*
X386277Y426205D01*
X383103D01*
X385219D02*
X387335Y424089D01*
X393683D02*
X389451D01*
X393683Y428321D01*
Y429379D01*
X392625Y430437D01*
X390509D01*
X389451Y429379D01*
X384161Y406407D02*
Y412755D01*
X387335D01*
X388393Y411697D01*
Y409581D01*
X387335Y408523D01*
X384161D01*
X386277D02*
X388393Y406407D01*
X390509D02*
X392625D01*
X391567D01*
Y412755D01*
X390509Y411697D01*
X666333Y424308D02*
Y433196D01*
X670777D01*
X672258Y431714D01*
Y428752D01*
X670777Y427271D01*
X666333D01*
X675220Y424308D02*
Y433196D01*
X678183Y430233D01*
X681145Y433196D01*
Y424308D01*
X688551Y433196D02*
X685589D01*
X684108Y431714D01*
Y425790D01*
X685589Y424308D01*
X688551D01*
X690032Y425790D01*
Y431714D01*
X688551Y433196D01*
X692995D02*
Y424308D01*
X697438D01*
X698920Y425790D01*
Y431714D01*
X697438Y433196D01*
X692995D01*
X707807Y424308D02*
X701882D01*
X707807Y430233D01*
Y431714D01*
X706325Y433196D01*
X703363D01*
X701882Y431714D01*
X273033Y258625D02*
X264146D01*
Y263069D01*
X265627Y264550D01*
X268590D01*
X270071Y263069D01*
Y258625D01*
X273033Y267512D02*
X264146D01*
X267108Y270475D01*
X264146Y273437D01*
X273033D01*
X264146Y280843D02*
Y277880D01*
X265627Y276399D01*
X271552D01*
X273033Y277880D01*
Y280843D01*
X271552Y282324D01*
X265627D01*
X264146Y280843D01*
Y285287D02*
X273033D01*
Y289730D01*
X271552Y291211D01*
X265627D01*
X264146Y289730D01*
Y285287D01*
X273033Y294174D02*
Y297136D01*
Y295655D01*
X264146D01*
X265627Y294174D01*
X329312Y287314D02*
X338200D01*
Y282870D01*
X336718Y281389D01*
X333756D01*
X332275Y282870D01*
Y287314D01*
X336718Y278427D02*
X338200Y276946D01*
Y273983D01*
X336718Y272502D01*
X335237D01*
X333756Y273983D01*
Y275464D01*
Y273983D01*
X332275Y272502D01*
X330794D01*
X329312Y273983D01*
Y276946D01*
X330794Y278427D01*
X433233Y259594D02*
X434715Y261075D01*
Y264037D01*
X433233Y265518D01*
X427309D01*
X425827Y264037D01*
Y261075D01*
X427309Y259594D01*
X425827Y250707D02*
Y256631D01*
X431752Y250707D01*
X433233D01*
X434715Y252188D01*
Y255150D01*
X433233Y256631D01*
X643343Y434008D02*
X641861Y435489D01*
X638899D01*
X637418Y434008D01*
Y428083D01*
X638899Y426602D01*
X641861D01*
X643343Y428083D01*
X646305Y426602D02*
X649267D01*
X647786D01*
Y435489D01*
X646305Y434008D01*
D14*
X396480Y418958D02*
Y432958D01*
X426480Y418958D02*
Y432958D01*
X396480D02*
X426480D01*
X396480Y418958D02*
X426480D01*
X396480Y403718D02*
Y417718D01*
X426480Y403718D02*
Y417718D01*
X396480D02*
X426480D01*
X396480Y403718D02*
X426480D01*
X633268Y422260D02*
Y436260D01*
X607268Y422260D02*
Y436260D01*
X633268D01*
X607268Y422260D02*
X633268D01*
X396480Y309230D02*
Y323230D01*
X426480Y309230D02*
Y323230D01*
X396480D02*
X426480D01*
X396480Y309230D02*
X426480D01*
X422768Y268798D02*
X436768D01*
X422768Y294798D02*
X436768D01*
Y268798D02*
Y294798D01*
X422768Y268798D02*
Y294798D01*
X396480Y324470D02*
Y338470D01*
X426480Y324470D02*
Y338470D01*
X396480D02*
X426480D01*
X396480Y324470D02*
X426480D01*
X396480Y339710D02*
Y353710D01*
X426480Y339710D02*
Y353710D01*
X396480D02*
X426480D01*
X396480Y339710D02*
X426480D01*
X396480Y354950D02*
Y368950D01*
X426480Y354950D02*
Y368950D01*
X396480D02*
X426480D01*
X396480Y354950D02*
X426480D01*
X396480Y388478D02*
Y402478D01*
X426480Y388478D02*
Y402478D01*
X396480D02*
X426480D01*
X396480Y388478D02*
X426480D01*
X396480Y371968D02*
Y385968D01*
X426480Y371968D02*
Y385968D01*
X396480D02*
X426480D01*
X396480Y371968D02*
X426480D01*
X446400Y256144D02*
Y270144D01*
X476400Y256144D02*
Y270144D01*
X446400D02*
X476400D01*
X446400Y256144D02*
X476400D01*
D15*
X483616Y279146D02*
Y288033D01*
X488060D01*
X489541Y286552D01*
Y283590D01*
X488060Y282108D01*
X483616D01*
X486578D02*
X489541Y279146D01*
X498428Y286552D02*
X496947Y288033D01*
X493984D01*
X492503Y286552D01*
Y285071D01*
X493984Y283590D01*
X496947D01*
X498428Y282108D01*
Y280627D01*
X496947Y279146D01*
X493984D01*
X492503Y280627D01*
X501390Y288033D02*
X507315D01*
X504353D01*
Y279146D01*
X546573Y286686D02*
X545092Y288167D01*
X542129D01*
X540648Y286686D01*
Y280761D01*
X542129Y279280D01*
X545092D01*
X546573Y280761D01*
Y283724D01*
X543610D01*
X549535Y279280D02*
Y288167D01*
X555460Y279280D01*
Y288167D01*
X558422D02*
Y279280D01*
X562866D01*
X564347Y280761D01*
Y286686D01*
X562866Y288167D01*
X558422D01*
X511302Y287779D02*
Y281854D01*
X514264Y278892D01*
X517227Y281854D01*
Y287779D01*
X526114Y286298D02*
X524633Y287779D01*
X521670D01*
X520189Y286298D01*
Y280373D01*
X521670Y278892D01*
X524633D01*
X526114Y280373D01*
X535001Y286298D02*
X533520Y287779D01*
X530557D01*
X529076Y286298D01*
Y280373D01*
X530557Y278892D01*
X533520D01*
X535001Y280373D01*
X325965Y262930D02*
X324484Y264411D01*
X321521D01*
X320040Y262930D01*
Y257005D01*
X321521Y255524D01*
X324484D01*
X325965Y257005D01*
X334852Y262930D02*
X333371Y264411D01*
X330408D01*
X328927Y262930D01*
Y261449D01*
X330408Y259968D01*
X333371D01*
X334852Y258486D01*
Y257005D01*
X333371Y255524D01*
X330408D01*
X328927Y257005D01*
X420370Y306829D02*
X423332D01*
X421851D01*
Y297942D01*
X420370D01*
X423332D01*
X432220Y306829D02*
X429257D01*
X427776Y305348D01*
Y299423D01*
X429257Y297942D01*
X432220D01*
X433701Y299423D01*
Y305348D01*
X432220Y306829D01*
X442588D02*
X439625Y305348D01*
X436663Y302386D01*
Y299423D01*
X438144Y297942D01*
X441107D01*
X442588Y299423D01*
Y300904D01*
X441107Y302386D01*
X436663D01*
X370332Y311655D02*
X373294D01*
X371813D01*
Y302768D01*
X370332D01*
X373294D01*
X382182Y311655D02*
X379219D01*
X377738Y310174D01*
Y304249D01*
X379219Y302768D01*
X382182D01*
X383663Y304249D01*
Y310174D01*
X382182Y311655D01*
X392550D02*
X386625D01*
Y307212D01*
X389587Y308693D01*
X391069D01*
X392550Y307212D01*
Y304249D01*
X391069Y302768D01*
X388106D01*
X386625Y304249D01*
X344932Y311401D02*
X347894D01*
X346413D01*
Y302514D01*
X344932D01*
X347894D01*
X356782Y311401D02*
X353819D01*
X352338Y309920D01*
Y303995D01*
X353819Y302514D01*
X356782D01*
X358263Y303995D01*
Y309920D01*
X356782Y311401D01*
X361225Y302514D02*
X364187D01*
X362706D01*
Y311401D01*
X361225Y309920D01*
D16*
X335280Y256540D02*
X339512D01*
X337396D01*
Y269236D01*
X335280Y267120D01*
M02*
