G04*
G04 #@! TF.GenerationSoftware,Altium Limited,Altium Designer,23.3.1 (30)*
G04*
G04 Layer_Color=8421504*
%FSLAX44Y44*%
%MOMM*%
G71*
G04*
G04 #@! TF.SameCoordinates,D8AE08F4-3845-44A1-9C7E-D53955B2364C*
G04*
G04*
G04 #@! TF.FilePolarity,Positive*
G04*
G01*
G75*
%ADD17O,2.1000X0.6000*%
G04:AMPARAMS|DCode=18|XSize=1mm|YSize=0.9mm|CornerRadius=0.1125mm|HoleSize=0mm|Usage=FLASHONLY|Rotation=90.000|XOffset=0mm|YOffset=0mm|HoleType=Round|Shape=RoundedRectangle|*
%AMROUNDEDRECTD18*
21,1,1.0000,0.6750,0,0,90.0*
21,1,0.7750,0.9000,0,0,90.0*
1,1,0.2250,0.3375,0.3875*
1,1,0.2250,0.3375,-0.3875*
1,1,0.2250,-0.3375,-0.3875*
1,1,0.2250,-0.3375,0.3875*
%
%ADD18ROUNDEDRECTD18*%
%ADD19R,0.7500X0.9500*%
%ADD20R,0.9500X0.7500*%
D17*
X456916Y401574D02*
D03*
Y388874D02*
D03*
Y376174D02*
D03*
Y363474D02*
D03*
Y350774D02*
D03*
Y338074D02*
D03*
Y325374D02*
D03*
Y312674D02*
D03*
X548416Y401574D02*
D03*
Y388874D02*
D03*
Y376174D02*
D03*
Y363474D02*
D03*
Y350774D02*
D03*
Y338074D02*
D03*
Y325374D02*
D03*
Y312674D02*
D03*
D18*
X419980Y425958D02*
D03*
X402980D02*
D03*
X419980Y410718D02*
D03*
X402980D02*
D03*
X419980Y316230D02*
D03*
X402980D02*
D03*
X419980Y331470D02*
D03*
X402980D02*
D03*
X419980Y346710D02*
D03*
X402980D02*
D03*
X419980Y361950D02*
D03*
X402980D02*
D03*
X419980Y395478D02*
D03*
X402980D02*
D03*
X419980Y378968D02*
D03*
X402980D02*
D03*
X469900Y263144D02*
D03*
X452900D02*
D03*
D19*
X613268Y429260D02*
D03*
X627268D02*
D03*
D20*
X429768Y288798D02*
D03*
Y274798D02*
D03*
M02*
