G04*
G04 #@! TF.GenerationSoftware,Altium Limited,Altium Designer,23.3.1 (30)*
G04*
G04 Layer_Color=8388736*
%FSLAX44Y44*%
%MOMM*%
G71*
G04*
G04 #@! TF.SameCoordinates,D8AE08F4-3845-44A1-9C7E-D53955B2364C*
G04*
G04*
G04 #@! TF.FilePolarity,Negative*
G04*
G01*
G75*
%ADD21O,2.3032X0.8032*%
G04:AMPARAMS|DCode=22|XSize=1.2032mm|YSize=1.1032mm|CornerRadius=0.2141mm|HoleSize=0mm|Usage=FLASHONLY|Rotation=90.000|XOffset=0mm|YOffset=0mm|HoleType=Round|Shape=RoundedRectangle|*
%AMROUNDEDRECTD22*
21,1,1.2032,0.6750,0,0,90.0*
21,1,0.7750,1.1032,0,0,90.0*
1,1,0.4282,0.3375,0.3875*
1,1,0.4282,0.3375,-0.3875*
1,1,0.4282,-0.3375,-0.3875*
1,1,0.4282,-0.3375,0.3875*
%
%ADD22ROUNDEDRECTD22*%
%ADD23R,0.9532X1.1532*%
%ADD24R,1.1532X0.9532*%
%ADD25R,1.7032X1.7032*%
%ADD26C,1.7032*%
%ADD27R,1.8542X1.8542*%
%ADD28C,1.8542*%
%ADD29R,1.7032X1.7032*%
%ADD30C,1.9304*%
%ADD31R,1.8796X1.8796*%
D21*
X456916Y401574D02*
D03*
Y388874D02*
D03*
Y376174D02*
D03*
Y363474D02*
D03*
Y350774D02*
D03*
Y338074D02*
D03*
Y325374D02*
D03*
Y312674D02*
D03*
X548416Y401574D02*
D03*
Y388874D02*
D03*
Y376174D02*
D03*
Y363474D02*
D03*
Y350774D02*
D03*
Y338074D02*
D03*
Y325374D02*
D03*
Y312674D02*
D03*
D22*
X419980Y425958D02*
D03*
X402980D02*
D03*
X419980Y410718D02*
D03*
X402980D02*
D03*
X419980Y316230D02*
D03*
X402980D02*
D03*
X419980Y331470D02*
D03*
X402980D02*
D03*
X419980Y346710D02*
D03*
X402980D02*
D03*
X419980Y361950D02*
D03*
X402980D02*
D03*
X419980Y395478D02*
D03*
X402980D02*
D03*
X419980Y378968D02*
D03*
X402980D02*
D03*
X469900Y263144D02*
D03*
X452900D02*
D03*
D23*
X613268Y429260D02*
D03*
X627268D02*
D03*
D24*
X429768Y288798D02*
D03*
Y274798D02*
D03*
D25*
X551180Y264160D02*
D03*
X355600Y261620D02*
D03*
D26*
X525780Y264160D02*
D03*
X500380D02*
D03*
X368300Y381000D02*
D03*
Y355600D02*
D03*
Y330200D02*
D03*
X342900Y381000D02*
D03*
Y355600D02*
D03*
Y330200D02*
D03*
X355600Y287020D02*
D03*
X381000Y261620D02*
D03*
Y287020D02*
D03*
X406400Y261620D02*
D03*
Y287020D02*
D03*
D27*
X317500Y406400D02*
D03*
D28*
Y381000D02*
D03*
Y355600D02*
D03*
Y330200D02*
D03*
Y304800D02*
D03*
Y279400D02*
D03*
X292100Y406400D02*
D03*
Y381000D02*
D03*
Y355600D02*
D03*
Y330200D02*
D03*
Y304800D02*
D03*
Y279400D02*
D03*
D29*
X368300Y406400D02*
D03*
X342900D02*
D03*
D30*
X609600Y279400D02*
D03*
Y304800D02*
D03*
Y330200D02*
D03*
Y355600D02*
D03*
Y381000D02*
D03*
Y406400D02*
D03*
X584200Y279400D02*
D03*
Y304800D02*
D03*
Y330200D02*
D03*
Y355600D02*
D03*
Y381000D02*
D03*
D31*
Y406400D02*
D03*
M02*
