G04*
G04 #@! TF.GenerationSoftware,Altium Limited,Altium Designer,23.3.1 (30)*
G04*
G04 Layer_Color=16711935*
%FSLAX44Y44*%
%MOMM*%
G71*
G04*
G04 #@! TF.SameCoordinates,D8AE08F4-3845-44A1-9C7E-D53955B2364C*
G04*
G04*
G04 #@! TF.FilePolarity,Negative*
G04*
G01*
G75*
%ADD25R,1.7032X1.7032*%
%ADD26C,1.7032*%
%ADD27R,1.8542X1.8542*%
%ADD28C,1.8542*%
%ADD29R,1.7032X1.7032*%
%ADD30C,1.9304*%
%ADD31R,1.8796X1.8796*%
D25*
X551180Y264160D02*
D03*
X355600Y261620D02*
D03*
D26*
X525780Y264160D02*
D03*
X500380D02*
D03*
X368300Y381000D02*
D03*
Y355600D02*
D03*
Y330200D02*
D03*
X342900Y381000D02*
D03*
Y355600D02*
D03*
Y330200D02*
D03*
X355600Y287020D02*
D03*
X381000Y261620D02*
D03*
Y287020D02*
D03*
X406400Y261620D02*
D03*
Y287020D02*
D03*
D27*
X317500Y406400D02*
D03*
D28*
Y381000D02*
D03*
Y355600D02*
D03*
Y330200D02*
D03*
Y304800D02*
D03*
Y279400D02*
D03*
X292100Y406400D02*
D03*
Y381000D02*
D03*
Y355600D02*
D03*
Y330200D02*
D03*
Y304800D02*
D03*
Y279400D02*
D03*
D29*
X368300Y406400D02*
D03*
X342900D02*
D03*
D30*
X609600Y279400D02*
D03*
Y304800D02*
D03*
Y330200D02*
D03*
Y355600D02*
D03*
Y381000D02*
D03*
Y406400D02*
D03*
X584200Y279400D02*
D03*
Y304800D02*
D03*
Y330200D02*
D03*
Y355600D02*
D03*
Y381000D02*
D03*
D31*
Y406400D02*
D03*
M02*
