G04*
G04 #@! TF.GenerationSoftware,Altium Limited,Altium Designer,23.3.1 (30)*
G04*
G04 Layer_Physical_Order=1*
G04 Layer_Color=255*
%FSLAX44Y44*%
%MOMM*%
G71*
G04*
G04 #@! TF.SameCoordinates,D8AE08F4-3845-44A1-9C7E-D53955B2364C*
G04*
G04*
G04 #@! TF.FilePolarity,Positive*
G04*
G01*
G75*
%ADD13C,0.2540*%
%ADD15C,0.3048*%
%ADD16C,0.2032*%
%ADD17O,2.1000X0.6000*%
G04:AMPARAMS|DCode=18|XSize=1mm|YSize=0.9mm|CornerRadius=0.1125mm|HoleSize=0mm|Usage=FLASHONLY|Rotation=90.000|XOffset=0mm|YOffset=0mm|HoleType=Round|Shape=RoundedRectangle|*
%AMROUNDEDRECTD18*
21,1,1.0000,0.6750,0,0,90.0*
21,1,0.7750,0.9000,0,0,90.0*
1,1,0.2250,0.3375,0.3875*
1,1,0.2250,0.3375,-0.3875*
1,1,0.2250,-0.3375,-0.3875*
1,1,0.2250,-0.3375,0.3875*
%
%ADD18ROUNDEDRECTD18*%
%ADD19R,0.7500X0.9500*%
%ADD20R,0.9500X0.7500*%
%ADD32C,0.6350*%
%ADD33C,0.5080*%
%ADD34R,1.5000X1.5000*%
%ADD35C,1.5000*%
%ADD36R,1.6510X1.6510*%
%ADD37C,1.6510*%
%ADD38R,1.5000X1.5000*%
%ADD39C,1.7272*%
%ADD40R,1.6764X1.6764*%
%ADD41C,0.6096*%
D13*
X443484Y302006D02*
X530248D01*
X540916Y312674D01*
X429260Y316230D02*
X443484Y302006D01*
X441960Y329184D02*
Y372110D01*
X435102Y378968D02*
X441960Y372110D01*
X419980Y378968D02*
X435102D01*
X431292Y347980D02*
X435502Y343770D01*
X419980Y347980D02*
X431292D01*
X441960Y329184D02*
X445108Y326036D01*
X456916Y401574D02*
X475742D01*
X558421Y331422D02*
X559643Y330200D01*
X584200D01*
X536411Y331422D02*
X558421D01*
X517663Y312674D02*
X536411Y331422D01*
X567436Y312674D02*
X572008Y317246D01*
X548416Y312674D02*
X567436D01*
X456916D02*
X517663D01*
X595884Y347980D02*
Y369316D01*
X584200Y381000D02*
X595884Y369316D01*
X591820Y343916D02*
X595884Y347980D01*
X537464Y344424D02*
X562998D01*
X563506Y343916D01*
X591820D01*
X530733Y337693D02*
X537464Y344424D01*
X530733Y331851D02*
Y337693D01*
X524256Y325374D02*
X530733Y331851D01*
X456916Y325374D02*
X524256D01*
X556757Y401574D02*
X561152Y397179D01*
X548416Y401574D02*
X556757D01*
X561152Y397179D02*
X561671D01*
X565404Y393446D01*
Y374396D02*
Y393446D01*
Y374396D02*
X584200Y355600D01*
X445108Y326036D02*
X456254D01*
X456916Y325374D01*
X449416Y312674D02*
X456916D01*
X433225Y328865D02*
X449416Y312674D01*
X422585Y328865D02*
X433225D01*
X419980Y331470D02*
X422585Y328865D01*
X419980Y316230D02*
X429260D01*
X540916Y312674D02*
X548416D01*
X331343Y318643D02*
X342900Y330200D01*
X292100D02*
X303657Y318643D01*
X331343D01*
X524002Y278130D02*
X525780Y276352D01*
Y264160D02*
Y276352D01*
X432562Y393700D02*
X439928Y401066D01*
X455894Y417032D01*
X436626Y401066D02*
X439928D01*
X434427Y415885D02*
X437642Y419100D01*
X431212Y412670D02*
X434427Y415885D01*
X419980Y424180D02*
X436092D01*
X438505Y426593D02*
X440918Y429006D01*
X436092Y424180D02*
X438505Y426593D01*
X436600Y428498D02*
X438505Y426593D01*
X438196Y419100D02*
X443022Y423926D01*
X572624D01*
X419980Y408940D02*
Y409440D01*
X437642Y419100D02*
X438196D01*
X357124Y263144D02*
X439166D01*
X356870Y316230D02*
X402980D01*
X342900Y330200D02*
X356870Y316230D01*
X304165Y393065D02*
X323651D01*
X329208Y387508D01*
X292100Y381000D02*
X304165Y393065D01*
X339921Y381000D02*
X342900D01*
X333413Y387508D02*
X339921Y381000D01*
X329208Y387508D02*
X333413D01*
X330200Y393700D02*
X355600D01*
X368300Y406400D01*
X317500D02*
X330200Y393700D01*
X368300Y406400D02*
X370840Y408940D01*
X402980D01*
X342900Y381000D02*
X344805Y382905D01*
X354210D01*
X402153Y392873D02*
X402980Y393700D01*
X354210Y382905D02*
X364178Y392873D01*
X402153D01*
X293751Y408051D02*
Y418465D01*
X298704Y423418D01*
X292100Y406400D02*
X293751Y408051D01*
X298704Y423418D02*
X337820D01*
X342900Y418338D01*
Y406400D02*
Y418338D01*
X429006Y363220D02*
X435756Y356470D01*
X419980Y363220D02*
X429006D01*
X439166Y263144D02*
X452900D01*
X355600Y261620D02*
X357124Y263144D01*
X572008Y394208D02*
X594160D01*
X455894Y417032D02*
X549184D01*
X572008Y394208D01*
X594160D02*
X594224Y394272D01*
X596328D02*
X609600Y381000D01*
X594224Y394272D02*
X596328D01*
X572624Y423926D02*
X577088Y419462D01*
X419980Y393700D02*
X432562D01*
X586994Y429006D02*
X609600Y406400D01*
X577088Y413512D02*
X584200Y406400D01*
X577088Y413512D02*
Y419462D01*
X440918Y429006D02*
X586994D01*
X423210Y412670D02*
X431212D01*
X419980Y409440D02*
X423210Y412670D01*
X596646Y317246D02*
X609600Y330200D01*
X572008Y317246D02*
X596646D01*
X389890Y330200D02*
X392430Y332740D01*
X402980D01*
X368300Y330200D02*
X389890D01*
X342900Y406400D02*
X360680Y424180D01*
X402980D01*
X388874Y363220D02*
X402980D01*
X381254Y355600D02*
X388874Y363220D01*
X368300Y355600D02*
X381254D01*
D15*
X564134Y280162D02*
X566166Y278130D01*
X564134Y280162D02*
Y305562D01*
X472694Y281178D02*
X475742Y278130D01*
X472694Y281178D02*
Y295910D01*
X470258Y332232D02*
X471678D01*
X456916Y338074D02*
X464416D01*
X470258Y332232D01*
X469900Y263144D02*
Y278130D01*
X444246Y384048D02*
X449072Y388874D01*
X456916D01*
X562610Y338074D02*
X564388Y336296D01*
X548416Y338074D02*
X562610D01*
X561290Y320040D02*
X563880D01*
X555956Y325374D02*
X561290Y320040D01*
X548416Y325374D02*
X555956D01*
D16*
X556690Y302995D02*
X556768Y302917D01*
Y292354D02*
Y302917D01*
X551942Y287528D02*
X556768Y292354D01*
X504952Y287528D02*
X551942D01*
X475488Y346710D02*
X478790Y343408D01*
X475488Y346710D02*
Y386842D01*
X437214Y387684D02*
X445008Y395478D01*
X525272D01*
X386334Y370586D02*
X386842Y370078D01*
X525272Y395478D02*
X531876Y388874D01*
X548416D01*
X413084Y387684D02*
X437214D01*
X411480Y386080D02*
X413084Y387684D01*
X411480Y373968D02*
Y386080D01*
X408098Y370586D02*
X411480Y373968D01*
X386334Y370586D02*
X408098D01*
X325506Y287020D02*
X355600D01*
X322077Y290449D02*
X325506Y287020D01*
X274574Y264414D02*
X277368Y261620D01*
X355600D01*
X266176Y403590D02*
X271002D01*
X264414Y401828D02*
X266176Y403590D01*
X271002D02*
X271780Y404368D01*
X264414Y320548D02*
Y401828D01*
X268732Y418846D02*
X278892Y408686D01*
X267970Y418846D02*
X268732D01*
X264414Y320548D02*
X268732Y316230D01*
X260350Y301836D02*
Y406014D01*
X260141Y406223D02*
X260350Y406014D01*
X265430Y295656D02*
Y296756D01*
X260350Y301836D02*
X265430Y296756D01*
X273050Y320174D02*
Y368808D01*
X278892Y294052D02*
X282495Y290449D01*
X278892Y294052D02*
Y408686D01*
X273050Y320174D02*
X274574Y318650D01*
Y264414D02*
Y318650D01*
X339090Y303784D02*
X389636D01*
X406400Y287020D01*
X282495Y290449D02*
X322077D01*
X337312Y294386D02*
X340240Y297314D01*
X370706D01*
X381000Y287020D01*
X321310Y330200D02*
Y331463D01*
X357632Y340868D02*
X368300Y330200D01*
X334010Y340868D02*
X357632D01*
X330061Y336919D02*
X334010Y340868D01*
X386454Y345052D02*
X388112Y346710D01*
X342900Y355600D02*
X353448Y345052D01*
X386454D01*
X321310Y331463D02*
X326766Y336919D01*
X330061D01*
X317500Y330200D02*
X321310D01*
X292100Y355600D02*
X303276Y344424D01*
X331724D02*
X342900Y355600D01*
X303276Y344424D02*
X331724D01*
X388112Y346710D02*
X402980D01*
X317500Y355600D02*
X317500D01*
X328048Y366148D02*
X357752D01*
X317500Y355600D02*
X328048Y366148D01*
X357752D02*
X368300Y355600D01*
X357752Y370452D02*
X368300Y381000D01*
X317500D02*
X328048Y370452D01*
X357752D01*
X402218Y381000D02*
X402980Y380238D01*
X368300Y381000D02*
X402218D01*
D17*
X456916Y401574D02*
D03*
Y388874D02*
D03*
Y376174D02*
D03*
Y363474D02*
D03*
Y350774D02*
D03*
Y338074D02*
D03*
Y325374D02*
D03*
Y312674D02*
D03*
X548416Y401574D02*
D03*
Y388874D02*
D03*
Y376174D02*
D03*
Y363474D02*
D03*
Y350774D02*
D03*
Y338074D02*
D03*
Y325374D02*
D03*
Y312674D02*
D03*
D18*
X419980Y425958D02*
D03*
X402980D02*
D03*
X419980Y410718D02*
D03*
X402980D02*
D03*
X419980Y316230D02*
D03*
X402980D02*
D03*
X419980Y331470D02*
D03*
X402980D02*
D03*
X419980Y346710D02*
D03*
X402980D02*
D03*
X419980Y361950D02*
D03*
X402980D02*
D03*
X419980Y395478D02*
D03*
X402980D02*
D03*
X419980Y378968D02*
D03*
X402980D02*
D03*
X469900Y263144D02*
D03*
X452900D02*
D03*
D19*
X613268Y429260D02*
D03*
X627268D02*
D03*
D20*
X429768Y288798D02*
D03*
Y274798D02*
D03*
D32*
X566166Y278130D02*
X582930D01*
X524002D02*
X566166D01*
X475742D02*
X524002D01*
X469900D02*
X475742D01*
X429768Y298450D02*
X430022Y298704D01*
X429768Y288798D02*
Y298450D01*
X442214Y278130D02*
X469900D01*
X429846Y274876D02*
X438960D01*
X442214Y278130D01*
X429768Y274798D02*
X429846Y274876D01*
X582930Y278130D02*
X584200Y279400D01*
X609600D01*
X631190Y417068D02*
Y420370D01*
X627843Y420415D02*
X631190Y417068D01*
X339852Y275336D02*
X348595D01*
X335788Y279400D02*
X339852Y275336D01*
X292100Y279400D02*
X317500D01*
X335788D01*
X292100Y304800D02*
X317500D01*
X336411Y312420D02*
X346456D01*
X317500Y304800D02*
X319444Y306744D01*
X330735D01*
X336411Y312420D01*
X602488Y429260D02*
X613268D01*
X631190Y379730D02*
Y417068D01*
X627843Y420415D02*
Y428685D01*
X627268Y429260D02*
X627843Y428685D01*
X609600Y279400D02*
X627724D01*
X631444Y283120D02*
Y379476D01*
X631190Y379730D02*
X631444Y379476D01*
X627724Y279400D02*
X631444Y283120D01*
D33*
X426332Y274440D02*
X426974Y275082D01*
X350389Y274440D02*
X426332D01*
X349493Y275336D02*
X350389Y274440D01*
X348595Y275336D02*
X349493D01*
D34*
X551180Y264160D02*
D03*
X355600Y261620D02*
D03*
D35*
X525780Y264160D02*
D03*
X500380D02*
D03*
X368300Y381000D02*
D03*
Y355600D02*
D03*
Y330200D02*
D03*
X342900Y381000D02*
D03*
Y355600D02*
D03*
Y330200D02*
D03*
X355600Y287020D02*
D03*
X381000Y261620D02*
D03*
Y287020D02*
D03*
X406400Y261620D02*
D03*
Y287020D02*
D03*
D36*
X317500Y406400D02*
D03*
D37*
Y381000D02*
D03*
Y355600D02*
D03*
Y330200D02*
D03*
Y304800D02*
D03*
Y279400D02*
D03*
X292100Y406400D02*
D03*
Y381000D02*
D03*
Y355600D02*
D03*
Y330200D02*
D03*
Y304800D02*
D03*
Y279400D02*
D03*
D38*
X368300Y406400D02*
D03*
X342900D02*
D03*
D39*
X609600Y279400D02*
D03*
Y304800D02*
D03*
Y330200D02*
D03*
Y355600D02*
D03*
Y381000D02*
D03*
Y406400D02*
D03*
X584200Y279400D02*
D03*
Y304800D02*
D03*
Y330200D02*
D03*
Y355600D02*
D03*
Y381000D02*
D03*
D40*
Y406400D02*
D03*
D41*
X556690Y302995D02*
D03*
X504952Y287528D02*
D03*
X564134Y305562D02*
D03*
X472694Y295910D02*
D03*
X471678Y332232D02*
D03*
X430022Y298704D02*
D03*
X444246Y384048D02*
D03*
X478790Y343408D02*
D03*
X435502Y343770D02*
D03*
X475488Y386842D02*
D03*
X475742Y401574D02*
D03*
X564388Y336296D02*
D03*
X563880Y320040D02*
D03*
X346456Y312420D02*
D03*
X435756Y356470D02*
D03*
X271780Y404368D02*
D03*
X267970Y418846D02*
D03*
X260141Y406223D02*
D03*
X436626Y401066D02*
D03*
X434427Y415885D02*
D03*
X436600Y428498D02*
D03*
X273050Y368808D02*
D03*
X268732Y316230D02*
D03*
X339090Y303784D02*
D03*
X265430Y295656D02*
D03*
X337312Y294386D02*
D03*
X386334Y370586D02*
D03*
X439166Y263144D02*
D03*
X602488Y429260D02*
D03*
X630174Y419354D02*
D03*
M02*
