G04*
G04 #@! TF.GenerationSoftware,Altium Limited,Altium Designer,23.3.1 (30)*
G04*
G04 Layer_Physical_Order=2*
G04 Layer_Color=16711680*
%FSLAX44Y44*%
%MOMM*%
G71*
G04*
G04 #@! TF.SameCoordinates,227133D6-10B2-4A23-B006-C6EDEEC3DFA4*
G04*
G04*
G04 #@! TF.FilePolarity,Positive*
G04*
G01*
G75*
%ADD12C,0.2540*%
%ADD16C,0.2032*%
%ADD34C,0.6350*%
%ADD37R,1.5000X1.5000*%
%ADD38C,1.5000*%
%ADD39R,1.6510X1.6510*%
%ADD40C,1.6510*%
%ADD41R,1.5000X1.5000*%
%ADD42C,1.7272*%
%ADD43R,1.6764X1.6764*%
%ADD44C,0.6096*%
G36*
X707316Y252805D02*
X412227D01*
X411887Y254074D01*
X412097Y254196D01*
X413824Y255923D01*
X415046Y258039D01*
X415678Y260399D01*
Y262841D01*
X415046Y265201D01*
X413824Y267317D01*
X412097Y269044D01*
X409981Y270266D01*
X407621Y270898D01*
X405178D01*
X402819Y270266D01*
X400703Y269044D01*
X398976Y267317D01*
X397754Y265201D01*
X397122Y262841D01*
Y260399D01*
X397754Y258039D01*
X398976Y255923D01*
X400703Y254196D01*
X400913Y254074D01*
X400573Y252805D01*
X386827D01*
X386487Y254074D01*
X386697Y254196D01*
X388424Y255923D01*
X389646Y258039D01*
X390278Y260399D01*
Y262841D01*
X389646Y265201D01*
X388424Y267317D01*
X386697Y269044D01*
X384581Y270266D01*
X382221Y270898D01*
X379779D01*
X377419Y270266D01*
X375303Y269044D01*
X373576Y267317D01*
X372354Y265201D01*
X371722Y262841D01*
Y260399D01*
X372354Y258039D01*
X373576Y255923D01*
X375303Y254196D01*
X375513Y254074D01*
X375173Y252805D01*
X364878D01*
Y270898D01*
X346322D01*
Y252805D01*
X257885D01*
Y400791D01*
X258941Y401496D01*
X259181Y401397D01*
X261101D01*
X262875Y402132D01*
X264232Y403489D01*
X264967Y405263D01*
Y407183D01*
X264232Y408956D01*
X263199Y409990D01*
Y414996D01*
X264469Y415522D01*
X265236Y414755D01*
X267010Y414020D01*
X268930D01*
X270704Y414755D01*
X272061Y416112D01*
X272796Y417886D01*
Y419643D01*
X274230Y421077D01*
X278114D01*
X278600Y419904D01*
X269701Y411004D01*
X269083Y410080D01*
X268866Y408990D01*
X268866Y408990D01*
Y408279D01*
X267689Y407102D01*
X266954Y405328D01*
Y403408D01*
X267689Y401634D01*
X269046Y400277D01*
X270820Y399542D01*
X272740D01*
X274514Y400277D01*
X275871Y401634D01*
X276606Y403408D01*
Y405328D01*
X275871Y407102D01*
X274863Y408110D01*
X283767Y417013D01*
X288038D01*
X288227Y415749D01*
X285940Y414428D01*
X284072Y412560D01*
X282751Y410273D01*
X282067Y407721D01*
Y405079D01*
X282751Y402527D01*
X284072Y400240D01*
X285940Y398372D01*
X288227Y397051D01*
X290779Y396367D01*
X293421D01*
X295973Y397051D01*
X298260Y398372D01*
X300128Y400240D01*
X301449Y402527D01*
X302133Y405079D01*
Y407721D01*
X301449Y410273D01*
X300128Y412560D01*
X298260Y414428D01*
X295973Y415749D01*
X296162Y417013D01*
X306437D01*
X307467Y416433D01*
X307467Y415743D01*
Y396367D01*
X327533D01*
Y415743D01*
X327533Y416433D01*
X328563Y417013D01*
X406236D01*
X424198Y399052D01*
X425122Y398434D01*
X426212Y398217D01*
X426212Y398217D01*
X432650D01*
X433892Y396975D01*
X435666Y396240D01*
X437586D01*
X439360Y396975D01*
X440717Y398332D01*
X441452Y400106D01*
Y402026D01*
X440717Y403800D01*
X439360Y405157D01*
X437586Y405892D01*
X435666D01*
X433892Y405157D01*
X432650Y403915D01*
X427392D01*
X411403Y419904D01*
X411889Y421077D01*
X425206D01*
X429601Y416682D01*
Y414925D01*
X430336Y413151D01*
X431693Y411794D01*
X433467Y411059D01*
X435387D01*
X437161Y411794D01*
X438518Y413151D01*
X439253Y414925D01*
Y416845D01*
X438518Y418619D01*
X437161Y419976D01*
X435387Y420711D01*
X433630D01*
X429865Y424476D01*
X430351Y425649D01*
X432623D01*
X433866Y424407D01*
X435640Y423672D01*
X437560D01*
X439333Y424407D01*
X440691Y425764D01*
X441426Y427538D01*
Y429458D01*
X440691Y431232D01*
X440197Y431726D01*
X440723Y432995D01*
X707316D01*
Y252805D01*
D02*
G37*
%LPC*%
G36*
X627380Y427198D02*
X625447Y426814D01*
X623809Y425719D01*
X622714Y424081D01*
X622330Y422148D01*
X622714Y420215D01*
X623809Y418577D01*
X626603Y415783D01*
X628241Y414688D01*
X630174Y414304D01*
X632107Y414688D01*
X633745Y415783D01*
X634840Y417421D01*
X635224Y419354D01*
X634840Y421287D01*
X633745Y422925D01*
X630951Y425719D01*
X629313Y426814D01*
X627380Y427198D01*
D02*
G37*
G36*
X377578Y415678D02*
X359022D01*
Y397122D01*
X377578D01*
Y415678D01*
D02*
G37*
G36*
X352178D02*
X333622D01*
Y397122D01*
X352178D01*
Y415678D01*
D02*
G37*
G36*
X594360Y416560D02*
X574040D01*
Y396240D01*
X594360D01*
Y416560D01*
D02*
G37*
G36*
X610971Y416814D02*
X608229D01*
X605580Y416104D01*
X603206Y414733D01*
X601267Y412794D01*
X599896Y410420D01*
X599186Y407771D01*
Y405029D01*
X599896Y402380D01*
X601267Y400006D01*
X603206Y398067D01*
X605580Y396696D01*
X608229Y395986D01*
X610971D01*
X613620Y396696D01*
X615994Y398067D01*
X617933Y400006D01*
X619304Y402380D01*
X620014Y405029D01*
Y407771D01*
X619304Y410420D01*
X617933Y412794D01*
X615994Y414733D01*
X613620Y416104D01*
X610971Y416814D01*
D02*
G37*
G36*
X318821Y391033D02*
X316179D01*
X313627Y390349D01*
X311340Y389028D01*
X309472Y387160D01*
X308151Y384873D01*
X307467Y382321D01*
Y379679D01*
X308151Y377127D01*
X309472Y374840D01*
X311340Y372972D01*
X311857Y372673D01*
X311517Y371403D01*
X298083D01*
X297743Y372673D01*
X298260Y372972D01*
X300128Y374840D01*
X301449Y377127D01*
X302133Y379679D01*
Y382321D01*
X301449Y384873D01*
X300128Y387160D01*
X298260Y389028D01*
X295973Y390349D01*
X293421Y391033D01*
X290779D01*
X288227Y390349D01*
X285940Y389028D01*
X284072Y387160D01*
X282751Y384873D01*
X282067Y382321D01*
Y379679D01*
X282751Y377127D01*
X284072Y374840D01*
X285940Y372972D01*
X286457Y372673D01*
X286117Y371403D01*
X277199D01*
X277141Y371542D01*
X275784Y372899D01*
X274010Y373634D01*
X272090D01*
X270316Y372899D01*
X268959Y371542D01*
X268224Y369768D01*
Y367848D01*
X268959Y366074D01*
X270316Y364717D01*
X272090Y363982D01*
X274010D01*
X275784Y364717D01*
X276772Y365705D01*
X286997D01*
X287337Y364435D01*
X285940Y363628D01*
X284072Y361760D01*
X282751Y359473D01*
X282067Y356921D01*
Y354279D01*
X282751Y351727D01*
X284072Y349440D01*
X285940Y347572D01*
X288227Y346251D01*
X290779Y345567D01*
X293421D01*
X295973Y346251D01*
X298260Y347572D01*
X300128Y349440D01*
X301449Y351727D01*
X302133Y354279D01*
Y356921D01*
X301449Y359473D01*
X300128Y361760D01*
X298260Y363628D01*
X296863Y364435D01*
X297203Y365705D01*
X312397D01*
X312737Y364435D01*
X311340Y363628D01*
X309472Y361760D01*
X308151Y359473D01*
X307467Y356921D01*
Y354279D01*
X308151Y351727D01*
X309472Y349440D01*
X311340Y347572D01*
X313627Y346251D01*
X316179Y345567D01*
X318821D01*
X321373Y346251D01*
X323660Y347572D01*
X325528Y349440D01*
X326849Y351727D01*
X327533Y354279D01*
Y356921D01*
X326849Y359473D01*
X325528Y361760D01*
X323660Y363628D01*
X322263Y364435D01*
X322603Y365705D01*
X339859D01*
X340026Y364435D01*
X339319Y364246D01*
X337203Y363024D01*
X335476Y361297D01*
X334254Y359181D01*
X333622Y356822D01*
Y354379D01*
X334254Y352019D01*
X335476Y349903D01*
X337203Y348176D01*
X339319Y346954D01*
X341679Y346322D01*
X344122D01*
X346481Y346954D01*
X348597Y348176D01*
X350324Y349903D01*
X351546Y352019D01*
X352178Y354379D01*
Y356822D01*
X351546Y359181D01*
X350324Y361297D01*
X348597Y363024D01*
X346481Y364246D01*
X345774Y364435D01*
X345941Y365705D01*
X365259D01*
X365426Y364435D01*
X364719Y364246D01*
X362603Y363024D01*
X360876Y361297D01*
X359654Y359181D01*
X359022Y356822D01*
Y354379D01*
X359654Y352019D01*
X360876Y349903D01*
X362603Y348176D01*
X364719Y346954D01*
X367079Y346322D01*
X369521D01*
X371881Y346954D01*
X373997Y348176D01*
X375724Y349903D01*
X376946Y352019D01*
X377578Y354379D01*
Y356822D01*
X376946Y359181D01*
X375724Y361297D01*
X373997Y363024D01*
X371881Y364246D01*
X371174Y364435D01*
X371341Y365705D01*
X376682D01*
X376682Y365705D01*
X377772Y365922D01*
X378696Y366540D01*
X379894Y367737D01*
X382358D01*
X383600Y366495D01*
X385374Y365760D01*
X387294D01*
X389068Y366495D01*
X390425Y367852D01*
X391160Y369626D01*
Y371546D01*
X390425Y373320D01*
X389068Y374677D01*
X387294Y375412D01*
X385374D01*
X383600Y374677D01*
X382358Y373435D01*
X378714D01*
X378714Y373435D01*
X377624Y373218D01*
X376700Y372600D01*
X375502Y371403D01*
X372773D01*
X372433Y372673D01*
X373997Y373576D01*
X375724Y375303D01*
X376946Y377419D01*
X377578Y379779D01*
Y382221D01*
X376946Y384581D01*
X375724Y386697D01*
X373997Y388424D01*
X371881Y389646D01*
X369521Y390278D01*
X367079D01*
X364719Y389646D01*
X362603Y388424D01*
X360876Y386697D01*
X359654Y384581D01*
X359022Y382221D01*
Y379779D01*
X359654Y377419D01*
X360876Y375303D01*
X362603Y373576D01*
X364167Y372673D01*
X363827Y371403D01*
X347373D01*
X347033Y372673D01*
X348597Y373576D01*
X350324Y375303D01*
X351546Y377419D01*
X352178Y379779D01*
Y382221D01*
X351546Y384581D01*
X350324Y386697D01*
X348597Y388424D01*
X346481Y389646D01*
X344122Y390278D01*
X341679D01*
X339319Y389646D01*
X337203Y388424D01*
X335476Y386697D01*
X334254Y384581D01*
X333622Y382221D01*
Y379779D01*
X334254Y377419D01*
X335476Y375303D01*
X337203Y373576D01*
X338767Y372673D01*
X338427Y371403D01*
X323483D01*
X323143Y372673D01*
X323660Y372972D01*
X325528Y374840D01*
X326849Y377127D01*
X327533Y379679D01*
Y382321D01*
X326849Y384873D01*
X325528Y387160D01*
X323660Y389028D01*
X321373Y390349D01*
X318821Y391033D01*
D02*
G37*
G36*
X610971Y391414D02*
X608229D01*
X605580Y390704D01*
X603206Y389333D01*
X601267Y387394D01*
X599896Y385020D01*
X599186Y382371D01*
Y379629D01*
X599896Y376980D01*
X601267Y374606D01*
X603206Y372667D01*
X605580Y371296D01*
X608229Y370586D01*
X610971D01*
X613620Y371296D01*
X615994Y372667D01*
X617933Y374606D01*
X619304Y376980D01*
X620014Y379629D01*
Y382371D01*
X619304Y385020D01*
X617933Y387394D01*
X615994Y389333D01*
X613620Y390704D01*
X610971Y391414D01*
D02*
G37*
G36*
X585571D02*
X582829D01*
X580180Y390704D01*
X577806Y389333D01*
X575867Y387394D01*
X574496Y385020D01*
X573786Y382371D01*
Y379629D01*
X574496Y376980D01*
X575867Y374606D01*
X577806Y372667D01*
X580180Y371296D01*
X582829Y370586D01*
X585571D01*
X588220Y371296D01*
X590594Y372667D01*
X592533Y374606D01*
X593904Y376980D01*
X594614Y379629D01*
Y382371D01*
X593904Y385020D01*
X592533Y387394D01*
X590594Y389333D01*
X588220Y390704D01*
X585571Y391414D01*
D02*
G37*
G36*
X559054Y399512D02*
X557121Y399128D01*
X555483Y398033D01*
X554388Y396395D01*
X554004Y394462D01*
X554388Y392529D01*
X555483Y390891D01*
X562132Y384242D01*
Y369170D01*
X562516Y367237D01*
X563611Y365599D01*
X565249Y364504D01*
X567182Y364120D01*
X569115Y364504D01*
X570753Y365599D01*
X571848Y367237D01*
X572232Y369170D01*
Y386334D01*
X571848Y388267D01*
X570753Y389905D01*
X562625Y398033D01*
X560987Y399128D01*
X559054Y399512D01*
D02*
G37*
G36*
X610971Y366014D02*
X608229D01*
X605580Y365304D01*
X603206Y363933D01*
X601267Y361994D01*
X599896Y359620D01*
X599186Y356971D01*
Y354229D01*
X599896Y351580D01*
X600368Y350763D01*
X596483Y346878D01*
X592001D01*
X591475Y348148D01*
X592533Y349206D01*
X593904Y351580D01*
X594614Y354229D01*
Y356971D01*
X593904Y359620D01*
X592533Y361994D01*
X590594Y363933D01*
X588220Y365304D01*
X585571Y366014D01*
X582829D01*
X580180Y365304D01*
X577806Y363933D01*
X575867Y361994D01*
X574496Y359620D01*
X574368Y359143D01*
X439873D01*
X439847Y359204D01*
X438490Y360561D01*
X436716Y361296D01*
X434796D01*
X433022Y360561D01*
X431665Y359204D01*
X430930Y357430D01*
Y355510D01*
X431665Y353736D01*
X433022Y352379D01*
X434796Y351644D01*
X436716D01*
X438490Y352379D01*
X439038Y352927D01*
X574135D01*
X574496Y351580D01*
X575867Y349206D01*
X576925Y348148D01*
X576399Y346878D01*
X439219D01*
X438236Y347861D01*
X436462Y348596D01*
X434542D01*
X432768Y347861D01*
X431411Y346504D01*
X430676Y344730D01*
Y342810D01*
X431411Y341036D01*
X432768Y339679D01*
X434542Y338944D01*
X436462D01*
X438236Y339679D01*
X439219Y340662D01*
X578953D01*
X579294Y339392D01*
X577806Y338533D01*
X575867Y336594D01*
X574496Y334220D01*
X573786Y331571D01*
Y328829D01*
X574496Y326180D01*
X575867Y323806D01*
X577806Y321867D01*
X580180Y320496D01*
X582829Y319786D01*
X585571D01*
X588220Y320496D01*
X590594Y321867D01*
X592533Y323806D01*
X593904Y326180D01*
X594614Y328829D01*
Y331571D01*
X593904Y334220D01*
X592533Y336594D01*
X590594Y338533D01*
X589106Y339392D01*
X589447Y340662D01*
X597770D01*
X598959Y340899D01*
X599967Y341572D01*
X604763Y346368D01*
X605580Y345896D01*
X608229Y345186D01*
X610971D01*
X613620Y345896D01*
X615994Y347267D01*
X617933Y349206D01*
X619304Y351580D01*
X620014Y354229D01*
Y356971D01*
X619304Y359620D01*
X617933Y361994D01*
X615994Y363933D01*
X613620Y365304D01*
X610971Y366014D01*
D02*
G37*
G36*
X369521Y339478D02*
X367079D01*
X364719Y338846D01*
X362603Y337624D01*
X360876Y335897D01*
X359654Y333781D01*
X359022Y331422D01*
Y328979D01*
X359654Y326619D01*
X360876Y324503D01*
X362603Y322776D01*
X364719Y321554D01*
X367079Y320922D01*
X369521D01*
X371881Y321554D01*
X373997Y322776D01*
X375724Y324503D01*
X376946Y326619D01*
X377578Y328979D01*
Y331422D01*
X376946Y333781D01*
X375724Y335897D01*
X373997Y337624D01*
X371881Y338846D01*
X369521Y339478D01*
D02*
G37*
G36*
X344122D02*
X341679D01*
X339319Y338846D01*
X337203Y337624D01*
X335476Y335897D01*
X334254Y333781D01*
X333622Y331422D01*
Y328979D01*
X334254Y326619D01*
X335476Y324503D01*
X337203Y322776D01*
X339319Y321554D01*
X341679Y320922D01*
X344122D01*
X346481Y321554D01*
X348597Y322776D01*
X350324Y324503D01*
X351546Y326619D01*
X352178Y328979D01*
Y331422D01*
X351546Y333781D01*
X350324Y335897D01*
X348597Y337624D01*
X346481Y338846D01*
X344122Y339478D01*
D02*
G37*
G36*
X610971Y340614D02*
X608229D01*
X605580Y339904D01*
X603206Y338533D01*
X601267Y336594D01*
X599896Y334220D01*
X599186Y331571D01*
Y328829D01*
X599896Y326180D01*
X601267Y323806D01*
X603206Y321867D01*
X605580Y320496D01*
X608229Y319786D01*
X610971D01*
X613620Y320496D01*
X615994Y321867D01*
X617933Y323806D01*
X619304Y326180D01*
X620014Y328829D01*
Y331571D01*
X619304Y334220D01*
X617933Y336594D01*
X615994Y338533D01*
X613620Y339904D01*
X610971Y340614D01*
D02*
G37*
G36*
X483799Y331148D02*
X481401D01*
X479185Y330230D01*
X477490Y328535D01*
X476572Y326319D01*
Y323921D01*
X477490Y321705D01*
X479185Y320010D01*
X481401Y319092D01*
X483799D01*
X486015Y320010D01*
X487710Y321705D01*
X488628Y323921D01*
Y326319D01*
X487710Y328535D01*
X486015Y330230D01*
X483799Y331148D01*
D02*
G37*
G36*
X318821Y340233D02*
X316179D01*
X313627Y339549D01*
X311340Y338228D01*
X309472Y336360D01*
X308151Y334073D01*
X307467Y331521D01*
Y328879D01*
X308151Y326327D01*
X309472Y324040D01*
X311340Y322172D01*
X313627Y320851D01*
X315501Y320349D01*
X315334Y319079D01*
X294266D01*
X294099Y320349D01*
X295973Y320851D01*
X298260Y322172D01*
X300128Y324040D01*
X301449Y326327D01*
X302133Y328879D01*
Y331521D01*
X301449Y334073D01*
X300128Y336360D01*
X298260Y338228D01*
X295973Y339549D01*
X293421Y340233D01*
X290779D01*
X288227Y339549D01*
X285940Y338228D01*
X284072Y336360D01*
X282751Y334073D01*
X282067Y331521D01*
Y328879D01*
X282751Y326327D01*
X284072Y324040D01*
X285940Y322172D01*
X288227Y320851D01*
X290101Y320349D01*
X289934Y319079D01*
X272708D01*
X271466Y320321D01*
X269692Y321056D01*
X267772D01*
X265998Y320321D01*
X264641Y318964D01*
X263906Y317190D01*
Y315270D01*
X264641Y313496D01*
X265998Y312139D01*
X267772Y311404D01*
X269692D01*
X271466Y312139D01*
X272708Y313381D01*
X283755D01*
X284242Y312208D01*
X283462Y311428D01*
X282041Y308967D01*
X281305Y306221D01*
Y306070D01*
X292100D01*
Y303530D01*
X281305D01*
Y303379D01*
X282041Y300633D01*
X283462Y298172D01*
X283860Y297773D01*
X283375Y296600D01*
X270256D01*
Y296616D01*
X269521Y298390D01*
X268164Y299747D01*
X266390Y300482D01*
X264470D01*
X262696Y299747D01*
X261339Y298390D01*
X260604Y296616D01*
Y294696D01*
X261339Y292922D01*
X262696Y291565D01*
X264470Y290830D01*
X266390D01*
X266814Y291006D01*
X267335Y290902D01*
X267335Y290902D01*
X333971D01*
X334578Y290295D01*
X336352Y289560D01*
X338272D01*
X340046Y290295D01*
X341403Y291652D01*
X342138Y293426D01*
Y295346D01*
X341403Y297120D01*
X340679Y297844D01*
X340977Y299342D01*
X341824Y299693D01*
X343181Y301050D01*
X343916Y302824D01*
Y304744D01*
X343181Y306518D01*
X341824Y307875D01*
X340050Y308610D01*
X338293D01*
X328658Y318244D01*
X327734Y318862D01*
X326644Y319079D01*
X326644Y319079D01*
X319666D01*
X319499Y320349D01*
X321373Y320851D01*
X323660Y322172D01*
X325528Y324040D01*
X326849Y326327D01*
X327533Y328879D01*
Y331521D01*
X326849Y334073D01*
X325528Y336360D01*
X323660Y338228D01*
X321373Y339549D01*
X318821Y340233D01*
D02*
G37*
G36*
X523525Y332148D02*
X521675D01*
X519887Y331669D01*
X518285Y330744D01*
X516976Y329435D01*
X516051Y327833D01*
X515572Y326045D01*
Y324195D01*
X516051Y322407D01*
X516976Y320805D01*
X518285Y319496D01*
X519887Y318571D01*
X521675Y318092D01*
X523525D01*
X525313Y318571D01*
X526915Y319496D01*
X528224Y320805D01*
X529149Y322407D01*
X529628Y324195D01*
Y326045D01*
X529149Y327833D01*
X528224Y329435D01*
X526915Y330744D01*
X525313Y331669D01*
X523525Y332148D01*
D02*
G37*
G36*
X611071Y315976D02*
X610870D01*
Y306070D01*
X620776D01*
Y306271D01*
X620014Y309114D01*
X618543Y311662D01*
X616462Y313743D01*
X613914Y315214D01*
X611071Y315976D01*
D02*
G37*
G36*
X608330D02*
X608129D01*
X605286Y315214D01*
X602738Y313743D01*
X600657Y311662D01*
X599186Y309114D01*
X598424Y306271D01*
Y306070D01*
X608330D01*
Y315976D01*
D02*
G37*
G36*
X585671D02*
X585470D01*
Y306070D01*
X595376D01*
Y306271D01*
X594614Y309114D01*
X593143Y311662D01*
X591062Y313743D01*
X588514Y315214D01*
X585671Y315976D01*
D02*
G37*
G36*
X582930D02*
X582729D01*
X579886Y315214D01*
X577338Y313743D01*
X575257Y311662D01*
X573786Y309114D01*
X573024Y306271D01*
Y306070D01*
X582930D01*
Y315976D01*
D02*
G37*
G36*
X620776Y303530D02*
X610870D01*
Y293624D01*
X611071D01*
X613914Y294386D01*
X616462Y295857D01*
X618543Y297938D01*
X620014Y300486D01*
X620776Y303329D01*
Y303530D01*
D02*
G37*
G36*
X608330D02*
X598424D01*
Y303329D01*
X599186Y300486D01*
X600657Y297938D01*
X602738Y295857D01*
X605286Y294386D01*
X608129Y293624D01*
X608330D01*
Y303530D01*
D02*
G37*
G36*
X595376D02*
X585470D01*
Y293624D01*
X585671D01*
X588514Y294386D01*
X591062Y295857D01*
X593143Y297938D01*
X594614Y300486D01*
X595376Y303329D01*
Y303530D01*
D02*
G37*
G36*
X582930D02*
X573024D01*
Y303329D01*
X573786Y300486D01*
X575257Y297938D01*
X577338Y295857D01*
X579886Y294386D01*
X582729Y293624D01*
X582930D01*
Y303530D01*
D02*
G37*
G36*
X407621Y296298D02*
X405178D01*
X402819Y295666D01*
X400703Y294444D01*
X398976Y292717D01*
X397754Y290601D01*
X397122Y288242D01*
Y285798D01*
X397754Y283439D01*
X398976Y281323D01*
X400703Y279596D01*
X402819Y278374D01*
X405178Y277742D01*
X407621D01*
X409981Y278374D01*
X412097Y279596D01*
X413824Y281323D01*
X415046Y283439D01*
X415678Y285798D01*
Y288242D01*
X415046Y290601D01*
X413824Y292717D01*
X412097Y294444D01*
X409981Y295666D01*
X407621Y296298D01*
D02*
G37*
G36*
X382221D02*
X379779D01*
X377419Y295666D01*
X375303Y294444D01*
X373576Y292717D01*
X372354Y290601D01*
X371722Y288242D01*
Y285798D01*
X372354Y283439D01*
X373576Y281323D01*
X375303Y279596D01*
X377419Y278374D01*
X379779Y277742D01*
X382221D01*
X384581Y278374D01*
X386697Y279596D01*
X388424Y281323D01*
X389646Y283439D01*
X390278Y285798D01*
Y288242D01*
X389646Y290601D01*
X388424Y292717D01*
X386697Y294444D01*
X384581Y295666D01*
X382221Y296298D01*
D02*
G37*
G36*
X356822D02*
X354379D01*
X352019Y295666D01*
X349903Y294444D01*
X348176Y292717D01*
X346954Y290601D01*
X346322Y288242D01*
Y285798D01*
X346954Y283439D01*
X348176Y281323D01*
X349903Y279596D01*
X352019Y278374D01*
X354379Y277742D01*
X356822D01*
X359181Y278374D01*
X361297Y279596D01*
X363024Y281323D01*
X364246Y283439D01*
X364878Y285798D01*
Y288242D01*
X364246Y290601D01*
X363024Y292717D01*
X361297Y294444D01*
X359181Y295666D01*
X356822Y296298D01*
D02*
G37*
G36*
X318821Y289433D02*
X316179D01*
X313627Y288749D01*
X311340Y287428D01*
X309472Y285560D01*
X308151Y283273D01*
X307467Y280721D01*
Y278079D01*
X308151Y275527D01*
X309472Y273240D01*
X311340Y271372D01*
X313627Y270051D01*
X316179Y269367D01*
X318821D01*
X321373Y270051D01*
X323660Y271372D01*
X325528Y273240D01*
X326849Y275527D01*
X327533Y278079D01*
Y280721D01*
X326849Y283273D01*
X325528Y285560D01*
X323660Y287428D01*
X321373Y288749D01*
X318821Y289433D01*
D02*
G37*
G36*
X293421D02*
X290779D01*
X288227Y288749D01*
X285940Y287428D01*
X284072Y285560D01*
X282751Y283273D01*
X282067Y280721D01*
Y278079D01*
X282751Y275527D01*
X284072Y273240D01*
X285940Y271372D01*
X288227Y270051D01*
X290779Y269367D01*
X293421D01*
X295973Y270051D01*
X298260Y271372D01*
X300128Y273240D01*
X301449Y275527D01*
X302133Y278079D01*
Y280721D01*
X301449Y283273D01*
X300128Y285560D01*
X298260Y287428D01*
X295973Y288749D01*
X293421Y289433D01*
D02*
G37*
G36*
X610971Y289814D02*
X608229D01*
X605580Y289104D01*
X603206Y287733D01*
X601267Y285794D01*
X599896Y283420D01*
X599186Y280771D01*
Y278029D01*
X599896Y275380D01*
X601267Y273006D01*
X603206Y271067D01*
X605580Y269696D01*
X608229Y268986D01*
X610971D01*
X613620Y269696D01*
X615994Y271067D01*
X617933Y273006D01*
X619304Y275380D01*
X620014Y278029D01*
Y280771D01*
X619304Y283420D01*
X617933Y285794D01*
X615994Y287733D01*
X613620Y289104D01*
X610971Y289814D01*
D02*
G37*
G36*
X585571D02*
X582829D01*
X580180Y289104D01*
X577806Y287733D01*
X575867Y285794D01*
X574496Y283420D01*
X573786Y280771D01*
Y278029D01*
X574496Y275380D01*
X575867Y273006D01*
X577806Y271067D01*
X580180Y269696D01*
X582829Y268986D01*
X585571D01*
X588220Y269696D01*
X590594Y271067D01*
X592533Y273006D01*
X593904Y275380D01*
X594614Y278029D01*
Y280771D01*
X593904Y283420D01*
X592533Y285794D01*
X590594Y287733D01*
X588220Y289104D01*
X585571Y289814D01*
D02*
G37*
G36*
X561220Y274200D02*
X552450D01*
Y265430D01*
X561220D01*
Y274200D01*
D02*
G37*
G36*
X549910D02*
X541140D01*
Y265430D01*
X549910D01*
Y274200D01*
D02*
G37*
G36*
X440126Y267970D02*
X438206D01*
X436432Y267235D01*
X435075Y265878D01*
X434340Y264104D01*
Y262184D01*
X435075Y260410D01*
X436432Y259053D01*
X438206Y258318D01*
X440126D01*
X441900Y259053D01*
X443257Y260410D01*
X443992Y262184D01*
Y264104D01*
X443257Y265878D01*
X441900Y267235D01*
X440126Y267970D01*
D02*
G37*
G36*
X527001Y273438D02*
X524558D01*
X522199Y272806D01*
X520083Y271584D01*
X518356Y269857D01*
X517134Y267741D01*
X516502Y265382D01*
Y262938D01*
X517134Y260579D01*
X518356Y258463D01*
X520083Y256736D01*
X522199Y255514D01*
X524558Y254882D01*
X527001D01*
X529361Y255514D01*
X531477Y256736D01*
X533204Y258463D01*
X534426Y260579D01*
X535058Y262938D01*
Y265382D01*
X534426Y267741D01*
X533204Y269857D01*
X531477Y271584D01*
X529361Y272806D01*
X527001Y273438D01*
D02*
G37*
G36*
X561220Y262890D02*
X552450D01*
Y254120D01*
X561220D01*
Y262890D01*
D02*
G37*
G36*
X549910D02*
X541140D01*
Y254120D01*
X549910D01*
Y262890D01*
D02*
G37*
%LPD*%
D12*
X597770Y343770D02*
X609600Y355600D01*
X435502Y343770D02*
X597770D01*
X435756Y356470D02*
X436191Y356035D01*
X583765D02*
X584200Y355600D01*
X436191Y356035D02*
X583765D01*
D16*
X271715Y404433D02*
X271780Y404368D01*
X271715Y408990D02*
X282587Y419862D01*
X407416D01*
X271715Y404433D02*
Y408990D01*
X426386Y423926D02*
X434427Y415885D01*
X407416Y419862D02*
X426212Y401066D01*
X273050Y423926D02*
X426386D01*
X267970Y418846D02*
X273050Y423926D01*
X269360Y428498D02*
X436600D01*
X260350Y419488D02*
X269360Y428498D01*
X260350Y406432D02*
Y419488D01*
X260141Y406223D02*
X260350Y406432D01*
X426212Y401066D02*
X436626D01*
X273050Y368808D02*
X273304Y368554D01*
X376682D01*
X268732Y316230D02*
X326644D01*
X339090Y303784D01*
X265430Y295656D02*
X267335Y293751D01*
X336677D01*
X337312Y294386D01*
X376682Y368554D02*
X378714Y370586D01*
X386334D01*
D34*
X559054Y394462D02*
X567182Y386334D01*
Y369170D02*
Y386334D01*
X627380Y422148D02*
X630174Y419354D01*
D37*
X551180Y264160D02*
D03*
X355600Y261620D02*
D03*
D38*
X525780Y264160D02*
D03*
X368300Y381000D02*
D03*
Y355600D02*
D03*
Y330200D02*
D03*
X342900Y381000D02*
D03*
Y355600D02*
D03*
Y330200D02*
D03*
X355600Y287020D02*
D03*
X381000Y261620D02*
D03*
Y287020D02*
D03*
X406400Y261620D02*
D03*
Y287020D02*
D03*
D39*
X317500Y406400D02*
D03*
D40*
Y381000D02*
D03*
Y355600D02*
D03*
Y330200D02*
D03*
Y304800D02*
D03*
Y279400D02*
D03*
X292100Y406400D02*
D03*
Y381000D02*
D03*
Y355600D02*
D03*
Y330200D02*
D03*
Y304800D02*
D03*
Y279400D02*
D03*
D41*
X368300Y406400D02*
D03*
X342900D02*
D03*
D42*
X609600Y279400D02*
D03*
Y304800D02*
D03*
Y330200D02*
D03*
Y355600D02*
D03*
Y381000D02*
D03*
Y406400D02*
D03*
X584200Y279400D02*
D03*
Y304800D02*
D03*
Y330200D02*
D03*
Y355600D02*
D03*
Y381000D02*
D03*
D43*
Y406400D02*
D03*
D44*
X346456Y312420D02*
D03*
X501142Y326898D02*
D03*
Y372872D02*
D03*
X435756Y356470D02*
D03*
X435502Y343770D02*
D03*
X456438Y320294D02*
D03*
X271780Y404368D02*
D03*
X267970Y418846D02*
D03*
X260141Y406223D02*
D03*
X436626Y401066D02*
D03*
X434427Y415885D02*
D03*
X436600Y428498D02*
D03*
X273050Y368808D02*
D03*
X268732Y316230D02*
D03*
X339090Y303784D02*
D03*
X265430Y295656D02*
D03*
X337312Y294386D02*
D03*
X386334Y370586D02*
D03*
X439166Y263144D02*
D03*
X559054Y394462D02*
D03*
X602488Y429260D02*
D03*
X501396Y406654D02*
D03*
X567182Y369170D02*
D03*
X630174Y419354D02*
D03*
M02*
