G04*
G04 #@! TF.GenerationSoftware,Altium Limited,Altium Designer,23.3.1 (30)*
G04*
G04 Layer_Color=16711935*
%FSLAX44Y44*%
%MOMM*%
G71*
G04*
G04 #@! TF.SameCoordinates,227133D6-10B2-4A23-B006-C6EDEEC3DFA4*
G04*
G04*
G04 #@! TF.FilePolarity,Negative*
G04*
G01*
G75*
%ADD25R,1.7032X1.7032*%
%ADD26C,1.7032*%
%ADD27R,1.8542X1.8542*%
%ADD28C,1.8542*%
%ADD29R,1.7032X1.7032*%
%ADD30C,0.2032*%
%ADD31C,1.9304*%
%ADD32R,1.8796X1.8796*%
%ADD33C,0.8128*%
D25*
X551180Y264160D02*
D03*
X355600Y261620D02*
D03*
D26*
X525780Y264160D02*
D03*
X368300Y381000D02*
D03*
Y355600D02*
D03*
Y330200D02*
D03*
X342900Y381000D02*
D03*
Y355600D02*
D03*
Y330200D02*
D03*
X355600Y287020D02*
D03*
X381000Y261620D02*
D03*
Y287020D02*
D03*
X406400Y261620D02*
D03*
Y287020D02*
D03*
D27*
X317500Y406400D02*
D03*
D28*
Y381000D02*
D03*
Y355600D02*
D03*
Y330200D02*
D03*
Y304800D02*
D03*
Y279400D02*
D03*
X292100Y406400D02*
D03*
Y381000D02*
D03*
Y355600D02*
D03*
Y330200D02*
D03*
Y304800D02*
D03*
Y279400D02*
D03*
D29*
X368300Y406400D02*
D03*
X342900D02*
D03*
D30*
X522600Y325120D02*
D03*
X482600D02*
D03*
D31*
X609600Y279400D02*
D03*
Y304800D02*
D03*
Y330200D02*
D03*
Y355600D02*
D03*
Y381000D02*
D03*
Y406400D02*
D03*
X584200Y279400D02*
D03*
Y304800D02*
D03*
Y330200D02*
D03*
Y355600D02*
D03*
Y381000D02*
D03*
D32*
Y406400D02*
D03*
D33*
X346456Y312420D02*
D03*
X501142Y326898D02*
D03*
Y372872D02*
D03*
X435756Y356470D02*
D03*
X435502Y343770D02*
D03*
X456438Y320294D02*
D03*
X271780Y404368D02*
D03*
X267970Y418846D02*
D03*
X260141Y406223D02*
D03*
X436626Y401066D02*
D03*
X434427Y415885D02*
D03*
X436600Y428498D02*
D03*
X273050Y368808D02*
D03*
X268732Y316230D02*
D03*
X339090Y303784D02*
D03*
X265430Y295656D02*
D03*
X337312Y294386D02*
D03*
X386334Y370586D02*
D03*
X439166Y263144D02*
D03*
X559054Y394462D02*
D03*
X602488Y429260D02*
D03*
X501396Y406654D02*
D03*
X567182Y369170D02*
D03*
X630174Y419354D02*
D03*
M02*
